<svg width="20" height="20" viewBox="0 0 20 20" fill="none" xmlns="http://www.w3.org/2000/svg">
<g clip-path="url(#clip0_6132_2083)">
<path d="M1.66699 10.0003C1.66699 5.39795 5.39795 1.66699 10.0003 1.66699C14.6027 1.66699 18.3337 5.39795 18.3337 10.0003C18.3337 14.6027 14.6027 18.3337 10.0003 18.3337C5.39795 18.3337 1.66699 14.6027 1.66699 10.0003Z" stroke="#777F89" stroke-width="1.5"/>
<path d="M5 12.5C5 11.1193 6.11929 10 7.5 10C8.88071 10 10 11.1193 10 12.5C10 13.8807 8.88071 15 7.5 15C6.11929 15 5 13.8807 5 12.5Z" stroke="#777F89" stroke-width="1.5"/>
<path d="M3.75 9.58333L4.09505 8.75" stroke="#777F89" stroke-width="1.5" stroke-linecap="round"/>
<path d="M12.0537 5.97609C12.0537 5.97609 13.0894 5.83327 13.8215 6.56535C14.5536 7.29743 14.4107 8.33312 14.4107 8.33312" stroke="#777F89" stroke-width="1.5" stroke-linecap="round"/>
<path d="M7.50011 7.74374C7.50011 7.74374 6.46442 7.88656 5.73234 7.15449C5.00026 6.42241 5.14309 5.38672 5.14309 5.38672" stroke="#777F89" stroke-width="1.5" stroke-linecap="round"/>
<path d="M15.833 10.9473C15.833 10.9473 14.8647 11.3414 14.5967 12.3415C14.3287 13.3415 14.9703 14.167 14.9703 14.167" stroke="#777F89" stroke-width="1.5" stroke-linecap="round"/>
<path d="M11.1836 14.8096L12.4991 15.8329" stroke="#777F89" stroke-width="1.5" stroke-linecap="round"/>
<path d="M12.083 11.6667V10" stroke="#777F89" stroke-width="1.5" stroke-linecap="round"/>
<path d="M9.99967 4.16699L8.33301 4.16699" stroke="#777F89" stroke-width="1.5" stroke-linecap="round"/>
<path d="M10.4163 7.91634L9.58301 7.08301" stroke="#777F89" stroke-width="1.5" stroke-linecap="round"/>
</g>
<defs>
<clipPath id="clip0_6132_2083">
<rect width="20" height="20" fill="white"/>
</clipPath>
</defs>
</svg>
