<svg width="24" height="24" viewBox="0 0 24 24" fill="none" xmlns="http://www.w3.org/2000/svg">
<g clip-path="url(#clip0_4213_11378)">
<path d="M17.033 21.2494C15.8631 22.9739 13.9511 24.0408 11.6678 23.9989C6.84023 23.8899 3.94424 18.5725 6.3876 14.4074L11.0788 6.41141C11.3053 6.02451 11.7572 5.89945 12.1294 6.03568C12.3081 6.10068 12.4683 6.22575 12.5773 6.41141L17.2685 14.4074C18.6082 16.691 18.3426 19.3213 17.033 21.2494Z" fill="#005495"/>
<path d="M23.2656 7.2501C22.7296 8.48222 21.5409 9.33237 20.0339 9.2952C17.4529 9.21464 15.921 6.36552 17.2277 4.13804L19.4037 0.428688C19.6304 0.0423357 20.0823 -0.0832747 20.4544 0.0535051C20.6333 0.117958 20.7938 0.243019 20.9024 0.428688L23.0784 4.13804C23.6739 5.15299 23.6798 6.29758 23.2656 7.2501Z" fill="#005495"/>
<path d="M5.83118 10.9128C5.41041 12.044 4.35517 12.8817 3.01172 12.8817C0.650762 12.8817 -0.749262 10.3083 0.420964 8.31359L2.34797 5.02868C2.56495 4.65899 3.01282 4.55883 3.35468 4.72839C3.48212 4.79083 3.59455 4.89153 3.67511 5.02868L5.60212 8.31359C6.09742 9.15771 6.13202 10.1023 5.83118 10.9128Z" fill="#005495"/>
<path d="M17.033 21.2493C16.1347 21.8036 15.0714 22.1401 13.8933 22.1671C8.90676 22.3044 5.78389 16.852 8.29244 12.5756L12.1294 6.03564C12.3081 6.10065 12.4683 6.22571 12.5773 6.41138L17.2685 14.4074C18.6082 16.6909 18.3425 19.3212 17.033 21.2493Z" fill="#005495"/>
<path d="M23.2651 7.25031C22.93 7.37683 22.5651 7.45154 22.1761 7.46362C22.1371 7.46472 22.097 7.46564 22.0575 7.46564C22.0174 7.46564 21.9778 7.46472 21.9383 7.46362C19.3574 7.38306 17.825 4.53394 19.1322 2.30701L20.4539 0.0537109C20.6328 0.118164 20.7933 0.243225 20.9019 0.428894L23.0779 4.13824C23.6734 5.1532 23.6793 6.29779 23.2651 7.25031Z" fill="#005495"/>
<path d="M5.83077 10.9124C5.57771 10.9921 5.30672 11.0393 5.02144 11.0481C4.98665 11.0492 4.95149 11.0497 4.91597 11.0497C4.88081 11.0497 4.84547 11.0492 4.81087 11.0481C2.52535 10.9769 1.16835 8.45404 2.32558 6.48163L3.35426 4.72803C3.4817 4.79047 3.59413 4.89117 3.6747 5.02832L5.6017 8.31323C6.097 9.15735 6.13161 10.102 5.83077 10.9124Z" fill="#005495"/>
</g>
<defs>
<clipPath id="clip0_4213_11378">
<rect width="24" height="24" fill="white"/>
</clipPath>
</defs>
</svg>
