<svg width="24" height="24" viewBox="0 0 24 24" fill="none" xmlns="http://www.w3.org/2000/svg">
<g clip-path="url(#clip0_4213_11416)">
<path d="M17.5713 22.7141C17.5713 22.9508 17.7632 23.1427 17.9999 23.1427C18.2366 23.1427 18.4284 22.9508 18.4284 22.7141V20.5713H17.5713V22.7141Z" fill="#005495"/>
<path d="M16.7139 17.4473V18.8573C16.7153 19.3301 17.0982 19.713 17.571 19.7144H18.4282C18.901 19.713 19.2839 19.3301 19.2853 18.8573V17.4473C18.4362 17.613 17.563 17.613 16.7139 17.4473Z" fill="#005495"/>
<path d="M18 3.85709C18.6127 3.85858 19.2224 3.94219 19.8129 4.10566C19.1794 2.16277 17.365 0.850386 15.3214 0.857087C13.4101 0.843602 11.6007 1.71746 10.4229 3.2228C10.3427 3.33764 10.2115 3.40607 10.0714 3.40607C9.93138 3.40607 9.80016 3.33764 9.72 3.2228C8.54219 1.71746 6.73274 0.843602 4.82143 0.857087C2.07429 0.857087 0 3.0728 0 6.0128C0 9.56995 3.22243 13.1117 9.85371 16.8351C9.98703 16.9089 10.149 16.9089 10.2823 16.8351C11.1688 16.3488 12.026 15.8108 12.8494 15.2241C11.0711 13.2036 10.642 10.3285 11.7529 7.87681C12.8638 5.42515 15.3084 3.85214 18 3.85709ZM4.82143 2.57137C2.80329 2.57137 1.71429 4.34437 1.71429 6.0128C1.71429 6.2495 1.52241 6.44137 1.28571 6.44137C1.04902 6.44137 0.857143 6.2495 0.857143 6.0128C0.857143 3.92866 2.24657 1.71423 4.82143 1.71423C5.05812 1.71423 5.25 1.90611 5.25 2.1428C5.25 2.3795 5.05812 2.57137 4.82143 2.57137Z" fill="#005495"/>
<path d="M22.7143 10.7144C22.7143 10.4777 22.9062 10.2858 23.1429 10.2858H23.9786C23.763 7.31455 21.3999 4.95146 18.4286 4.73584V5.57155C18.4286 5.80825 18.2367 6.00013 18.0001 6.00013C17.7634 6.00013 17.5715 5.80825 17.5715 5.57155V4.73584C14.6002 4.95146 12.2371 7.31455 12.0215 10.2858H12.8572C13.0939 10.2858 13.2858 10.4777 13.2858 10.7144C13.2858 10.9511 13.0939 11.143 12.8572 11.143H12.0215C12.2371 14.1143 14.6002 16.4774 17.5715 16.693V15.8573C17.5715 15.6206 17.7634 15.4287 18.0001 15.4287C18.2367 15.4287 18.4286 15.6206 18.4286 15.8573V16.693C21.3999 16.4774 23.763 14.1143 23.9786 11.143H23.1429C22.9062 11.143 22.7143 10.9511 22.7143 10.7144ZM21.7329 7.59013L19.4701 9.8487C19.9183 10.6017 19.7356 11.5706 19.0439 12.1087C18.3523 12.6468 17.3682 12.5856 16.7486 11.9659C16.1289 11.3463 16.0677 10.3622 16.6058 9.67054C17.1439 8.97889 18.1128 8.7962 18.8658 9.24441L21.1243 6.98155C21.2924 6.8135 21.5649 6.8135 21.7329 6.98155C21.901 7.14961 21.901 7.42207 21.7329 7.59013Z" fill="#005495"/>
<path d="M17.9997 9.85693C17.5263 9.85693 17.1426 10.2407 17.1426 10.7141C17.1426 11.1875 17.5263 11.5712 17.9997 11.5712C18.4731 11.5712 18.8569 11.1875 18.8569 10.7141C18.8534 10.2421 18.4717 9.86043 17.9997 9.85693Z" fill="#005495"/>
</g>
<defs>
<clipPath id="clip0_4213_11416">
<rect width="24" height="24" fill="white"/>
</clipPath>
</defs>
</svg>
