<svg width="28" height="28" viewBox="0 0 28 28" fill="none" xmlns="http://www.w3.org/2000/svg">
<g clip-path="url(#clip0_4009_1553)">
<path d="M14.8203 6.61719H13.1797V8.25781H14.8203V6.61719Z" fill="#FA541C"/>
<path d="M14.8203 9.89844H13.1797V11.5391H14.8203V9.89844Z" fill="#FA541C"/>
<path d="M13.1797 16.4609C13.1797 17.351 13.1797 17.9572 13.1797 18.9219C13.1797 19.3737 13.5482 19.7422 14 19.7422C14.4518 19.7422 14.8203 19.3737 14.8203 18.9219C14.8203 17.9572 14.8203 17.351 14.8203 16.4609H13.1797Z" fill="#FA541C"/>
<path d="M19.7422 4.97656H16.4609V6.61719H18.9219C19.7725 6.61719 20.5417 6.951 21.1253 7.48415C21.2865 7.22712 21.3828 6.9317 21.3828 6.61719C21.3828 5.71195 20.6474 4.97656 19.7422 4.97656Z" fill="#FA541C"/>
<path d="M14 3.33594C13.5482 3.33594 13.1797 3.70442 13.1797 4.15625V4.97656H14.8203V4.15625C14.8203 3.70442 14.4518 3.33594 14 3.33594Z" fill="#FA541C"/>
<path d="M14.8203 13.1797H13.1797V14.8203H14.8203V13.1797Z" fill="#FA541C"/>
<path d="M25.5391 0.0546875L2.46094 0C1.10392 0 0 1.10392 0 2.46094V25.5391C0 26.8961 1.10392 28 2.46094 28H25.5391C26.8961 28 28 26.8961 28 25.4844V2.46094C28 1.15861 26.8961 0.0546875 25.5391 0.0546875ZM22.2031 9.89844C22.2031 10.7875 21.8392 11.6098 21.2227 12.2195C21.3171 12.5252 21.3828 12.8434 21.3828 13.1797C21.3828 14.9885 19.9104 16.4609 18.1016 16.4609C17.6481 16.4609 17.2812 16.094 17.2812 15.6406C17.2812 15.1872 17.6481 14.8203 18.1016 14.8203C19.0068 14.8203 19.7422 14.0849 19.7422 13.1797C19.7422 12.2744 19.0068 11.5391 18.1016 11.5391H16.4609V18.1016H18.9219C20.2789 18.1016 21.3828 19.2055 21.3828 20.5625C21.3828 21.6888 20.6009 22.6598 19.4811 22.9257C18.0248 23.316 16.8 24.1878 15.9835 25.3001C15.45 25.9506 14.737 26.3047 14 26.3047C13.2262 26.3047 12.51 25.9282 12.0325 25.2713C11.1545 24.1225 9.89521 23.2943 8.49652 22.9529C7.36061 22.6309 6.61719 21.6744 6.61719 20.5625C6.61719 19.2055 7.72111 18.1016 9.07812 18.1016H11.5391V11.5391H9.89844C8.9932 11.5391 8.25781 12.2744 8.25781 13.1797C8.25781 14.0849 8.9932 14.8203 9.89844 14.8203C10.3519 14.8203 10.7188 15.1872 10.7188 15.6406C10.7188 16.094 10.3519 16.4609 9.89844 16.4609C8.08959 16.4609 6.61719 14.9885 6.61719 13.1797C6.61719 12.8434 6.68276 12.5252 6.77731 12.2195C6.16077 11.6099 5.79688 10.7875 5.79688 9.89844C5.79688 9.56216 5.86245 9.24394 5.957 8.93823C5.34045 8.32869 4.97656 7.5063 4.97656 6.61719C4.97656 4.80834 6.44897 3.33594 8.25781 3.33594H11.6902C12.0299 2.38312 12.932 1.69531 14 1.69531C15.068 1.69531 15.9701 2.38312 16.3098 3.33594H19.7422C21.551 3.33594 23.0234 4.80834 23.0234 6.61719C23.0234 7.5063 22.6595 8.32858 22.043 8.93823C22.1374 9.24394 22.2031 9.56216 22.2031 9.89844Z" fill="#FA541C"/>
<path d="M18.9219 8.25781H16.4609V9.89844H18.1016C18.9522 9.89844 19.7214 10.2322 20.305 10.7654C20.4661 10.5084 20.5625 10.2129 20.5625 9.89844C20.5625 8.9932 19.8271 8.25781 18.9219 8.25781Z" fill="#FA541C"/>
<path d="M18.9219 19.7422H16.32C15.9819 20.6971 15.0702 21.3828 14 21.3828C12.9298 21.3828 12.0181 20.6971 11.68 19.7422H9.07812C8.6263 19.7422 8.25781 20.1107 8.25781 20.5625C8.25781 20.9903 8.58785 21.2755 8.91472 21.3668C10.6467 21.7882 12.2312 22.8296 13.3479 24.2908C13.4568 24.4397 13.6684 24.6641 14 24.6641C14.3349 24.6641 14.5736 24.4317 14.6873 24.2939C15.7075 22.9044 17.2633 21.8175 19.0805 21.3347C19.4217 21.2546 19.7422 20.9871 19.7422 20.5625C19.7422 20.1107 19.3737 19.7422 18.9219 19.7422Z" fill="#FA541C"/>
<path d="M8.25781 4.97656C7.35257 4.97656 6.61719 5.71195 6.61719 6.61719C6.61719 6.93164 6.7136 7.22723 6.87471 7.48415C7.45845 6.951 8.22746 6.61719 9.07812 6.61719H11.5391V4.97656H8.25781Z" fill="#FA541C"/>
<path d="M9.07812 8.25781C8.17288 8.25781 7.4375 8.9932 7.4375 9.89844C7.4375 10.2129 7.53391 10.5085 7.69502 10.7654C8.27876 10.2322 9.04777 9.89844 9.89844 9.89844H11.5391V8.25781H9.07812Z" fill="#FA541C"/>
</g>
<defs>
<clipPath id="clip0_4009_1553">
<rect width="28" height="28" fill="white"/>
</clipPath>
</defs>
</svg>
