<svg width="28" height="28" viewBox="0 0 28 28" fill="none" xmlns="http://www.w3.org/2000/svg">
<path d="M17.2699 1.08984H13.9998V3.13362H16.248V6.98275C16.248 10.3635 13.4974 13.1141 10.1166 13.1141C6.7358 13.1141 3.98524 10.3636 3.98524 6.9828V3.13362H6.1653V1.08984H2.96335C2.39892 1.08984 1.94146 1.5473 1.94146 2.11173V6.9828C1.94146 11.4907 5.60869 15.158 10.1166 15.158C14.6246 15.158 18.2918 11.4907 18.2918 6.9828V2.11173C18.2918 1.5473 17.8344 1.08984 17.2699 1.08984Z" fill="#00AEE4"/>
<path d="M21.2553 16.0098V20.8468C21.2553 23.6642 18.9632 25.9563 16.1458 25.9563C13.3284 25.9563 11.0363 23.6642 11.0363 20.8468V14.1704H8.99248V20.8468C8.99248 24.791 12.2012 28.0001 16.1458 28.0001C20.0899 28.0001 23.2991 24.791 23.2991 20.8468V16.0098H21.2553Z" fill="#00AEE4"/>
<path d="M22.2775 9.40137C20.1922 9.40137 18.4962 11.0974 18.4962 13.1824C18.4962 15.2671 20.1922 16.9634 22.2772 16.9634C24.3622 16.9634 26.0583 15.2671 26.0586 13.1824C26.0585 11.0974 24.3622 9.40137 22.2775 9.40137ZM22.2772 14.9197C21.319 14.9197 20.5396 14.1403 20.5396 13.1825C20.5396 12.2246 21.319 11.4453 22.2772 11.4453C23.2351 11.4453 24.0144 12.2246 24.0144 13.1825C24.0144 14.1403 23.2351 14.9197 22.2772 14.9197Z" fill="#00AEE4"/>
<path d="M6.13123 0C5.56681 0 5.10934 0.457461 5.10934 1.02189V3.20195C5.10934 3.76638 5.56681 4.22384 6.13123 4.22384C6.69566 4.22384 7.15313 3.76638 7.15313 3.20195V1.02189C7.15313 0.457461 6.69566 0 6.13123 0Z" fill="#00AEE4"/>
<path d="M14.0339 0C13.4695 0 13.012 0.457461 13.012 1.02189V3.20195C13.012 3.76638 13.4695 4.22384 14.0339 4.22384C14.5983 4.22384 15.0558 3.76638 15.0558 3.20195V1.02189C15.0558 0.457461 14.5983 0 14.0339 0Z" fill="#00AEE4"/>
</svg>
