<svg width="20" height="20" viewBox="0 0 20 20" fill="none" xmlns="http://www.w3.org/2000/svg">
<g clip-path="url(#clip0_6132_2040)">
<path d="M5.83301 8.33301L7.74375 10.2438C8.06919 10.5692 8.59683 10.5692 8.92226 10.2438L10.2438 8.92226C10.5692 8.59683 11.0968 8.59683 11.4223 8.92226L14.1663 11.6663M14.1663 11.6663V9.58301M14.1663 11.6663H12.083" stroke="#59B3DF" stroke-width="1.5" stroke-linecap="round" stroke-linejoin="round"/>
<path d="M18.3337 8.75033V10.0003C18.3337 13.9287 18.3337 15.8929 17.1133 17.1133C15.8929 18.3337 13.9287 18.3337 10.0003 18.3337C6.07195 18.3337 4.10777 18.3337 2.88738 17.1133C1.66699 15.8929 1.66699 13.9287 1.66699 10.0003C1.66699 6.07195 1.66699 4.10777 2.88738 2.88738C4.10777 1.66699 6.07195 1.66699 10.0003 1.66699H11.2503" stroke="#59B3DF" stroke-width="1.5" stroke-linecap="round"/>
<ellipse cx="15.833" cy="4.16699" rx="2.5" ry="2.5" stroke="#59B3DF" stroke-width="1.5"/>
</g>
<defs>
<clipPath id="clip0_6132_2040">
<rect width="20" height="20" fill="white"/>
</clipPath>
</defs>
</svg>
