<svg width="28" height="28" viewBox="0 0 28 28" fill="none" xmlns="http://www.w3.org/2000/svg">
<path d="M27.674 12.67C27.2485 11.9839 26.4965 11.5737 25.6625 11.5737H7.09271C6.17221 11.5737 5.33502 12.0926 4.95926 12.8961L0.0476379 23.1942C0.233063 23.9483 0.937378 24.5116 1.77628 24.5116H21.5332C22.3779 24.5116 23.1499 24.0339 23.5272 23.2781L27.7725 14.7691C28.1077 14.0958 28.0705 13.3111 27.674 12.67Z" fill="#00AEE4"/>
<path d="M3.9595 11.3123C4.33484 10.509 5.17224 9.98993 6.09296 9.98993H23.5795V7.7533C23.5795 6.8313 22.8017 6.08105 21.8457 6.08105H11.6495C11.6346 6.08105 11.6243 6.07721 11.6205 6.07443L9.79548 3.52271C9.47226 3.07004 8.93842 2.7998 8.36805 2.7998H1.73419C0.777802 2.7998 0 3.55005 0 4.47205V19.6136L3.9595 11.3123Z" fill="#00AEE4"/>
</svg>
