<svg width="24" height="24" viewBox="0 0 24 24" fill="none" xmlns="http://www.w3.org/2000/svg">
<path d="M23 13H19.764L16.965 2.73605C16.844 2.29303 16.435 1.99505 15.977 2.00006C15.517 2.01108 15.124 2.33405 15.023 2.78208L11.775 17.398L7.941 6.66305C7.79498 6.25406 7.40602 5.99006 6.96802 6.00005C6.75621 6.00687 6.55203 6.08075 6.3849 6.21104C6.21777 6.34134 6.09631 6.52132 6.03802 6.72506L4.24598 13H0.999984C0.447 13 0 13.448 0 14C0 14.552 0.447 15 0.999984 15H4.99997C5.44598 15 5.83898 14.704 5.96095 14.274L7.10494 10.269L11.0589 21.336C11.2009 21.736 11.5789 22 12 22C12.021 22 12.041 21.999 12.062 21.998C12.2783 21.9843 12.4844 21.9008 12.6493 21.76C12.8141 21.6191 12.9287 21.4286 12.976 21.217L16.098 7.164L18.035 14.263C18.154 14.698 18.549 15 19 15H23C23.553 15 24 14.552 24 14C24 13.448 23.553 13 23 13Z" fill="#005495"/>
</svg>
