<svg width="180" height="147" viewBox="0 0 180 147" fill="none" xmlns="http://www.w3.org/2000/svg">
<ellipse cx="89.9998" cy="68.7584" rx="61.5789" ry="61.6452" fill="#EAECF0"/>
<ellipse cx="24.8683" cy="29.6374" rx="5.92105" ry="5.92742" fill="#F2F4F7"/>
<ellipse cx="21.3158" cy="129.217" rx="8.28947" ry="8.29839" fill="#F2F4F7"/>
<ellipse cx="171.71" cy="48.605" rx="8.28947" ry="8.29839" fill="#F2F4F7"/>
<ellipse cx="158.684" cy="16.5964" rx="4.73684" ry="4.74194" fill="#F2F4F7"/>
<g filter="url(#filter0_dd_6132_2934)">
<path d="M89.9995 42.7519L95.3712 40.4996L90.0002 42.7901V106.919L139.495 86.1555V21.9985L139.736 21.8973L139.495 21.7903V21.6825L139.371 21.7353L90.3901 0L40.2627 21.376L40.5 21.478L40.2627 85.3745L89.9996 106.88L89.9995 42.7519Z" fill="#F9FAFB"/>
<path d="M89.9996 42.7526V106.881L40.2627 85.375L40.5 21.4785L89.9996 42.7526Z" fill="url(#paint0_linear_6132_2934)"/>
<path d="M90 42.7902V106.919L139.495 86.1556V21.6826L90 42.7902Z" fill="url(#paint1_linear_6132_2934)"/>
<path d="M89.9995 42.7519L139.736 21.8973L90.3901 0L40.2627 21.376L89.9995 42.7519Z" fill="#F2F4F7"/>
<path d="M59.0117 13.3807L108.559 34.9699L109.009 50.7026L122.872 44.9764L122.453 29.1443L71.4395 8.08105L59.0117 13.3807Z" fill="#EAECF0"/>
</g>
<g filter="url(#filter1_b_6132_2934)">
<rect x="61.5791" y="80.6133" width="56.8421" height="56.9032" rx="28.4211" fill="#344054" fill-opacity="0.4"/>
<path d="M90.0002 97.5059V100.47M90.0002 116.177V120.919M82.5988 109.064H78.4541M100.954 109.064H99.1778M97.6467 116.719L96.8094 115.881M97.892 101.259L96.2173 102.935M81.6178 117.456L84.9673 114.103M81.8631 101.013L84.3752 103.528" stroke="white" stroke-width="2" stroke-linecap="round" stroke-linejoin="round"/>
</g>
<defs>
<filter id="filter0_dd_6132_2934" x="20.2627" y="0" width="139.474" height="146.919" filterUnits="userSpaceOnUse" color-interpolation-filters="sRGB">
<feFlood flood-opacity="0" result="BackgroundImageFix"/>
<feColorMatrix in="SourceAlpha" type="matrix" values="0 0 0 0 0 0 0 0 0 0 0 0 0 0 0 0 0 0 127 0" result="hardAlpha"/>
<feMorphology radius="4" operator="erode" in="SourceAlpha" result="effect1_dropShadow_6132_2934"/>
<feOffset dy="8"/>
<feGaussianBlur stdDeviation="4"/>
<feColorMatrix type="matrix" values="0 0 0 0 0.0627451 0 0 0 0 0.0941176 0 0 0 0 0.156863 0 0 0 0.03 0"/>
<feBlend mode="normal" in2="BackgroundImageFix" result="effect1_dropShadow_6132_2934"/>
<feColorMatrix in="SourceAlpha" type="matrix" values="0 0 0 0 0 0 0 0 0 0 0 0 0 0 0 0 0 0 127 0" result="hardAlpha"/>
<feMorphology radius="4" operator="erode" in="SourceAlpha" result="effect2_dropShadow_6132_2934"/>
<feOffset dy="20"/>
<feGaussianBlur stdDeviation="12"/>
<feColorMatrix type="matrix" values="0 0 0 0 0.0627451 0 0 0 0 0.0941176 0 0 0 0 0.156863 0 0 0 0.08 0"/>
<feBlend mode="normal" in2="effect1_dropShadow_6132_2934" result="effect2_dropShadow_6132_2934"/>
<feBlend mode="normal" in="SourceGraphic" in2="effect2_dropShadow_6132_2934" result="shape"/>
</filter>
<filter id="filter1_b_6132_2934" x="53.5791" y="72.6133" width="72.8418" height="72.9033" filterUnits="userSpaceOnUse" color-interpolation-filters="sRGB">
<feFlood flood-opacity="0" result="BackgroundImageFix"/>
<feGaussianBlur in="BackgroundImageFix" stdDeviation="4"/>
<feComposite in2="SourceAlpha" operator="in" result="effect1_backgroundBlur_6132_2934"/>
<feBlend mode="normal" in="SourceGraphic" in2="effect1_backgroundBlur_6132_2934" result="shape"/>
</filter>
<linearGradient id="paint0_linear_6132_2934" x1="40.2627" y1="85.6973" x2="59.9424" y2="32.4568" gradientUnits="userSpaceOnUse">
<stop stop-color="#DEE1E8"/>
<stop offset="1" stop-color="#EFF1F5"/>
</linearGradient>
<linearGradient id="paint1_linear_6132_2934" x1="89.9993" y1="44.0454" x2="146.087" y2="55.1999" gradientUnits="userSpaceOnUse">
<stop stop-color="#E4E7EC"/>
<stop offset="1" stop-color="#F2F4F7"/>
</linearGradient>
</defs>
</svg>
