<svg width="263" height="263" viewBox="0 0 263 263" fill="none" xmlns="http://www.w3.org/2000/svg">
<path d="M258.126 156.956C257.953 163.429 257.347 169.954 256.124 176.418C252.985 192.994 245.782 209.142 231.404 222.817C219.191 234.439 201.799 244.278 177.315 251.079C176.847 251.21 176.375 251.34 175.899 251.468C157.65 256.398 136.417 258.82 117.483 257.323C116.518 257.246 115.549 257.174 114.583 257.105C105.673 256.469 96.7489 256.084 87.8519 255.256C61.0905 252.765 30.4194 244.954 17.8481 218.44C16.863 216.36 15.9984 214.225 15.2585 212.045C9.89911 196.406 10.8527 179.406 11.6006 163.016C11.6382 162.184 11.6756 161.354 11.7126 160.526C12.3832 145.139 9.93641 129.641 6.31407 114.667C0.738153 91.6087 5.33228 67.426 19.0865 47.5937C32.8406 27.7613 54.5729 13.9608 79.3633 9.32568C121.128 1.51412 163.5 6.66784 163.5 6.66784C219.303 12.464 247.552 67.8664 254.441 112.962C256.462 126.189 258.542 141.411 258.126 156.956Z" fill="#F4F7FA"/>
<path d="M154.723 177.386C149.828 155.275 130.021 90.1645 170.646 94.2063C197.984 96.927 179.635 119.18 197.109 126.36C214.583 133.54 217.093 154.672 193.87 181.87C170.646 209.068 140.634 219.267 140.634 219.267C140.634 219.267 159.616 199.494 154.723 177.386Z" fill="#D8DEE8"/>
<g style="mix-blend-mode:soft-light" opacity="0.8">
<g style="mix-blend-mode:soft-light" opacity="0.8">
<path d="M136.5 221.788C136.549 221.787 136.597 221.776 136.64 221.754C181.114 199.518 175.085 153.032 171.482 125.258C171.058 121.993 170.663 118.908 170.39 116.215C169.108 103.339 171.763 96.698 174.217 93.3941C176.855 89.8454 179.829 89.2913 179.858 89.2859C179.939 89.2702 180.01 89.2237 180.057 89.1563C180.103 89.0888 180.122 89.0057 180.108 88.9249C180.094 88.844 180.049 88.7718 179.983 88.7236C179.916 88.6754 179.834 88.6552 179.753 88.6671C179.622 88.689 176.537 89.2467 173.747 92.971C171.209 96.3604 168.457 103.156 169.764 116.276C170.037 118.98 170.433 122.069 170.856 125.339C174.441 152.952 180.434 199.155 136.359 221.195C136.296 221.227 136.245 221.279 136.214 221.343C136.184 221.407 136.177 221.48 136.193 221.549C136.21 221.618 136.249 221.679 136.305 221.723C136.36 221.767 136.429 221.791 136.5 221.79V221.788Z" fill="white"/>
</g>
<g style="mix-blend-mode:soft-light" opacity="0.8">
<path d="M172.952 141.16C173.005 141.161 173.057 141.147 173.103 141.122C173.149 141.097 173.188 141.06 173.217 141.016C173.251 140.961 176.784 135.486 182.366 130.467C187.49 125.861 195.441 120.706 204.227 122.303C204.309 122.318 204.394 122.3 204.462 122.253C204.531 122.205 204.577 122.132 204.592 122.05C204.607 121.969 204.589 121.884 204.541 121.816C204.494 121.747 204.421 121.7 204.339 121.686C197.184 120.384 189.436 123.263 181.935 130.01C176.294 135.086 172.724 140.622 172.688 140.677C172.643 140.747 172.627 140.832 172.644 140.913C172.661 140.994 172.709 141.066 172.779 141.111C172.83 141.145 172.891 141.162 172.952 141.16Z" fill="white"/>
</g>
<g style="mix-blend-mode:soft-light" opacity="0.8">
<path d="M172.364 172.582C172.41 172.582 172.455 172.572 172.496 172.552C172.537 172.533 172.574 172.505 172.604 172.47C172.652 172.414 177.536 166.708 185.019 161.656C191.902 157.01 202.458 151.98 213.659 154.407C213.7 154.417 213.743 154.419 213.784 154.413C213.826 154.406 213.866 154.391 213.902 154.369C213.937 154.347 213.968 154.318 213.992 154.283C214.017 154.249 214.034 154.21 214.043 154.169C214.052 154.128 214.052 154.085 214.044 154.044C214.036 154.003 214.02 153.963 213.997 153.928C213.974 153.893 213.944 153.863 213.908 153.84C213.873 153.817 213.834 153.801 213.792 153.794C202.368 151.32 191.642 156.425 184.655 161.145C177.103 166.245 172.174 172.007 172.125 172.064C172.086 172.109 172.061 172.165 172.052 172.225C172.044 172.284 172.053 172.345 172.078 172.399C172.104 172.454 172.144 172.5 172.195 172.532C172.245 172.564 172.304 172.581 172.364 172.581V172.582Z" fill="white"/>
</g>
<g style="mix-blend-mode:soft-light" opacity="0.8">
<path d="M171.227 125.473C171.287 125.473 171.345 125.456 171.396 125.424C171.466 125.378 171.514 125.307 171.531 125.226C171.548 125.144 171.532 125.059 171.487 124.99C171.452 124.934 167.881 119.398 162.24 114.323C154.739 107.576 146.992 104.697 139.836 105.998C139.754 106.013 139.681 106.06 139.634 106.129C139.587 106.197 139.568 106.282 139.583 106.364C139.598 106.446 139.645 106.518 139.714 106.565C139.782 106.613 139.867 106.631 139.949 106.616C148.734 105.017 156.686 110.174 161.809 114.78C167.392 119.799 170.924 125.274 170.958 125.328C170.987 125.373 171.027 125.41 171.074 125.436C171.121 125.461 171.173 125.474 171.227 125.473Z" fill="white"/>
</g>
<g style="mix-blend-mode:soft-light" opacity="0.8">
<path d="M173.466 162.031C173.521 162.031 173.575 162.016 173.622 161.989C173.67 161.961 173.709 161.922 173.737 161.874C173.765 161.827 173.779 161.773 173.78 161.718C173.78 161.663 173.766 161.609 173.739 161.561C173.702 161.495 169.907 154.881 163.873 149.563C160.315 146.429 156.685 144.347 153.081 143.376C148.556 142.158 144.072 142.696 139.749 144.977C139.678 145.017 139.625 145.084 139.602 145.162C139.579 145.241 139.587 145.325 139.625 145.398C139.664 145.47 139.729 145.525 139.807 145.55C139.884 145.575 139.969 145.569 140.042 145.532C147.64 141.521 155.518 143.036 163.458 150.034C169.414 155.282 173.156 161.805 173.194 161.871C173.221 161.919 173.261 161.959 173.308 161.987C173.356 162.016 173.411 162.031 173.466 162.031Z" fill="white"/>
</g>
<g style="mix-blend-mode:soft-light" opacity="0.8">
<path d="M167.817 189.648C167.872 189.648 167.926 189.633 167.974 189.606C168.021 189.579 168.061 189.539 168.088 189.492C168.116 189.444 168.131 189.391 168.131 189.336C168.131 189.281 168.117 189.227 168.09 189.179C168.052 189.113 164.258 182.498 158.224 177.181C154.666 174.046 151.036 171.964 147.432 170.994C142.907 169.776 138.424 170.315 134.101 172.596C134.063 172.615 134.03 172.641 134.002 172.672C133.975 172.704 133.954 172.741 133.941 172.781C133.928 172.821 133.924 172.863 133.927 172.905C133.931 172.946 133.943 172.987 133.962 173.024C133.982 173.061 134.009 173.094 134.041 173.12C134.074 173.147 134.111 173.167 134.151 173.178C134.191 173.19 134.234 173.194 134.275 173.189C134.317 173.185 134.357 173.172 134.394 173.151C141.99 169.14 149.869 170.654 157.809 177.652C163.765 182.901 167.507 189.424 167.545 189.489C167.573 189.537 167.612 189.577 167.66 189.605C167.708 189.633 167.762 189.648 167.817 189.648Z" fill="white"/>
</g>
</g>
<path d="M165.145 195.481C171.049 186.411 170.684 182.723 178.662 169.988C187.661 155.622 193.125 147.228 203.088 147.308C209.881 147.362 217.859 151.349 221.31 156.532C227.084 165.206 219.746 176.572 217.238 180.456C213.035 186.964 208.764 188.948 208.97 195.036C209.144 200.174 212.279 201.537 212.342 205.382C212.524 216.294 187.507 221.037 183.458 221.804C167.591 224.813 152.279 222.77 140.586 219.856C153.413 211.161 160.763 202.212 165.145 195.481Z" fill="url(#paint0_linear_4002_229)"/>
<g style="mix-blend-mode:soft-light" opacity="0.8">
<g style="mix-blend-mode:soft-light" opacity="0.8">
<path d="M138.103 220.577C138.118 220.578 138.134 220.578 138.149 220.577C151.918 218.308 164.606 213.275 175.857 205.615C184.857 199.489 192.964 191.68 199.948 182.403C211.841 166.613 216.424 151.836 216.469 151.688C216.48 151.654 216.483 151.618 216.48 151.582C216.476 151.546 216.466 151.511 216.449 151.479C216.432 151.447 216.409 151.419 216.381 151.396C216.353 151.373 216.321 151.356 216.286 151.345C216.252 151.335 216.216 151.331 216.18 151.335C216.144 151.338 216.109 151.349 216.077 151.366C216.045 151.383 216.017 151.406 215.994 151.434C215.971 151.462 215.954 151.494 215.943 151.528C215.899 151.675 211.337 166.374 199.497 182.088C188.578 196.58 169.057 214.928 138.06 220.032C137.987 220.037 137.92 220.072 137.873 220.127C137.826 220.182 137.803 220.254 137.809 220.326C137.814 220.399 137.849 220.466 137.904 220.513C137.959 220.56 138.031 220.583 138.103 220.577V220.577Z" fill="white"/>
</g>
<g style="mix-blend-mode:soft-light" opacity="0.8">
<path d="M199.327 183.039C199.373 183.039 199.418 183.027 199.458 183.006C199.49 182.989 199.519 182.966 199.541 182.938C199.564 182.91 199.581 182.877 199.592 182.843C199.602 182.808 199.605 182.771 199.601 182.735C199.597 182.699 199.586 182.665 199.568 182.633C199.495 182.496 192.198 168.794 193.761 149.923C193.767 149.85 193.745 149.778 193.698 149.723C193.651 149.668 193.584 149.633 193.511 149.627C193.439 149.621 193.367 149.644 193.312 149.691C193.256 149.738 193.222 149.805 193.215 149.877C191.639 168.92 199.013 182.758 199.087 182.895C199.11 182.938 199.145 182.975 199.187 183C199.23 183.025 199.278 183.039 199.327 183.039Z" fill="white"/>
</g>
<g style="mix-blend-mode:soft-light" opacity="0.8">
<path d="M200.254 182.999C201.801 182.999 205.076 182.874 209.187 182.01C214.497 180.896 222.344 178.288 229.583 172.193C229.639 172.146 229.673 172.079 229.68 172.006C229.686 171.933 229.663 171.861 229.616 171.805C229.569 171.75 229.502 171.715 229.429 171.709C229.357 171.702 229.285 171.725 229.229 171.772C222.084 177.789 214.335 180.365 209.093 181.468C203.407 182.664 199.357 182.432 199.317 182.429C199.245 182.425 199.174 182.449 199.119 182.497C199.065 182.545 199.032 182.613 199.028 182.685C199.023 182.758 199.048 182.829 199.096 182.883C199.144 182.937 199.211 182.971 199.284 182.975C199.296 182.979 199.638 182.999 200.254 182.999Z" fill="white"/>
</g>
<g style="mix-blend-mode:soft-light" opacity="0.8">
<path d="M194.352 204.21C200.913 204.21 211.117 202.314 225.323 194.519C225.355 194.502 225.383 194.478 225.406 194.45C225.428 194.422 225.445 194.39 225.455 194.355C225.465 194.32 225.468 194.284 225.464 194.248C225.46 194.212 225.449 194.178 225.432 194.146C225.414 194.114 225.391 194.086 225.363 194.064C225.335 194.041 225.302 194.025 225.268 194.015C225.233 194.004 225.197 194.001 225.161 194.005C225.125 194.009 225.09 194.02 225.059 194.038C209.167 202.756 198.357 204.038 192.085 203.579C185.309 203.081 182.239 200.5 182.208 200.473C182.153 200.425 182.081 200.401 182.008 200.406C181.935 200.411 181.867 200.444 181.819 200.499C181.77 200.555 181.746 200.627 181.751 200.7C181.756 200.773 181.789 200.841 181.844 200.889C181.972 201 185.046 203.6 191.979 204.122C192.712 204.18 193.502 204.21 194.352 204.21Z" fill="white"/>
</g>
<g style="mix-blend-mode:soft-light" opacity="0.8">
<path d="M205.072 230.717C205.144 230.721 205.215 230.696 205.269 230.647C205.322 230.598 205.355 230.53 205.358 230.458C205.362 230.386 205.337 230.315 205.288 230.261C205.239 230.207 205.171 230.175 205.099 230.171C187.022 228.352 177.38 223.265 172.474 219.318C167.197 215.073 166.151 211.242 166.141 211.203C166.132 211.169 166.116 211.136 166.095 211.107C166.073 211.078 166.046 211.054 166.014 211.036C165.983 211.017 165.949 211.005 165.913 211C165.877 210.995 165.841 210.997 165.806 211.006C165.771 211.016 165.738 211.031 165.709 211.053C165.681 211.075 165.656 211.102 165.638 211.133C165.62 211.164 165.608 211.199 165.603 211.235C165.598 211.27 165.6 211.307 165.609 211.342C165.652 211.505 166.713 215.389 172.129 219.747C177.093 223.74 186.833 228.885 205.043 230.719L205.072 230.717Z" fill="white"/>
</g>
<g style="mix-blend-mode:soft-light" opacity="0.8">
<path d="M180.699 202.012C180.753 202.013 180.806 201.998 180.852 201.968C180.897 201.938 180.933 201.896 180.954 201.846C180.976 201.796 180.982 201.741 180.971 201.688C180.961 201.635 180.935 201.586 180.897 201.547C180.872 201.52 178.314 198.817 176.515 193.656C174.855 188.891 173.519 180.989 176.586 170.409C176.606 170.339 176.598 170.264 176.563 170.2C176.528 170.136 176.469 170.089 176.399 170.069C176.329 170.048 176.253 170.057 176.19 170.092C176.126 170.127 176.079 170.186 176.058 170.256C172.946 180.993 174.312 189.022 176.006 193.868C177.847 199.135 180.393 201.816 180.501 201.928C180.527 201.955 180.558 201.976 180.592 201.99C180.626 202.005 180.662 202.012 180.699 202.012Z" fill="white"/>
</g>
</g>
<path d="M253.27 221.966L18.4086 219.936V225.941C18.4086 227.572 19.4331 228.959 20.8207 229.205L87.2322 241.031C88.0184 241.171 88.8194 241.209 89.6152 241.142L250.717 227.656C252.156 227.536 253.27 226.145 253.27 224.471V221.966Z" fill="#BFC8D6"/>
<path d="M166.84 212.34L17.5678 223.329C14.8963 223.525 12.7244 221.435 12.7244 218.661V107.502C12.7244 104.728 14.8963 102.479 17.5678 102.479H166.84C169.041 102.479 170.82 104.511 170.82 107.02V207.506C170.82 210.013 169.041 212.178 166.84 212.34Z" fill="#BFC8D6"/>
<path d="M169.22 212.34L19.9482 223.329C17.2767 223.525 15.1047 221.435 15.1047 218.661V107.502C15.1047 104.728 17.2767 102.479 19.9482 102.479H169.22C171.421 102.479 173.2 104.511 173.2 107.02V207.506C173.2 210.013 171.421 212.178 169.22 212.34Z" fill="white"/>
<path d="M164.574 205.256L25.5405 214.8C23.3667 214.95 21.5997 213.235 21.5997 210.97V113.65C21.5997 111.385 23.3667 109.541 25.5405 109.531L164.574 108.933C166.394 108.924 167.858 110.591 167.858 112.653V201.295C167.85 203.361 166.386 205.131 164.574 205.256Z" fill="url(#paint1_linear_4002_229)"/>
<path d="M99.8562 105.519C99.8562 106.552 99.0873 107.392 98.1392 107.394C97.1911 107.397 96.4177 106.561 96.4177 105.525C96.4177 104.49 97.1893 103.651 98.1392 103.65C99.0892 103.649 99.8562 104.486 99.8562 105.519Z" fill="white"/>
<g style="mix-blend-mode:soft-light" opacity="0.48">
<path d="M19.9473 223.329L168.465 212.395L169.22 212.34C170.23 212.265 171.149 211.767 171.85 211.01C161.162 210.425 154.524 206.632 150.242 202.713C141.642 194.842 143.134 187.082 133.863 181.907C122.296 175.453 113.202 183.636 104.425 175.562C99.1038 170.671 101.716 167.022 95.1685 159.712C87.9165 151.614 83.195 154.337 75.9066 147.049C66.692 137.836 71.3007 130.667 63.3626 124.051C53.7331 116.025 43.3446 123.454 34.181 115.757C30.2274 112.437 28.0573 107.61 26.9254 102.479H19.9482C17.2767 102.479 15.1047 104.728 15.1047 107.502V218.661C15.1047 221.435 17.2758 223.525 19.9473 223.329Z" fill="white"/>
</g>
<path d="M176.254 211.732L18.4086 223.297L87.2322 235.554C88.0183 235.695 88.8195 235.733 89.6152 235.665L253.27 221.966L178.769 211.808C177.936 211.696 177.093 211.67 176.254 211.732Z" fill="url(#paint2_linear_4002_229)"/>
<path d="M41.441 223.396L172.852 213.624L213.522 219.123L83.2431 229.57L41.441 223.396Z" fill="#D8DEE8"/>
<path d="M226.148 219.873C226.41 220.114 226.427 220.678 226.437 221.047C226.45 221.148 226.445 221.251 226.423 221.351C226.264 221.765 225.443 221.758 224.152 221.812C222.112 221.895 221.499 222.018 221.359 221.706C221.227 221.414 221.616 220.979 221.659 220.925C221.894 220.664 222.167 220.581 222.695 220.442C223.67 220.185 224.327 220.052 224.526 220.012C225.768 219.76 225.975 219.715 226.148 219.873Z" fill="url(#paint3_linear_4002_229)"/>
<path d="M224.719 217.838L224.64 220.16C224.704 220.269 225.408 220.567 225.939 220.251L226.339 217.951L224.719 217.838Z" fill="url(#paint4_linear_4002_229)"/>
<path d="M208.963 219.551C209.315 219.9 209.426 220.57 209.155 220.916C208.885 221.263 208.451 221.036 207.245 221.137C205.953 221.244 205.632 221.568 204.741 221.372C204.377 221.293 203.74 221.088 203.74 220.834C203.74 220.652 204.053 220.546 205.104 220.132C206.59 219.544 206.582 219.517 206.902 219.447C207.697 219.269 208.5 219.092 208.963 219.551Z" fill="url(#paint5_linear_4002_229)"/>
<path d="M208.023 217.488L207.488 219.679C207.544 219.792 208.224 220.144 208.777 219.869L209.629 217.723L208.023 217.488Z" fill="url(#paint6_linear_4002_229)"/>
<path d="M211.262 169.922C211.917 186.092 210.632 202.283 207.432 218.147L209.951 218.682C211.946 216.612 214.43 213.389 215.476 208.965C216.124 206.22 215.786 204.845 216.113 201.493C216.631 196.156 218.105 193.297 219.555 188.936C220.857 185.019 222.338 179.291 222.891 171.718L211.262 169.922Z" fill="url(#paint7_linear_4002_229)"/>
<path style="mix-blend-mode:multiply" opacity="0.3" d="M212.422 203.835C213.346 200.174 215.127 199.206 215.19 195.75C215.235 193.306 214.356 193.106 214.415 190.767C214.506 187.218 216.582 185.357 217.627 183.123C218.729 180.766 219.152 176.98 216.18 170.681L222.89 171.72C222.337 179.295 220.856 185.021 219.554 188.938C218.104 193.296 216.63 196.156 216.112 201.494C215.786 204.847 216.124 206.226 215.475 208.967C214.429 213.391 211.945 216.61 209.95 218.683L209.313 218.547C211.469 215.973 212.231 213.674 212.425 211.808C212.737 208.774 211.489 207.526 212.422 203.835Z" fill="url(#paint8_linear_4002_229)"/>
<path d="M219.653 169.469C220.652 178.664 221.566 188.035 222.396 197.58C223.017 204.743 223.571 211.816 224.058 218.8L226.61 218.982C227.657 216.764 228.423 214.423 228.891 212.015C229.601 208.347 229.277 206.209 229.473 202.437C229.692 198.205 230.292 197.25 231.148 191.882C232.892 180.986 233.765 175.538 230.998 172.326C230.1 171.282 227.321 168.694 219.653 169.469Z" fill="url(#paint9_linear_4002_229)"/>
<path d="M231.794 173.497L235.18 155.563C235.18 155.563 232.756 148.018 224.161 147.137C215.566 146.256 208.733 150.663 208.733 150.663L211.36 172.865C211.36 172.865 219.151 176.716 231.794 173.497Z" fill="url(#paint10_linear_4002_229)"/>
<path d="M239.387 140.435C235.474 138.753 229.931 137.122 221.395 137.639C218.211 137.832 218.852 137.812 208.218 140.244C207.763 142.805 207.961 145.055 207.504 147.614C207.231 157.028 207.739 159.185 208.292 159.256C209.287 159.385 209.843 150.863 214.243 149.559C215.249 149.26 215.457 149.635 219.752 149.779C223.743 149.913 223.882 149.597 225.042 149.779C231.054 150.709 233.839 160.194 235.401 159.477C236.151 159.131 236.451 156.661 236.746 154.216C236.806 153.746 236.929 153.287 237.11 152.851C237.148 152.76 237.19 152.669 237.24 152.578C237.767 151.562 241.685 150.142 243.501 148.145C243.886 147.72 244.967 146.531 244.875 145.137C244.821 144.376 244.362 142.579 239.387 140.435Z" fill="url(#paint11_linear_4002_229)"/>
<path d="M222.071 132.018C222.12 133.197 222.288 134.367 222.572 135.512C222.803 136.437 222.947 136.671 223.124 136.859C223.392 137.14 223.786 137.368 225.968 137.786C227.155 138.015 227.305 137.998 227.337 138.114C227.494 138.674 224.402 140.778 221.076 140.488C219.042 140.306 217.142 139.257 217.222 138.645C217.302 138.034 219.338 138.249 219.881 137.115C220.258 136.326 219.731 135.263 219.129 134.391C219.612 133.357 221.587 133.053 222.071 132.018Z" fill="url(#paint12_linear_4002_229)"/>
<path d="M218.35 132.813C217.84 132.205 217.751 131.102 218.259 130.373C218.699 129.747 219.442 129.621 219.881 129.546C221.163 129.328 222.821 129.779 223.451 130.937C223.824 131.623 223.178 133.121 223.077 133.394C222.963 133.697 222.736 133.812 222.531 134.049C222.248 134.376 221.803 134.897 221.086 135.767C220.998 135.471 220.884 135.183 220.746 134.907C220.567 134.546 220.343 134.209 220.078 133.906C219.37 133.126 218.837 133.389 218.35 132.813Z" fill="url(#paint13_linear_4002_229)"/>
<path d="M222.148 135.011C222.148 135.011 221.374 136.448 219.678 136.429C218.161 136.411 217.759 133.031 218.686 132.26C218.995 132.002 219.636 131.869 220.168 131.987C220.483 132.057 220.595 132.18 221.111 132.285C221.587 132.382 221.717 132.323 221.865 132.435C222.047 132.575 222.2 132.933 221.956 133.94C222.229 133.633 222.569 133.503 222.82 133.605C222.906 133.645 222.98 133.708 223.032 133.787C223.264 134.168 222.938 134.681 222.148 135.011Z" fill="url(#paint14_linear_4002_229)"/>
<path d="M221.922 132.229C221.852 132.287 222.09 132.547 222.127 132.931C222.2 133.677 221.49 134.615 220.723 134.733C220.268 134.802 220.129 134.534 219.37 134.494C219 134.476 218.63 134.517 218.273 134.616C218.08 135.449 218.346 136.254 218.91 136.605C219.522 136.981 220.263 136.696 220.572 136.573C220.779 136.493 221.443 136.236 221.763 135.597C222.096 134.932 221.714 134.563 222.113 134.103C222.314 133.871 222.588 133.761 222.841 133.321C222.895 133.226 222.941 133.127 222.98 133.025C222.568 132.632 222.024 132.144 221.922 132.229Z" fill="url(#paint15_linear_4002_229)"/>
<path d="M219.666 135.27C219.666 135.27 219.33 135.116 218.767 135.179C218.739 135.179 218.709 135.179 218.705 135.162C218.689 135.109 219.038 134.85 219.377 134.925C219.617 134.98 219.814 135.198 219.785 135.253C219.772 135.276 219.715 135.277 219.666 135.27Z" fill="url(#paint16_linear_4002_229)"/>
<path d="M233.482 156.398L233.774 155.588C233.774 155.588 233.624 153.516 232.567 152.992C231.511 152.468 230.475 152.823 230.051 153.655C229.626 154.488 229.815 154.549 230.299 154.676C230.783 154.804 232.315 156.158 232.315 156.158L233.482 156.398Z" fill="url(#paint17_linear_4002_229)"/>
<path d="M208.727 155.736L208.435 154.928C208.435 154.928 208.585 152.855 209.642 152.332C210.699 151.808 211.73 152.161 212.159 152.994C212.588 153.827 212.394 153.888 211.91 154.015C211.426 154.141 209.894 155.496 209.894 155.496L208.727 155.736Z" fill="url(#paint18_linear_4002_229)"/>
<path d="M241.352 142.728C242.641 142.527 243.735 143.274 244.216 143.61C247.381 145.786 254.459 155.186 250.02 161.137C248.109 163.696 244.578 164.943 241.352 164.548C237.192 164.038 233.655 160.817 232.535 156.393L233.637 154.846C239.006 157.605 240.503 158.006 240.69 157.712C240.943 157.312 238.764 155.658 236.888 152.039C236.488 151.268 236.313 150.947 236.312 150.6C236.306 148.368 237.392 146.453 238.392 145.159C239.391 143.864 240.12 142.92 241.352 142.728Z" fill="url(#paint19_linear_4002_229)"/>
<path d="M211.819 140.744C210.96 139.801 209.283 140.037 208.953 140.084C202.464 140.998 196.999 154.956 200.137 157.935C202.327 160.014 209.578 157.579 209.835 155.291C209.858 155.084 209.835 154.788 209.614 154.409C205.619 154.64 204.668 154.198 204.546 153.748C204.309 152.876 207.209 152.101 209.614 149.12C211.799 146.417 213.24 142.306 211.819 140.744Z" fill="url(#paint20_linear_4002_229)"/>
<path d="M147.818 44.6473C148.346 57.9501 137.941 69.0483 124.457 69.4404C110.835 69.8362 99.2521 59.1776 98.7189 45.629C98.1857 32.0805 108.897 20.976 122.528 20.8268C136.022 20.6785 147.291 31.3435 147.818 44.6473Z" fill="url(#paint21_linear_4002_229)"/>
<path d="M147.311 44.657C147.832 57.6842 137.641 68.5476 124.436 68.9288C111.103 69.3137 99.7707 58.8789 99.2439 45.6188C98.717 32.3587 109.206 21.4871 122.548 21.3379C135.759 21.1905 146.794 31.6308 147.311 44.657Z" fill="url(#paint22_linear_4002_229)"/>
<path opacity="0.5" d="M144.859 44.7062C145.322 56.3904 136.177 66.1282 124.338 66.4594C112.395 66.7934 102.252 57.4413 101.782 45.5679C101.311 33.6945 110.699 23.9522 122.646 23.8075C134.492 23.6646 144.395 33.0258 144.859 44.7062Z" fill="white"/>
<g style="mix-blend-mode:soft-light" opacity="0.5">
<path d="M126.569 61.8131C125.164 59.198 125.446 57.8914 124.04 48.0052C121.947 33.2947 120.569 30.8343 119.45 29.2939C118.308 27.7215 116.283 25.5141 112.572 23.6206C104.364 27.5077 98.8599 35.9326 99.2439 45.6194C99.7708 58.8795 111.103 69.3144 124.437 68.9295C126.933 68.8608 129.403 68.4031 131.759 67.5728C129.67 66.0742 127.847 64.1916 126.569 61.8131Z" fill="white"/>
</g>
<path d="M122.334 30.6117L116.745 32.6244C118.458 34.5671 119.55 36.9101 120.096 39.4324L124.889 37.7035C125.827 37.3623 126.593 36.6637 127.018 35.7602C127.443 34.8566 127.493 33.8216 127.158 32.881C126.817 31.9423 126.118 31.1768 125.214 30.7516C124.31 30.3264 123.275 30.2761 122.334 30.6117Z" fill="white"/>
<g style="mix-blend-mode:multiply" opacity="0.49">
<path d="M122.827 35.3008C122.229 36.1825 121.117 36.3336 120.321 36.2035C118.501 35.7758 116.16 35.2872 114.924 36.481C113.453 37.9241 111.796 38.854 109.725 38.8613C109.75 38.9523 109.777 39.0433 109.809 39.1279C110.149 40.0672 110.847 40.8337 111.751 41.2599C112.655 41.6861 113.69 41.7374 114.631 41.4027L124.886 37.7103C125.825 37.3691 126.59 36.6704 127.015 35.7669C127.44 34.8634 127.491 33.8283 127.155 32.8878C127.029 32.5348 126.849 32.2029 126.624 31.9032C125.102 32.7117 123.799 33.8776 122.827 35.3008Z" fill="#D8DEE8"/>
</g>
<path d="M116.745 32.6239L112.079 34.2999C111.14 34.6402 110.373 35.3385 109.947 36.242C109.521 37.1456 109.47 38.1811 109.804 39.1224C110.145 40.0617 110.843 40.8282 111.746 41.2544C112.65 41.6806 113.686 41.732 114.627 41.3972L120.086 39.4309C119.55 36.9095 118.458 34.5665 116.745 32.6239Z" fill="url(#paint23_linear_4002_229)"/>
<path style="mix-blend-mode:multiply" opacity="0.3" d="M118.897 35.9012C117.407 35.6374 115.851 35.5819 114.921 36.4808C113.449 37.924 111.792 38.8539 109.721 38.8612C109.733 38.9021 109.745 38.9431 109.758 38.984C109.771 39.0249 109.788 39.0805 109.805 39.1278C110.145 40.0671 110.844 40.8335 111.747 41.2597C112.651 41.686 113.686 41.7373 114.628 41.4025L120.087 39.4362C119.829 38.2158 119.429 37.0295 118.897 35.9012Z" fill="url(#paint24_linear_4002_229)"/>
<path d="M114.685 55.1032L119.998 57.7592C120.223 55.1787 121.164 52.7711 122.613 50.6365L118.057 48.3617C117.163 47.9169 116.129 47.8439 115.182 48.1586C114.234 48.4733 113.449 49.1502 112.999 50.0414C112.554 50.9366 112.481 51.9717 112.797 52.9203C113.113 53.8689 113.792 54.6538 114.685 55.1032Z" fill="white"/>
<g style="mix-blend-mode:multiply" opacity="0.49">
<path d="M117.739 51.5098C118.79 51.3342 119.666 52.0348 120.122 52.7009C121.068 54.3123 122.329 56.3405 124.046 56.4151C126.106 56.4843 127.922 57.0411 129.356 58.5361C129.404 58.456 129.447 58.3751 129.492 58.2904C129.936 57.3956 130.008 56.3614 129.692 55.4136C129.376 54.4659 128.698 53.6817 127.806 53.2323L118.057 48.3579C117.53 48.0939 116.948 47.9575 116.358 47.9595C115.768 47.9616 115.187 48.102 114.661 48.3696C114.135 48.6372 113.68 49.0244 113.331 49.5001C112.982 49.9758 112.75 50.5267 112.653 51.1085C114.291 51.6525 116.036 51.7902 117.739 51.5098Z" fill="#D8DEE8"/>
</g>
<path d="M119.998 57.7591L124.434 59.9766C125.329 60.4206 126.363 60.4926 127.311 60.1767C128.258 59.8608 129.043 59.1827 129.492 58.2905C129.936 57.3957 130.008 56.3615 129.692 55.4137C129.376 54.466 128.698 53.6818 127.806 53.2324L122.613 50.6364C121.164 52.771 120.223 55.1786 119.998 57.7591Z" fill="url(#paint25_linear_4002_229)"/>
<path style="mix-blend-mode:multiply" opacity="0.3" d="M120.883 53.9366C121.72 55.1968 122.753 56.3624 124.046 56.4152C126.106 56.4844 127.922 57.0412 129.356 58.5362C129.378 58.4989 129.4 58.4616 129.421 58.4243C129.442 58.387 129.469 58.3333 129.492 58.2905C129.936 57.3957 130.008 56.3615 129.692 55.4137C129.376 54.466 128.698 53.6818 127.806 53.2324L122.613 50.6364C121.91 51.6657 121.33 52.7732 120.883 53.9366Z" fill="url(#paint26_linear_4002_229)"/>
<path d="M136.367 42.2615L130.499 41.3352C131.065 43.8621 130.895 46.4425 130.159 48.9148L135.191 49.71C136.178 49.8626 137.186 49.6184 137.993 49.0308C138.801 48.4432 139.344 47.5598 139.503 46.5736C139.656 45.5864 139.412 44.5789 138.824 43.771C138.237 42.9631 137.353 42.4204 136.367 42.2615Z" fill="white"/>
<g style="mix-blend-mode:multiply" opacity="0.49">
<path d="M134.547 46.6103C133.598 47.0953 132.551 46.6913 131.916 46.1944C130.527 44.9442 128.71 43.3883 127.053 43.8396C125.068 44.3956 123.168 44.4138 121.349 43.4229C121.328 43.5139 121.309 43.6048 121.295 43.6958C121.142 44.683 121.385 45.6907 121.973 46.4987C122.56 47.3066 123.444 47.8492 124.43 48.0079L135.196 49.7085C136.183 49.8611 137.191 49.6169 137.999 49.0293C138.807 48.4417 139.349 47.5583 139.508 46.5721C139.567 46.2018 139.569 45.8248 139.516 45.4538C137.79 45.4305 136.085 45.8274 134.547 46.6103Z" fill="#D8DEE8"/>
</g>
<path d="M130.502 41.3352L125.604 40.5618C124.617 40.4087 123.609 40.6525 122.801 41.2401C121.993 41.8276 121.45 42.711 121.292 43.6973C121.139 44.6845 121.383 45.6922 121.97 46.5002C122.558 47.3081 123.441 47.8507 124.427 48.0094L130.16 48.9193C130.898 46.4425 131.068 43.862 130.502 41.3352Z" fill="url(#paint27_linear_4002_229)"/>
<path style="mix-blend-mode:multiply" opacity="0.3" d="M130.817 45.2463C129.639 44.2973 128.301 43.4993 127.053 43.8396C125.069 44.3956 123.169 44.4138 121.35 43.4229C121.341 43.4647 121.331 43.5066 121.323 43.5484C121.315 43.5903 121.303 43.6476 121.296 43.6977C121.142 44.6849 121.386 45.6925 121.974 46.5005C122.561 47.3085 123.445 47.851 124.431 48.0097L130.163 48.9196C130.524 47.7248 130.743 46.492 130.817 45.2463Z" fill="url(#paint28_linear_4002_229)"/>
<path d="M189.437 149.492C189.716 146.232 188.412 143.459 186.525 143.297C184.638 143.136 182.882 145.647 182.603 148.907C182.324 152.167 183.628 154.94 185.515 155.101C187.402 155.263 189.158 152.751 189.437 149.492Z" fill="url(#paint29_linear_4002_229)"/>
<path d="M100.689 258H120.905C122.308 252.974 123.432 247.874 124.272 242.724C125.809 233.363 126.505 223.884 126.354 214.399C119.706 213.366 105.875 212.034 100.684 219.412C99.3859 221.259 98.92 223.234 99.5115 236.344C100.001 247.252 100.658 253.283 100.689 258Z" fill="url(#paint30_linear_4002_229)"/>
<path d="M181.791 156.978C181.791 156.978 181.358 154.085 183.027 153.112C184.697 152.14 186.809 150.578 187.433 150.325C188.057 150.072 187.466 148.787 185.855 149.656L184.246 150.525C184.069 150.429 183.921 150.288 183.816 150.116C183.441 149.506 183.566 148.478 184.089 147.483C185.773 143.416 186.631 141.976 187.1 141.516C187.17 141.447 187.446 141.191 187.421 140.977C187.382 140.634 186.596 140.608 186.302 140.628C184.538 140.746 181.909 143.779 181.214 147.005C180.96 148.188 180.463 151.12 179.95 151.737C179.131 152.711 179.899 155.55 178.749 155.263L181.791 156.978Z" fill="url(#paint31_linear_4002_229)"/>
<path d="M83.1094 258C87.2185 251.085 92.9219 238.724 99.6979 214.864L74.5053 216.313C69.2952 228.772 65.7101 239.235 63.2971 246.945C62.0796 250.835 60.9586 254.665 60.0068 258H83.1094Z" fill="url(#paint32_linear_4002_229)"/>
<path d="M183.054 154.492C181.924 153.3 180.795 152.109 179.665 150.918C179.179 151.332 172.113 157.141 163.152 154.429C156.985 152.562 153.804 147.094 151.766 143.601C145.642 133.116 150.432 126.217 143.503 118.852C141.578 116.808 137.679 114.199 134.95 114.658C128.441 115.75 123.135 134.592 128.008 150.184C128.992 153.331 134.408 170.657 149.792 173.804C162.216 176.347 176.277 168.647 183.054 154.492Z" fill="white"/>
<path d="M111.929 119.158C114.806 116.922 120.152 114.518 123.276 108.13C124.216 106.207 127.552 99.3949 123.984 93.6625C121.87 90.2585 117.615 87.7071 113.641 88.1412C110.241 88.5115 109.52 90.7954 103.439 94.9937C101.073 96.6315 97.2667 99.2548 93.1721 100.544C86.1567 102.757 82.3105 99.7807 75.4826 99.4977C67.0941 99.1501 56.986 102.983 51.7276 109.365C42.3947 120.691 53.3755 133.932 43.0744 147.256C39.6986 151.624 38.3192 150.46 30.4958 158.799C22.6724 167.138 18.7453 171.324 18.9045 176.865C19.1247 184.555 26.7042 192.532 34.3857 193.688C41.8897 194.818 47.1945 189.292 50.8141 192.218C53.39 194.299 51.5183 197.761 54.0524 202.328C57.3181 208.218 64.581 209.958 65.7538 210.238C76.64 212.846 92.618 201.187 100.246 186.407C114.001 159.755 96.284 131.317 111.929 119.158Z" fill="url(#paint33_linear_4002_229)"/>
<path style="mix-blend-mode:multiply" opacity="0.3" d="M100.689 258.001H108.479C110.222 255.307 112.325 253.245 114.089 249.25C120.095 235.651 110.108 226.957 113.99 214.455C114.071 214.197 114.166 213.929 114.263 213.663C108.878 213.973 103.506 215.4 100.684 219.412C99.3859 221.259 98.92 223.234 99.5115 236.344C100.001 247.252 100.658 253.284 100.689 258.001Z" fill="url(#paint34_linear_4002_229)"/>
<path style="mix-blend-mode:multiply" opacity="0.15" d="M134.809 133.121C145.516 143.175 142.748 160.463 149.731 161.95C151.865 162.405 151.888 160.741 157.175 159.51C164.909 157.708 168.23 160.481 173.682 159.076C175.939 158.494 178.931 157.094 182.071 153.455C182.397 153.801 182.725 154.146 183.053 154.492C176.276 168.646 162.216 176.347 149.794 173.808C134.41 170.663 128.993 153.335 128.01 150.188C125.723 142.872 125.678 134.842 126.946 128.264C129.532 129.265 132.304 130.769 134.809 133.121Z" fill="url(#paint35_linear_4002_229)"/>
<path d="M144.317 120.082C143.707 118.929 141.729 115.708 132.425 112.663C127.761 111.137 119.127 108.466 107.6 109.896C91.7672 111.859 85.3715 117.281 79.4834 124.748C81.6973 121.941 87.8546 132.806 90.9683 144.402C91.9374 148.012 94.6625 160.3 88.3396 171.049C84.7 177.244 78.8156 181.624 74.3488 184.952C67.6492 189.942 64.3517 190.515 61.8412 195.285C59.106 200.48 61.1715 203.303 58.0324 206.75C54.6657 210.452 51.2672 208.307 45.785 211.874C40.169 215.527 41.7532 219.062 36.574 223.19C29.0481 229.183 20.0037 226.253 19.3203 229.181C18.7325 231.701 24.9945 235.722 30.4467 237.603C41.2436 241.327 51.2681 237.487 54.2535 236.294C62.5182 232.991 61.3699 230.298 67.6719 227.78C78.2269 223.564 84.6526 229.811 107.645 232.367C120.095 233.751 126.399 234.362 130.217 230.437C133.704 226.851 132.406 222.479 132.073 204.088C131.982 197.948 131.8 185.091 132.417 177.828C132.781 173.535 134.874 166.649 139.049 152.875C139.295 152.063 141.556 144.622 143.725 134.61C145.675 125.596 145.745 122.783 144.317 120.082Z" fill="white"/>
<path d="M47.179 184.89C47.179 184.89 44.6403 185.299 43.8423 194.617C43.0443 203.936 47.482 193.535 47.4528 191.414C47.4237 189.293 48.936 186.293 48.936 186.293L47.179 184.89Z" fill="url(#paint36_linear_4002_229)"/>
<g style="mix-blend-mode:multiply" opacity="0.15">
<path style="mix-blend-mode:multiply" opacity="0.15" d="M36.5713 223.198C41.7505 219.072 40.1663 215.534 45.7823 211.881C51.2645 208.314 54.6584 210.46 58.0296 206.757C61.1688 203.31 59.1033 200.486 61.8385 195.293C64.3489 190.523 67.6464 189.95 74.3461 184.96C78.8128 181.631 84.6945 177.251 88.3378 171.056C94.6598 160.307 91.9346 148.019 90.9656 144.41C87.8501 132.81 83.8965 129.538 81.0776 127.339C81.3915 127.054 81.1977 126.435 81.5926 126.095C91.8127 136.013 101.597 140.788 109.436 143.244C119.671 146.45 129.082 146.483 129.808 150.332C130.474 153.865 122.762 155.005 118.948 163.009C114.732 171.857 120.927 177.236 116.591 184.702C115.125 187.226 110.254 189.94 100.509 195.364C90.265 201.067 88.8209 200.93 85.3132 204.365C80.4516 209.128 80.8811 212.448 76.5672 214.261C71.9267 216.209 69.3343 213.253 64.2361 213.892C55.7194 214.959 53.1061 224.447 47.1298 229.253C42.6067 232.884 34.6368 235.012 19.6506 230.709C19.3421 230.163 19.2148 229.65 19.323 229.186C20.0009 226.258 29.0454 229.187 36.5713 223.198Z" fill="url(#paint37_linear_4002_229)"/>
</g>
<path d="M93.1111 116.225C85.1203 114.153 74.8911 128.794 70.1815 135.538C61.6565 147.739 55.8759 160.548 48.3337 178.727C46.9642 182.029 45.8769 184.766 45.1572 186.591L49.3427 188.826C57.8841 180.118 64.4145 173.122 68.6 168.572C79.367 156.869 84.3842 150.737 92.7217 149.986C96.7253 149.622 98.2867 150.79 100.283 149.382C107.407 144.354 102.797 118.74 93.1111 116.225Z" fill="white"/>
<path d="M128.972 146.166C128.972 146.166 109.836 116.19 97.8527 112.063C101.026 111.036 104.289 110.31 107.599 109.895C117.505 108.667 125.265 110.466 130.214 111.964C131.052 115.77 134.241 131.842 128.972 146.166Z" fill="url(#paint38_linear_4002_229)"/>
<path d="M115.024 98.2857C115.024 98.2857 113.353 106.129 110.271 107.696C107.189 109.263 102.255 111.228 101.679 111.828C101.103 112.428 119.58 116.03 129.223 112.157C126.231 111.261 125.423 110.956 125.423 110.956C124.617 110.651 123.112 110.085 121.641 109.072C120.64 108.383 119.044 107.07 117.679 104.723L118.088 100.336L115.024 98.2857Z" fill="url(#paint39_linear_4002_229)"/>
<path d="M113.9 100.403C113.9 100.403 115.017 103.456 118.206 103.231C121.061 103.029 121.431 95.9105 119.599 94.5612C118.988 94.1062 117.7 93.8633 116.711 94.1471C116.014 94.3455 113.876 95.8532 114.151 98.3072C113.552 97.9305 112.928 97.9378 112.695 98.2162C112.395 98.5738 112.786 99.2909 112.877 99.4537C113.111 99.8688 113.468 100.201 113.9 100.403Z" fill="url(#paint40_linear_4002_229)"/>
<path d="M157.362 166.364C155.047 166.357 152.741 166.099 150.482 165.596C138.279 162.914 130.229 148.436 125.624 136.762C120.656 124.164 118.518 112.036 118.497 111.915C118.486 111.828 118.509 111.741 118.561 111.671C118.613 111.601 118.689 111.554 118.775 111.539C118.861 111.524 118.949 111.542 119.022 111.591C119.094 111.639 119.145 111.713 119.165 111.798C119.185 111.919 121.314 123.991 126.262 136.523C130.805 148.039 138.72 162.317 150.63 164.933C162.54 167.549 171.228 162.826 176.405 158.399C182.028 153.593 184.857 148.105 184.884 148.051C184.925 147.971 184.996 147.91 185.081 147.882C185.167 147.854 185.26 147.861 185.34 147.902C185.42 147.943 185.481 148.014 185.509 148.099C185.536 148.184 185.529 148.277 185.489 148.357C185.46 148.414 182.57 154.022 176.845 158.912C172.601 162.541 166.063 166.364 157.362 166.364Z" fill="url(#paint41_linear_4002_229)"/>
<path d="M120.287 101.136C120.151 101.471 119.988 101.795 119.8 102.104C120.398 105.165 121.041 110.976 118.751 111.527C118.375 111.618 118.024 111.54 117.665 111.289C115.02 109.417 113.976 99.5845 113.966 99.4853C113.962 99.4411 113.948 99.3981 113.927 99.359C113.906 99.3199 113.877 99.2853 113.843 99.2572C113.808 99.2292 113.768 99.2082 113.726 99.1955C113.683 99.1828 113.638 99.1786 113.594 99.1832C113.55 99.1878 113.507 99.2011 113.468 99.2223C113.429 99.2435 113.394 99.2722 113.366 99.3068C113.338 99.3413 113.317 99.3811 113.304 99.4237C113.292 99.4664 113.287 99.5111 113.292 99.5554C113.335 99.9721 114.379 109.794 117.274 111.839C117.614 112.094 118.026 112.234 118.45 112.239C118.605 112.238 118.76 112.22 118.911 112.183C122.502 111.321 120.564 102.338 120.287 101.136Z" fill="url(#paint42_linear_4002_229)"/>
<path d="M83.0994 68.4487C83.6272 81.7515 73.2224 92.8506 59.7375 93.2418C46.1162 93.6376 34.5331 82.979 33.9998 69.4313C33.4666 55.8837 44.1781 44.7783 57.8094 44.6282C71.3034 44.4808 82.5717 55.1458 83.0994 68.4487Z" fill="url(#paint43_linear_4002_229)"/>
<path d="M82.5917 68.459C83.1085 81.4843 72.9194 92.3495 59.7175 92.7308C46.3846 93.1157 35.0517 82.6809 34.5258 69.4208C33.9999 56.1607 44.4865 45.2891 57.8294 45.1399C71.0413 44.9925 82.0749 55.4337 82.5917 68.459Z" fill="url(#paint44_linear_4002_229)"/>
<path opacity="0.5" d="M80.1395 68.5126C80.6035 80.1967 71.458 89.9346 59.6192 90.2658C47.6758 90.5997 37.5339 81.2477 37.0626 69.3743C36.5913 57.5009 45.9797 47.7585 57.9277 47.6138C69.7738 47.4664 79.68 56.8239 80.1395 68.5126Z" fill="white"/>
<g style="mix-blend-mode:soft-light" opacity="0.5">
<path d="M61.8512 85.619C60.4463 83.004 60.7266 81.6982 59.3217 71.8121C57.2289 57.1007 55.8495 54.6403 54.7312 53.1007C53.5892 51.523 51.5638 49.3137 47.8541 47.422C39.644 51.3091 34.1409 59.734 34.5258 69.4227C35.0517 82.6828 46.3846 93.1176 59.7175 92.7327C62.2138 92.6643 64.6842 92.2069 67.0395 91.3769C64.9522 89.8765 63.1278 87.993 61.8512 85.619Z" fill="white"/>
</g>
<path d="M69.4371 82.2186C69.5445 82.024 69.5741 81.7959 69.5201 81.5803C69.4661 81.3647 69.3324 81.1776 69.1459 81.0566L62.8812 77.2405C59.6055 75.2478 58.2552 71.508 59.7939 68.9212C61.7438 65.6455 60.1924 61.2379 56.4363 59.0796L50.7357 55.8039C50.4036 55.6128 49.955 55.7357 49.7348 56.0769C49.5147 56.4181 49.5974 56.853 49.9296 57.0459L55.6429 60.3516C58.7147 62.1287 60.0295 65.6236 58.5109 68.1559C56.5091 71.4889 58.056 76.2214 62.0596 78.6817L68.3379 82.537C68.4299 82.5929 68.5324 82.629 68.6391 82.6431C68.7457 82.6573 68.8541 82.6491 68.9574 82.6192C69.0608 82.5892 69.1567 82.5382 69.2393 82.4692C69.3219 82.4002 69.3892 82.3149 69.4371 82.2186Z" fill="white"/>
<path d="M75.5208 70.9464C75.6196 70.7622 75.6432 70.5468 75.5865 70.3456C75.5298 70.1443 75.3973 69.9729 75.2169 69.8673L69.0814 66.3432C65.1624 64.0921 60.4646 64.8946 58.5074 68.1576C56.9605 70.7317 53.1116 71.2895 49.9897 69.3887L44.1872 65.8546C43.8506 65.6499 43.3838 65.7791 43.1445 66.1439C42.9052 66.5088 42.9834 66.9756 43.3219 67.1831L49.1371 70.7526C52.9733 73.1066 57.8022 72.274 59.794 68.921C61.3081 66.3732 65.1006 65.8273 68.3162 67.6881L74.4681 71.2476C74.5564 71.2991 74.6543 71.3322 74.7558 71.3448C74.8573 71.3575 74.9603 71.3496 75.0586 71.3214C75.157 71.2933 75.2486 71.2456 75.328 71.1811C75.4075 71.1167 75.473 71.0369 75.5208 70.9464Z" fill="white"/>
<path d="M47.1962 65.64L51.0606 59.6228C51.2854 59.2725 51.1953 58.8303 50.8595 58.6356C50.5238 58.4408 50.0706 58.5655 49.845 58.914L45.9679 64.8985C45.7322 65.2624 45.8159 65.7237 46.1553 65.9294C46.4947 66.135 46.9597 66.0058 47.1962 65.64Z" fill="white"/>
<path d="M50.209 67.4603L54.0415 61.3639C54.0955 61.2849 54.1329 61.1958 54.1514 61.1019C54.1699 61.0081 54.1692 60.9114 54.1493 60.8179C54.1294 60.7243 54.0907 60.6357 54.0356 60.5575C53.9805 60.4794 53.91 60.4132 53.8286 60.363C53.6547 60.2703 53.452 60.2479 53.2621 60.3002C53.0722 60.3525 52.9095 60.4756 52.8076 60.6442L48.9624 66.7087C48.7285 67.0727 48.8177 67.5449 49.1616 67.7542C49.5056 67.9635 49.976 67.8315 50.209 67.4603Z" fill="white"/>
<path d="M53.269 69.3098L57.0688 63.1288C57.1222 63.0479 57.1589 62.957 57.1765 62.8616C57.1941 62.7663 57.1923 62.6683 57.1712 62.5736C57.1502 62.479 57.1103 62.3895 57.0539 62.3106C56.9975 62.2316 56.9258 62.1649 56.8431 62.1143C56.6683 62.0203 56.4639 61.9974 56.2727 62.0505C56.0815 62.1035 55.9181 62.2284 55.8167 62.3991L52.0033 68.5446C51.7722 68.9185 51.8668 69.3935 52.2162 69.6055C52.5656 69.8175 53.0388 69.6847 53.269 69.3098Z" fill="white"/>
<path d="M62.5446 74.9112L66.2388 68.4782C66.3428 68.3025 66.3733 68.0929 66.3235 67.8949C66.2738 67.6968 66.1478 67.5265 65.9731 67.4209C65.8854 67.3716 65.7888 67.3401 65.6888 67.3282C65.5889 67.3163 65.4876 67.3242 65.3908 67.3515C65.2939 67.3788 65.2034 67.425 65.1244 67.4873C65.0454 67.5496 64.9794 67.6269 64.9303 67.7148L61.2206 74.1114C61.1117 74.2928 61.0772 74.5093 61.1244 74.7156C61.1715 74.9218 61.2967 75.1019 61.4736 75.2179C61.5636 75.2698 61.6632 75.303 61.7663 75.3157C61.8695 75.3283 61.9741 75.3201 62.0741 75.2915C62.174 75.2629 62.2671 75.2145 62.3479 75.1491C62.4288 75.0838 62.4956 75.0029 62.5446 74.9112Z" fill="white"/>
<path d="M65.7948 76.874L69.4498 70.3518C69.5528 70.1719 69.5812 69.9589 69.529 69.7584C69.4767 69.5579 69.3481 69.3858 69.1705 69.279C69.0822 69.229 68.9849 69.197 68.8842 69.1849C68.7835 69.1728 68.6814 69.1808 68.5838 69.2085C68.4862 69.2362 68.395 69.2829 68.3157 69.3461C68.2363 69.4093 68.1702 69.4876 68.1214 69.5765L64.4508 76.0651C64.3418 76.2503 64.3087 76.4706 64.3584 76.6797C64.4081 76.8888 64.5368 77.0706 64.7174 77.187C64.8081 77.2397 64.9085 77.2734 65.0127 77.2861C65.1168 77.2989 65.2224 77.2904 65.3231 77.2611C65.4238 77.2318 65.5175 77.1824 65.5986 77.1159C65.6797 77.0494 65.7464 76.9671 65.7948 76.874Z" fill="white"/>
<path d="M69.0969 78.8683L72.711 72.2542C72.8136 72.0696 72.8402 71.8523 72.7851 71.6484C72.7301 71.4446 72.5977 71.2702 72.4162 71.1623C72.3277 71.1112 72.2297 71.0784 72.1283 71.0659C72.0268 71.0534 71.9239 71.0615 71.8256 71.0896C71.7273 71.1177 71.6356 71.1652 71.5561 71.2295C71.4765 71.2937 71.4107 71.3733 71.3625 71.4635L67.7311 78.0394C67.6237 78.2294 67.5931 78.4532 67.6456 78.6651C67.698 78.8769 67.8296 79.0606 68.0132 79.1786C68.1039 79.2325 68.2047 79.2673 68.3094 79.2809C68.4141 79.2945 68.5205 79.2865 68.622 79.2574C68.7235 79.2283 68.818 79.1788 68.8996 79.1119C68.9813 79.045 69.0484 78.9621 69.0969 78.8683Z" fill="white"/>
<path d="M212.537 68.4487C213.064 81.7515 202.66 92.8506 189.176 93.2418C175.554 93.6376 163.971 82.979 163.437 69.4313C162.903 55.8837 173.616 44.7783 187.247 44.6282C200.741 44.4808 212.009 55.1458 212.537 68.4487Z" fill="url(#paint45_linear_4002_229)"/>
<path d="M212.03 68.459C212.547 81.4843 202.357 92.3495 189.155 92.7308C175.822 93.1157 164.489 82.6809 163.963 69.4208C163.437 56.1607 173.925 45.2891 187.267 45.1399C200.478 44.9925 211.513 55.4337 212.03 68.459Z" fill="url(#paint46_linear_4002_229)"/>
<path opacity="0.5" d="M209.578 68.5126C210.041 80.1967 200.895 89.9346 189.057 90.2658C177.113 90.5997 166.971 81.2477 166.5 69.3743C166.028 57.5009 175.417 47.7585 187.365 47.6138C199.211 47.4664 209.113 56.8239 209.578 68.5126Z" fill="white"/>
<g style="mix-blend-mode:soft-light" opacity="0.5">
<path d="M191.288 85.6188C189.884 83.0037 190.164 81.698 188.759 71.8118C186.666 57.1004 185.288 54.6401 184.169 53.1005C183.026 51.5273 181.002 49.3198 177.291 47.4263C169.083 51.3134 163.579 59.7383 163.963 69.4252C164.489 82.6852 175.822 93.1201 189.155 92.7352C191.651 92.6669 194.122 92.2095 196.478 91.3794C194.389 89.8763 192.566 87.9927 191.288 85.6188Z" fill="white"/>
</g>
<path d="M199.593 62.3993L194.574 62.3557V57.1264C194.578 56.8664 194.479 56.6154 194.3 56.4269C194.121 56.2385 193.875 56.1277 193.615 56.1182L182.638 55.9481C182.508 55.9472 182.379 55.9724 182.258 56.022C182.138 56.0716 182.029 56.1448 181.937 56.2371C181.846 56.3295 181.773 56.4392 181.724 56.5599C181.676 56.6806 181.652 56.8098 181.653 56.9399V62.2438L176.431 62.1992C176.3 62.1984 176.169 62.2238 176.048 62.2739C175.926 62.3239 175.815 62.3976 175.722 62.4907C175.629 62.5838 175.555 62.6944 175.505 62.8162C175.455 62.9379 175.43 63.0684 175.431 63.2001V74.6513C175.43 74.7833 175.455 74.9142 175.505 75.0365C175.554 75.1588 175.628 75.27 175.721 75.3637C175.814 75.4574 175.925 75.5318 176.047 75.5826C176.169 75.6333 176.299 75.6594 176.431 75.6594L181.653 75.6285V80.9333C181.652 81.0635 181.676 81.1928 181.725 81.3135C181.773 81.4343 181.846 81.5442 181.937 81.6367C182.029 81.7293 182.138 81.8027 182.258 81.8527C182.379 81.9026 182.508 81.9282 182.638 81.9278L193.615 81.7877C193.874 81.7791 194.119 81.6696 194.298 81.4826C194.478 81.2955 194.577 81.0458 194.574 80.7868V75.5575L199.593 75.5275C199.85 75.5203 200.093 75.4121 200.271 75.2264C200.448 75.0407 200.545 74.7925 200.54 74.5357V63.3939C200.545 63.1368 200.448 62.8883 200.271 62.7022C200.094 62.516 199.85 62.4072 199.593 62.3993Z" fill="white"/>
<path d="M63.5318 248.128L63.4754 248.123C60.3763 247.818 56.7366 246.509 54.8468 243.899C53.8459 242.523 53.3518 240.923 53.5146 239.224C53.6111 238.217 53.794 237.176 54.1998 236.243C54.6247 235.267 55.2753 234.387 56.0196 233.627C56.4366 233.203 56.8793 232.806 57.3454 232.437C58.6711 231.378 61.4727 230.136 60.8876 227.988C60.5337 226.691 59.218 225.603 58.4363 224.553C56.7658 222.309 55.8886 219.473 56.5938 216.684C57.1506 214.493 59.0887 212.688 61.0205 211.624C68.883 207.291 66.9422 195.787 75.6454 198.931C84.3487 202.076 83.9502 211.479 78.4343 218.91C76.5881 221.399 74.4826 223.885 72.9612 226.591C71.7638 228.723 72.1942 230.527 73.7028 232.367C74.5144 233.358 75.8502 234.237 76.4962 235.322C77.9393 237.746 78.7946 240.838 77.5945 243.525C76.4034 246.19 73.4926 247.614 70.7119 248.016C68.3061 248.364 65.9404 248.363 63.5318 248.128Z" fill="url(#paint47_linear_4002_229)"/>
<g style="mix-blend-mode:soft-light" opacity="0.8">
<g style="mix-blend-mode:soft-light" opacity="0.8">
<path d="M63.1087 245.462C63.0873 245.456 63.067 245.447 63.0486 245.435C63.0075 245.406 62.9794 245.362 62.9706 245.313C62.9617 245.263 62.9728 245.212 63.0013 245.171C63.0659 245.08 69.4617 235.732 68.3953 226.62C67.3097 217.358 73.3433 209.331 73.4052 209.249C73.4357 209.209 73.4809 209.183 73.5307 209.176C73.5805 209.169 73.631 209.183 73.6709 209.213C73.7108 209.244 73.737 209.289 73.7437 209.339C73.7503 209.388 73.7369 209.439 73.7064 209.479C73.6454 209.557 67.701 217.469 68.7711 226.575C69.8566 235.833 63.378 245.292 63.3116 245.387C63.2895 245.418 63.2582 245.443 63.2219 245.456C63.1857 245.47 63.1462 245.472 63.1087 245.462Z" fill="white"/>
</g>
</g>
<path d="M71.2915 232.042C70.5258 230.839 69.6644 229.699 68.7156 228.634C65.6019 225.123 63.4163 221.396 62.0177 216.896C60.9158 213.354 60.9395 209.304 60.2562 205.647C59.7603 202.996 58.8631 200.431 57.9304 197.908C55.945 192.54 52.9651 186.302 47.9633 183.077C45.6467 181.583 42.2127 181.439 39.6586 182.506C36.3492 183.892 33.4239 186.593 33.2119 190.349C32.9198 195.514 37.4311 201.303 33.7005 206.053C27.9872 213.325 30.6578 221.405 38.5121 225.359C41.0707 226.648 44.0707 227.842 46.209 229.818C48.3473 231.793 47.0752 235.186 46.8368 237.704C46.613 240.063 46.3673 242.805 47.8705 244.822C50.4073 248.226 56.5337 249.709 60.5182 250.045C64.3708 250.371 68.7492 249.945 71.448 246.86C75.5117 242.214 74.1841 236.621 71.2915 232.042Z" fill="url(#paint48_linear_4002_229)"/>
<g style="mix-blend-mode:soft-light" opacity="0.8">
<g style="mix-blend-mode:soft-light" opacity="0.8">
<path d="M65.0214 246.848C64.9822 246.849 64.9436 246.838 64.9111 246.816C64.8785 246.794 64.8534 246.763 64.8394 246.727C64.7147 246.395 52.2553 213.515 45.1462 200.266C45.1343 200.244 45.1268 200.22 45.1241 200.195C45.1215 200.17 45.1237 200.145 45.1308 200.121C45.145 200.073 45.1779 200.032 45.2222 200.008C45.2665 199.984 45.3185 199.978 45.3669 199.992C45.4153 200.007 45.456 200.039 45.4802 200.084C52.6011 213.355 65.0687 246.258 65.1933 246.588C65.2045 246.617 65.2084 246.648 65.2049 246.678C65.2013 246.709 65.1904 246.738 65.173 246.763C65.1555 246.789 65.1322 246.809 65.105 246.823C65.0778 246.838 65.0475 246.845 65.0168 246.845L65.0214 246.848Z" fill="white"/>
</g>
</g>
<path d="M59.6365 251.495C60.4655 251.378 61.2917 251.242 62.1151 251.11C64.4154 250.741 67.2652 250.024 67.9886 247.457C68.1942 246.729 67.8394 245.421 67.7538 244.661C67.6753 243.886 67.5494 243.115 67.3771 242.355C67.1243 241.315 66.7325 240.314 66.2124 239.379C65.3162 237.741 64.2925 236.515 62.3854 236.145C60.9959 235.872 59.4555 235.812 58.0424 235.858C50.3391 236.111 49.3928 233.333 45.1626 227.396C40.9325 221.459 13.0884 231.058 29.8825 241.602C29.8825 241.602 32.4084 243.24 41.6267 242.17C43.3128 241.975 45.4483 241.843 46.8742 242.934C49.3955 244.857 46.8605 248.933 49.4055 250.533C50.8905 251.466 53.2763 251.74 54.9814 251.807C56.5392 251.871 58.0924 251.718 59.6365 251.495Z" fill="url(#paint49_linear_4002_229)"/>
<g style="mix-blend-mode:soft-light" opacity="0.8">
<g style="mix-blend-mode:soft-light" opacity="0.8">
<path d="M64.7775 248.321C64.7475 248.321 64.7179 248.314 64.6912 248.3C64.6645 248.287 64.6414 248.267 64.6237 248.243C64.5755 248.176 59.6993 241.547 52.7813 239.983C50.0752 239.37 47.7358 238.001 45.4747 236.676C41.6604 234.442 38.058 232.333 32.736 233.417C32.7116 233.422 32.6865 233.422 32.6621 233.417C32.6376 233.412 32.6144 233.403 32.5937 233.389C32.5518 233.361 32.5226 233.318 32.5126 233.269C32.5026 233.22 32.5125 233.169 32.5403 233.127C32.568 233.085 32.6112 233.056 32.6605 233.046C38.1199 231.933 41.9533 234.178 45.6612 236.349C47.8978 237.659 50.2108 239.014 52.8604 239.613C59.9195 241.21 64.8767 247.953 64.9258 248.021C64.9405 248.041 64.951 248.064 64.9569 248.088C64.9627 248.112 64.9637 248.137 64.9598 248.162C64.9559 248.187 64.9472 248.21 64.9342 248.231C64.9212 248.253 64.9041 248.271 64.8839 248.286C64.8527 248.308 64.8157 248.32 64.7775 248.321Z" fill="white"/>
</g>
</g>
<defs>
<linearGradient id="paint0_linear_4002_229" x1="140.917" y1="149.006" x2="246.034" y2="203.923" gradientUnits="userSpaceOnUse">
<stop stop-color="#007CD6"/>
<stop offset="1" stop-color="#03C2EC"/>
</linearGradient>
<linearGradient id="paint1_linear_4002_229" x1="22.1847" y1="111.3" x2="186.419" y2="219.949" gradientUnits="userSpaceOnUse">
<stop stop-color="#007CD6"/>
<stop offset="1" stop-color="#03C2EC"/>
</linearGradient>
<linearGradient id="paint2_linear_4002_229" x1="18.4086" y1="223.698" x2="253.27" y2="223.698" gradientUnits="userSpaceOnUse">
<stop offset="0.49" stop-color="#EBEFF2"/>
<stop offset="1" stop-color="white"/>
</linearGradient>
<linearGradient id="paint3_linear_4002_229" x1="221.401" y1="220.607" x2="226.441" y2="221.061" gradientUnits="userSpaceOnUse">
<stop stop-color="#444B8C"/>
<stop offset="1" stop-color="#26264F"/>
</linearGradient>
<linearGradient id="paint4_linear_4002_229" x1="224.306" y1="220.823" x2="226.84" y2="216.393" gradientUnits="userSpaceOnUse">
<stop stop-color="#FFC444"/>
<stop offset="1" stop-color="#F36F56"/>
</linearGradient>
<linearGradient id="paint5_linear_4002_229" x1="203.952" y1="219.742" x2="209.205" y2="220.889" gradientUnits="userSpaceOnUse">
<stop stop-color="#444B8C"/>
<stop offset="1" stop-color="#26264F"/>
</linearGradient>
<linearGradient id="paint6_linear_4002_229" x1="207.246" y1="220.423" x2="210.171" y2="216.109" gradientUnits="userSpaceOnUse">
<stop stop-color="#FFC444"/>
<stop offset="1" stop-color="#F36F56"/>
</linearGradient>
<linearGradient id="paint7_linear_4002_229" x1="203.993" y1="210.029" x2="216.717" y2="176.985" gradientUnits="userSpaceOnUse">
<stop stop-color="#444B8C"/>
<stop offset="1" stop-color="#26264F"/>
</linearGradient>
<linearGradient id="paint8_linear_4002_229" x1="206.266" y1="210.905" x2="218.991" y2="177.86" gradientUnits="userSpaceOnUse">
<stop stop-color="#AA80F9"/>
<stop offset="1" stop-color="#6165D7"/>
</linearGradient>
<linearGradient id="paint9_linear_4002_229" x1="212.405" y1="213.155" x2="229.01" y2="181.83" gradientUnits="userSpaceOnUse">
<stop stop-color="#444B8C"/>
<stop offset="1" stop-color="#26264F"/>
</linearGradient>
<linearGradient id="paint10_linear_4002_229" x1="218.695" y1="168.765" x2="232.579" y2="109.592" gradientUnits="userSpaceOnUse">
<stop stop-color="#FFC444"/>
<stop offset="1" stop-color="#F36F56"/>
</linearGradient>
<linearGradient id="paint11_linear_4002_229" x1="207.578" y1="138.033" x2="243.863" y2="167.651" gradientUnits="userSpaceOnUse">
<stop stop-color="#007CD6"/>
<stop offset="1" stop-color="#03C2EC"/>
</linearGradient>
<linearGradient id="paint12_linear_4002_229" x1="226.789" y1="144.445" x2="219.521" y2="131.317" gradientUnits="userSpaceOnUse">
<stop stop-color="#FFC444"/>
<stop offset="1" stop-color="#F36F56"/>
</linearGradient>
<linearGradient id="paint13_linear_4002_229" x1="224.345" y1="139.545" x2="220.041" y2="130.026" gradientUnits="userSpaceOnUse">
<stop stop-color="#311944"/>
<stop offset="1" stop-color="#6B3976"/>
</linearGradient>
<linearGradient id="paint14_linear_4002_229" x1="220.861" y1="133.201" x2="220.896" y2="147.383" gradientUnits="userSpaceOnUse">
<stop stop-color="#FFC444"/>
<stop offset="1" stop-color="#F36F56"/>
</linearGradient>
<linearGradient id="paint15_linear_4002_229" x1="223.201" y1="140.067" x2="218.892" y2="130.539" gradientUnits="userSpaceOnUse">
<stop stop-color="#311944"/>
<stop offset="1" stop-color="#6B3976"/>
</linearGradient>
<linearGradient id="paint16_linear_4002_229" x1="219.35" y1="135.765" x2="219.063" y2="134.001" gradientUnits="userSpaceOnUse">
<stop stop-color="#FFC444"/>
<stop offset="1" stop-color="#F36F56"/>
</linearGradient>
<linearGradient id="paint17_linear_4002_229" x1="233.883" y1="157.297" x2="239.727" y2="182.684" gradientUnits="userSpaceOnUse">
<stop stop-color="#FFC444"/>
<stop offset="1" stop-color="#F36F56"/>
</linearGradient>
<linearGradient id="paint18_linear_4002_229" x1="210.145" y1="155.408" x2="204.323" y2="180.863" gradientUnits="userSpaceOnUse">
<stop stop-color="#FFC444"/>
<stop offset="1" stop-color="#F36F56"/>
</linearGradient>
<linearGradient id="paint19_linear_4002_229" x1="232.611" y1="143.185" x2="258.687" y2="153.954" gradientUnits="userSpaceOnUse">
<stop stop-color="#007CD6"/>
<stop offset="1" stop-color="#03C2EC"/>
</linearGradient>
<linearGradient id="paint20_linear_4002_229" x1="199.279" y1="140.442" x2="218.356" y2="146.871" gradientUnits="userSpaceOnUse">
<stop stop-color="#007CD6"/>
<stop offset="1" stop-color="#03C2EC"/>
</linearGradient>
<linearGradient id="paint21_linear_4002_229" x1="98.8964" y1="21.9124" x2="163.169" y2="53.0164" gradientUnits="userSpaceOnUse">
<stop stop-color="#007CD6"/>
<stop offset="1" stop-color="#03C2EC"/>
</linearGradient>
<linearGradient id="paint22_linear_4002_229" x1="99.2249" y1="21.3364" x2="153.606" y2="38.7433" gradientUnits="userSpaceOnUse">
<stop stop-color="#0068D6"/>
<stop offset="1" stop-color="#24BAFA"/>
</linearGradient>
<linearGradient id="paint23_linear_4002_229" x1="106.62" y1="33.4957" x2="127.074" y2="42.7653" gradientUnits="userSpaceOnUse">
<stop stop-color="#AA80F9"/>
<stop offset="1" stop-color="#6165D7"/>
</linearGradient>
<linearGradient id="paint24_linear_4002_229" x1="110.279" y1="40.4573" x2="119.427" y2="37.164" gradientUnits="userSpaceOnUse">
<stop stop-color="#FF9085"/>
<stop offset="1" stop-color="#FB6FBB"/>
</linearGradient>
<linearGradient id="paint25_linear_4002_229" x1="127.637" y1="64.4949" x2="120.233" y2="43.2928" gradientUnits="userSpaceOnUse">
<stop stop-color="#AA80F9"/>
<stop offset="1" stop-color="#6165D7"/>
</linearGradient>
<linearGradient id="paint26_linear_4002_229" x1="130.152" y1="57.0423" x2="121.456" y2="52.6932" gradientUnits="userSpaceOnUse">
<stop stop-color="#FF9085"/>
<stop offset="1" stop-color="#FB6FBB"/>
</linearGradient>
<linearGradient id="paint27_linear_4002_229" x1="121.22" y1="37.2037" x2="134.687" y2="55.1737" gradientUnits="userSpaceOnUse">
<stop stop-color="#FF9085"/>
<stop offset="1" stop-color="#FB6FBB"/>
</linearGradient>
<linearGradient id="paint28_linear_4002_229" x1="121.076" y1="45.0675" x2="130.68" y2="46.5835" gradientUnits="userSpaceOnUse">
<stop stop-color="#FF9085"/>
<stop offset="1" stop-color="#FB6FBB"/>
</linearGradient>
<linearGradient id="paint29_linear_4002_229" x1="189.447" y1="149.475" x2="182.613" y2="148.891" gradientUnits="userSpaceOnUse">
<stop stop-color="#444B8C"/>
<stop offset="1" stop-color="#26264F"/>
</linearGradient>
<linearGradient id="paint30_linear_4002_229" x1="136.955" y1="278.353" x2="109.631" y2="233.845" gradientUnits="userSpaceOnUse">
<stop stop-color="#444B8C"/>
<stop offset="1" stop-color="#26264F"/>
</linearGradient>
<linearGradient id="paint31_linear_4002_229" x1="184.984" y1="149.59" x2="146.66" y2="138.969" gradientUnits="userSpaceOnUse">
<stop stop-color="#FFC444"/>
<stop offset="1" stop-color="#F36F56"/>
</linearGradient>
<linearGradient id="paint32_linear_4002_229" x1="113.532" y1="276.048" x2="46.8505" y2="201.614" gradientUnits="userSpaceOnUse">
<stop stop-color="#444B8C"/>
<stop offset="1" stop-color="#26264F"/>
</linearGradient>
<linearGradient id="paint33_linear_4002_229" x1="54.737" y1="166.852" x2="79.04" y2="138.257" gradientUnits="userSpaceOnUse">
<stop stop-color="#444B8C"/>
<stop offset="1" stop-color="#26264F"/>
</linearGradient>
<linearGradient id="paint34_linear_4002_229" x1="132.725" y1="280.95" x2="105.4" y2="236.442" gradientUnits="userSpaceOnUse">
<stop stop-color="#444B8C"/>
<stop offset="1" stop-color="#26264F"/>
</linearGradient>
<linearGradient id="paint35_linear_4002_229" x1="179.817" y1="152.657" x2="121.432" y2="147.403" gradientUnits="userSpaceOnUse">
<stop stop-color="#AA80F9"/>
<stop offset="1" stop-color="#6165D7"/>
</linearGradient>
<linearGradient id="paint36_linear_4002_229" x1="42.897" y1="198.144" x2="44.9124" y2="170.512" gradientUnits="userSpaceOnUse">
<stop stop-color="#FFC444"/>
<stop offset="1" stop-color="#F36F56"/>
</linearGradient>
<linearGradient id="paint37_linear_4002_229" x1="91.0562" y1="108.753" x2="63.9861" y2="213.958" gradientUnits="userSpaceOnUse">
<stop stop-color="#AA80F9"/>
<stop offset="1" stop-color="#6165D7"/>
</linearGradient>
<linearGradient id="paint38_linear_4002_229" x1="97.989" y1="110.308" x2="143.916" y2="130.746" gradientUnits="userSpaceOnUse">
<stop stop-color="#007CD6"/>
<stop offset="1" stop-color="#03C2EC"/>
</linearGradient>
<linearGradient id="paint39_linear_4002_229" x1="113.042" y1="110.823" x2="96.5105" y2="81.5081" gradientUnits="userSpaceOnUse">
<stop stop-color="#FFC444"/>
<stop offset="1" stop-color="#F36F56"/>
</linearGradient>
<linearGradient id="paint40_linear_4002_229" x1="119.131" y1="96.6109" x2="95.3412" y2="70.822" gradientUnits="userSpaceOnUse">
<stop stop-color="#FFC444"/>
<stop offset="1" stop-color="#F36F56"/>
</linearGradient>
<linearGradient id="paint41_linear_4002_229" x1="152.321" y1="119.348" x2="141.139" y2="162.808" gradientUnits="userSpaceOnUse">
<stop stop-color="#444B8C"/>
<stop offset="1" stop-color="#26264F"/>
</linearGradient>
<linearGradient id="paint42_linear_4002_229" x1="116.518" y1="98.7046" x2="118.728" y2="112.221" gradientUnits="userSpaceOnUse">
<stop stop-color="#444B8C"/>
<stop offset="1" stop-color="#26264F"/>
</linearGradient>
<linearGradient id="paint43_linear_4002_229" x1="33.9808" y1="44.6266" x2="89.5299" y2="62.4071" gradientUnits="userSpaceOnUse">
<stop stop-color="#0068D6"/>
<stop offset="1" stop-color="#24BAFA"/>
</linearGradient>
<linearGradient id="paint44_linear_4002_229" x1="34.5068" y1="45.1383" x2="88.8869" y2="62.5444" gradientUnits="userSpaceOnUse">
<stop stop-color="#0068D6"/>
<stop offset="1" stop-color="#24BAFA"/>
</linearGradient>
<linearGradient id="paint45_linear_4002_229" x1="163.614" y1="45.7138" x2="227.887" y2="76.8179" gradientUnits="userSpaceOnUse">
<stop stop-color="#007CD6"/>
<stop offset="1" stop-color="#03C2EC"/>
</linearGradient>
<linearGradient id="paint46_linear_4002_229" x1="164.136" y1="46.2026" x2="227.057" y2="76.6528" gradientUnits="userSpaceOnUse">
<stop stop-color="#007CD6"/>
<stop offset="1" stop-color="#03C2EC"/>
</linearGradient>
<linearGradient id="paint47_linear_4002_229" x1="53.5998" y1="199.51" x2="96.9546" y2="211.546" gradientUnits="userSpaceOnUse">
<stop stop-color="#007CD6"/>
<stop offset="1" stop-color="#03C2EC"/>
</linearGradient>
<linearGradient id="paint48_linear_4002_229" x1="30.6396" y1="215.978" x2="74.0067" y2="215.978" gradientUnits="userSpaceOnUse">
<stop stop-color="#FFC444"/>
<stop offset="1" stop-color="#F36F56"/>
</linearGradient>
<linearGradient id="paint49_linear_4002_229" x1="24.7218" y1="226.163" x2="67.8045" y2="260.362" gradientUnits="userSpaceOnUse">
<stop stop-color="#007CD6"/>
<stop offset="1" stop-color="#03C2EC"/>
</linearGradient>
</defs>
</svg>
