<svg width="265" height="263" viewBox="0 0 265 263" fill="none" xmlns="http://www.w3.org/2000/svg">
<g clip-path="url(#clip0_4002_367)">
<path d="M245.316 218.186C231.532 236.903 214.113 245.383 204.564 249.896C149.581 275.877 70.2329 263.583 29.3396 209.952C23.6693 202.514 2.26524 172.679 3.30361 130.301C4.70768 72.9977 46.6953 11.3273 108.706 1.3677C170.359 -8.53883 215.752 38.4622 223.682 47.0532C266.25 93.17 280.093 170.959 245.316 218.186Z" fill="#F4F7FA"/>
<path opacity="0.5" d="M52.9018 45.041L17.9583 44.6202L0 77.1842L17.9583 109.577L52.9018 108.823L69.9032 76.8515L52.9018 45.041Z" fill="url(#paint0_linear_4002_367)"/>
<path style="mix-blend-mode:multiply" opacity="0.47" d="M108.697 80.8835L75.7962 81.1157L58.9009 113.025L75.7962 144.128L108.697 142.791L124.718 111.455L108.697 80.8835Z" fill="url(#paint1_linear_4002_367)"/>
<path opacity="0.5" d="M108.697 10.4582L75.7962 9.43263L58.9009 40.6953L75.7962 72.4451L108.697 72.3655L124.718 41.6422L108.697 10.4582Z" fill="url(#paint2_linear_4002_367)"/>
<path opacity="0.5" d="M130.051 57.5929L96.4442 55.612L78.2026 90.8715L94.3959 127.58L128.036 128.431L145.463 93.7027L130.051 57.5929Z" fill="url(#paint3_linear_4002_367)"/>
<path opacity="0.5" d="M151.331 93.95L134 128.581L206.955 130.425L223.141 96.9736L151.331 93.95Z" fill="url(#paint4_linear_4002_367)"/>
<g style="mix-blend-mode:multiply" opacity="0.47">
<path d="M185.171 21.4699L153.295 18.979L135.978 53.0254L151.301 89.0726L183.207 90.4905L199.771 56.9351L185.171 21.4699Z" fill="url(#paint5_linear_4002_367)"/>
</g>
<g style="mix-blend-mode:multiply" opacity="0.47">
<path d="M243.829 26.7425L192.112 21.9333L206.633 57.3038L190.153 90.7739L241.982 91.6431L256.689 60.0373L243.829 26.7425Z" fill="url(#paint6_linear_4002_367)"/>
</g>
<path d="M234.667 93.2183C234.667 93.2183 236.191 87.2395 238.727 85.6614C241.263 84.0833 244.847 82.3962 245.668 81.7034C246.489 81.0105 247.448 83.0815 245.082 84.6672L242.713 86.2538C242.67 86.5953 242.702 86.9422 242.808 87.2699C243.187 88.393 244.462 89.1655 246.042 89.3077C252.114 90.5796 254.487 90.6422 255.412 90.3711C255.55 90.3303 256.075 90.1588 256.301 90.3938C256.658 90.773 256.017 91.9634 255.741 92.3842C254.098 94.895 248.397 95.9859 244.127 94.023C242.568 93.3065 241.971 92.5368 240.832 92.7302C239.026 93.0363 237.915 95.422 237.26 97.3963L234.667 93.2183Z" fill="url(#paint7_linear_4002_367)"/>
<path d="M239.565 95.1139L234.378 90.5019C233.745 91.1417 224.516 100.152 211.613 97.4209C202.73 95.5405 197.606 88.2423 194.324 83.5829C184.466 69.5903 190.362 59.3236 179.748 49.8161C176.799 47.1755 171.017 43.9785 167.242 44.9538C158.235 47.2769 153.049 74.3758 161.767 95.6902C163.526 99.9923 173.215 123.682 195.193 126.248C212.936 128.321 231.751 115.811 239.565 95.1139Z" fill="white"/>
<path style="mix-blend-mode:multiply" opacity="0.15" d="M169.254 70.8964C185.498 83.7317 183.69 108.35 193.676 109.598C196.725 109.978 196.558 107.64 203.833 105.274C214.474 101.813 219.473 105.309 226.957 102.679C230.057 101.59 234.091 99.2673 238.062 93.7756L239.565 95.112C231.751 115.811 212.936 128.321 195.189 126.249C173.209 123.683 163.521 99.9942 161.762 95.6912C157.672 85.6898 156.646 74.4156 157.633 65.0247C161.382 66.1175 165.455 67.8966 169.254 70.8964Z" fill="url(#paint8_linear_4002_367)"/>
<path d="M95.9108 44.7832C105.347 42.1264 115.045 40.5056 124.833 39.9494C142.211 38.9665 150.901 38.4755 157.058 42.6156C171.279 52.178 160.269 74.2469 166.091 128.956C168.564 152.208 169.68 150.704 164.101 158.98C152.773 175.795 120.951 177.173 106.374 162.594C98.6696 154.89 97.6758 154.455 97.4911 145.663C96.7625 110.962 96.2139 78.1945 95.9108 44.7832Z" fill="url(#paint9_linear_4002_367)"/>
<path d="M170.853 45.3054C161.819 40.6612 153.428 39.8081 148.684 39.6868C144.383 50.3137 138.981 66.3327 136.427 86.3732C134.122 104.462 135.195 116.43 136.434 141.28C137.213 156.979 138.007 179.726 137.769 207.748C142.553 209.283 146.466 209.644 149.089 209.703C158.391 209.911 161.5 206.549 170.997 207.48C175.141 207.886 176.173 208.685 177.567 207.755C181.451 205.163 178.543 195.549 176.593 185.11C173.577 168.967 176.862 172.29 173.916 146.155C171.475 124.484 168.107 112.337 171.238 111.091C172.924 110.42 174.507 47.1859 170.853 45.3054Z" fill="white"/>
<path style="mix-blend-mode:multiply" opacity="0.15" d="M161.751 149.074C161.873 132.771 170.556 130.463 169.681 116.436C168.801 102.308 159.799 101.533 160.112 89.3749C160.491 74.5891 173.953 69.922 173.428 56.4858C173.251 51.9562 171.534 47.9555 169.298 44.5766C162.838 41.5451 155.822 39.8807 148.689 39.6878C144.389 50.3146 138.987 66.3336 136.433 86.3742C134.128 104.462 135.201 116.431 136.439 141.281C137.219 156.98 138.014 179.726 137.774 207.749C142.559 209.284 146.472 209.645 149.095 209.704C158.397 209.912 161.506 206.55 171.003 207.481C175.147 207.887 176.179 208.686 177.572 207.756C180.968 205.49 179.176 197.864 177.368 189.013C174.513 185.325 171.571 181.778 168.436 175.135C166.064 170.116 161.662 160.788 161.751 149.074Z" fill="url(#paint10_linear_4002_367)"/>
<path d="M127.918 89.4166C130.045 97.4996 129.849 103.934 129.624 109.87C128.373 142.578 127.737 159.027 127.19 163.683C124.537 186.296 122.654 184.889 123.299 194.071C123.645 198.988 124.45 203.196 121.761 206.29C118.555 209.979 113.942 207.983 102.592 209.447C92.1571 210.793 91.8862 213.019 80.6053 214.375C76.0236 214.926 63.5111 216.43 62.2036 212.87C61.5044 210.966 64.0928 207.84 66.5845 206.295C70.646 203.778 74.107 205.676 75.4779 203.668C77.0496 201.367 72.8071 198.427 72.6697 192.904C72.5324 187.398 76.6299 185.605 79.1728 178.847C81.5413 172.547 80.5882 167.188 80.2225 163.388C78.592 146.446 86.0454 133.047 87.5176 110.601C89.8085 75.6478 74.8696 60.2932 85.0098 49.0938C90.5048 43.0278 99.5375 42.3881 105.19 42.5246C111.064 54.7589 116.115 64.3849 119.696 70.9959C123.556 78.1339 126.092 82.4777 127.918 89.4166Z" fill="white"/>
<path d="M150.675 80.4077C149.843 77.5368 147.21 74.7843 148.241 71.3978C148.85 69.4074 150.45 68.1098 151.68 67.3383C159.783 65.5156 165.233 57.9322 164.427 49.9706C164.099 46.8291 162.838 43.858 160.806 41.4403C156.849 40.3834 152.782 39.7958 148.688 39.6897C144.387 50.3165 138.985 66.3355 136.431 86.3761C135.343 94.9064 135.01 102.091 135.093 109.897C136.498 105.411 138.469 102.06 140.559 99.5165C144.098 95.2078 152.706 87.3997 150.675 80.4077Z" fill="white"/>
<g style="mix-blend-mode:multiply" opacity="0.64">
<path style="mix-blend-mode:multiply" opacity="0.3" d="M127.918 89.4166C126.092 82.4777 123.56 78.1377 119.691 70.9959C116.111 64.3849 111.055 54.7589 105.185 42.5246C103.815 42.4914 102.248 42.5066 100.574 42.6307C91.6369 54.9788 91.0713 61.8808 93.1462 65.9782C95.1699 69.9704 99.3991 70.7466 99.9524 75.0563C100.816 81.7953 91.0135 84.0994 88.609 93.2126C86.5105 101.169 91.4219 109.114 96.0443 116.592C103.908 129.313 111.108 130.884 110.842 137.695C110.566 144.782 102.702 144.908 99.4986 153.583C94.4773 167.179 110.078 176.956 105.397 188.987C101.769 198.311 90.807 196.519 84.0718 208.506C83.0625 210.319 82.2592 212.24 81.6768 214.232C91.8795 212.867 92.5067 210.748 102.59 209.447C113.94 207.982 118.553 209.979 121.759 206.29C124.448 203.196 123.643 198.991 123.297 194.071C122.653 184.889 124.528 186.299 127.188 163.683C127.735 159.027 128.371 142.578 129.622 109.87C129.847 103.934 130.045 97.4996 127.918 89.4166Z" fill="url(#paint11_linear_4002_367)"/>
</g>
<path d="M104.065 70.5457C108.674 74.644 112.009 76.0278 112.585 79.9366C113.22 84.2435 109.632 85.6832 110.242 89.8763C111 95.1206 116.946 95.1329 120.008 101.836C122.012 106.223 120.264 107.965 121.468 113.645C122.203 117.107 124.019 121.93 128.953 127.286C129.155 122.083 129.376 116.292 129.622 109.87C129.849 103.934 130.045 97.4996 127.916 89.4166C126.09 82.4777 123.558 78.1377 119.689 70.9959C116.109 64.3849 111.053 54.7589 105.183 42.5246C101.867 42.4449 97.3992 42.6411 93.1566 44.0306C91.6919 46.7044 91.4513 48.8294 91.4067 49.9706C91.0789 58.9975 100.988 67.8094 104.065 70.5457Z" fill="white"/>
<path d="M126.131 20.9561C126.176 24.9945 125.816 29.0272 125.055 32.9934C124.433 36.2008 123.984 37.0292 123.41 37.7012C122.548 38.7134 121.242 39.5627 113.86 41.3976C109.842 42.3938 109.325 42.3672 109.236 42.7653C108.803 44.7112 119.758 51.343 131.076 49.7441C138.003 48.7659 144.305 44.8154 143.918 42.7369C143.532 40.6583 136.61 41.7682 134.547 37.9883C133.113 35.3591 134.721 31.6257 136.622 28.5349C134.78 25.0848 127.971 24.4071 126.131 20.9561Z" fill="url(#paint12_linear_4002_367)"/>
<path d="M138.987 22.9949C140.621 20.8215 140.723 17.0294 138.839 14.6323C137.218 12.5689 134.671 12.2751 133.14 12.0979C128.715 11.587 123.131 13.4352 121.189 17.5099C120.039 19.924 122.528 24.9417 122.918 25.8431C123.359 26.8629 124.159 27.2127 124.9 27.9842C125.926 29.0533 127.532 30.7546 130.154 33.5981C130.402 32.5696 130.738 31.5646 131.159 30.5944C131.349 30.1603 132.107 28.4676 133.261 27.0638C135.567 24.2507 137.437 25.0535 138.987 22.9949Z" fill="#04132B"/>
<path d="M126.414 31.2067C126.414 31.2067 129.323 35.9809 135.115 35.6046C140.301 35.2662 141.06 23.6318 137.748 21.1628C136.643 20.3391 134.432 19.997 132.632 20.4993C131.569 20.7969 131.211 21.2386 129.463 21.6916C127.852 22.1096 127.397 21.9314 126.91 22.3409C126.303 22.8527 125.857 24.1076 126.872 27.5093C125.883 26.5065 124.693 26.1227 123.854 26.5198C123.566 26.676 123.327 26.9089 123.163 27.1928C122.437 28.5292 123.65 30.222 126.414 31.2067Z" fill="url(#paint13_linear_4002_367)"/>
<path d="M126.675 21.6471C126.925 21.8367 126.161 22.7674 126.107 24.0887C125.996 26.6535 128.59 29.7319 131.237 29.9926C132.802 30.1471 133.232 29.2031 135.82 28.9301C137.081 28.7998 138.355 28.8734 139.593 29.1481C140.406 31.9603 139.642 34.7648 137.762 36.0671C135.739 37.468 133.155 36.6187 132.078 36.2633C131.354 36.0254 129.038 35.2691 127.827 33.1441C126.566 30.929 127.804 29.5945 126.357 28.097C125.627 27.3387 124.668 27.0146 123.735 25.5511C123.534 25.2369 123.358 24.9076 123.209 24.5664C124.542 23.1456 126.312 21.377 126.675 21.6471Z" fill="#04132B"/>
<path d="M137.711 30.1907C137.711 30.1907 136.591 30.7755 134.655 30.6646C134.561 30.6646 134.457 30.6873 134.445 30.7357C134.4 30.9195 135.643 31.7432 136.787 31.4219C137.599 31.1925 138.231 30.4238 138.122 30.2276C138.073 30.1471 137.889 30.1585 137.711 30.1907Z" fill="url(#paint14_linear_4002_367)"/>
<path d="M107.814 96.1594C110.771 102.441 97.1841 117.072 82.0823 124.018C79.0051 125.434 56.9094 135.599 47.061 125.825C38.9237 117.749 44.1761 101.049 46.0501 95.0865C55.2571 65.8114 81.3092 49.4019 93.1585 44.0306C102.002 66.1516 99.0154 77.5254 96.9652 80.6029C94.8241 83.8179 88.8478 90.5711 82.501 96.5214C78.0359 100.706 75.2552 102.742 75.6294 103.395C76.0946 104.207 81.3281 102.673 101.655 92.7747C104.012 93.1567 106.804 94.0145 107.814 96.1594Z" fill="white"/>
<path d="M158.086 59.444L122.106 62.8153C121.737 62.8499 121.387 62.995 121.103 63.2318C120.818 63.4686 120.611 63.7859 120.51 64.1423L107.082 111.046C107 111.333 106.989 111.636 107.049 111.928C107.11 112.22 107.241 112.493 107.431 112.724C107.621 112.954 107.864 113.135 108.14 113.25C108.415 113.365 108.714 113.412 109.012 113.386L145.29 110.183C145.663 110.151 146.017 110.005 146.305 109.766C146.592 109.527 146.8 109.205 146.901 108.845L160.033 61.7708C160.113 61.4831 160.122 61.1802 160.059 60.8882C159.996 60.5962 159.863 60.3239 159.672 60.0948C159.48 59.8658 159.235 59.6868 158.959 59.5734C158.683 59.46 158.383 59.4156 158.086 59.444Z" fill="url(#paint15_linear_4002_367)"/>
<path d="M102.68 94.6865C102.68 94.6865 115.071 82.0019 120.113 80.129C125.154 78.2561 120.69 91.6336 117.735 93.5207C114.78 95.4078 113.628 96.1281 111.323 96.4162L109.018 96.7006L105.992 98.3119C105.992 98.3119 102.104 97.8617 102.68 94.6865Z" fill="url(#paint16_linear_4002_367)"/>
<path style="mix-blend-mode:multiply" opacity="0.3" d="M134.138 100.014C135.495 92.5994 131.314 86.85 135.32 79.9006C139.443 72.7513 146.68 73.9578 151.878 68.0681C153.533 66.1943 155.018 63.5376 155.748 59.6629L158.086 59.444C158.383 59.4161 158.682 59.4609 158.958 59.5745C159.234 59.6881 159.478 59.8671 159.669 60.0961C159.861 60.3251 159.993 60.5972 160.056 60.889C160.119 61.1807 160.11 61.4834 160.03 61.7708L146.901 108.845C146.8 109.205 146.592 109.527 146.304 109.766C146.017 110.005 145.663 110.151 145.29 110.183L126.869 111.81C131.553 107.601 133.491 103.551 134.138 100.014Z" fill="url(#paint17_linear_4002_367)"/>
<path d="M210.961 244.509C210.961 247.318 208.972 249.734 206.523 249.879L34.2187 260.408C30.9549 260.597 27.2704 257.838 27.2704 254.574V133.941C27.2704 130.677 31.0439 127.932 34.3078 128.065L206.523 135.442C208.968 135.545 210.961 137.925 210.961 140.733V244.509Z" fill="url(#paint18_linear_4002_367)"/>
<path d="M214.156 244.706C214.156 247.529 212.153 249.956 209.695 250.102L35.5518 260.433C32.2719 260.629 29.5765 258.104 29.5765 254.823V133.604C29.5736 132.83 29.7282 132.064 30.0309 131.351C30.3335 130.639 30.7779 129.996 31.3369 129.461C31.8959 128.926 32.5579 128.511 33.2825 128.24C34.0071 127.97 34.7792 127.849 35.5518 127.886L209.695 135.112C212.153 135.213 214.156 137.605 214.156 140.428V244.706Z" fill="url(#paint19_linear_4002_367)"/>
<path fill-rule="evenodd" clip-rule="evenodd" d="M83.1528 152.154L71.2082 147.035C69.4788 146.294 67.5212 146.294 65.7918 147.035L53.8473 152.154C53.0047 152.515 52.4584 153.344 52.4584 154.26V166.298C52.4584 170.739 54.6029 174.906 58.2163 177.487L65.836 182.93C67.4296 184.068 69.5704 184.068 71.1641 182.93L78.7837 177.487C82.3972 174.906 84.5417 170.739 84.5417 166.298V154.26C84.5417 153.344 83.9954 152.515 83.1528 152.154ZM76.1559 160.25C76.5009 159.818 76.431 159.189 75.9997 158.844C75.5685 158.499 74.9392 158.569 74.5942 159L66.1255 169.586L62.3322 165.793C61.9416 165.402 61.3085 165.402 60.9179 165.793C60.5274 166.183 60.5274 166.816 60.9179 167.207L65.1063 171.395C65.7384 172.027 66.7797 171.97 67.3382 171.272L76.1559 160.25Z" fill="white"/>
<g style="mix-blend-mode:multiply" opacity="0.3">
<path d="M97.3935 227.391C82.3296 229.783 72.5911 230.273 61.4864 226.98C45.98 222.384 35.4325 212.708 29.5784 206.254V254.819C29.5784 258.1 32.2738 260.625 35.5537 260.43L209.697 250.098C212.155 249.952 214.158 247.525 214.158 244.702V227.63C190.501 212.228 171.429 210.73 158.003 212.48C141.47 214.634 132.131 221.874 97.3935 227.391Z" fill="url(#paint20_linear_4002_367)"/>
</g>
<g style="mix-blend-mode:multiply" opacity="0.3">
<path style="mix-blend-mode:multiply" opacity="0.3" d="M95.0562 241.46L53.5129 243.413C53.3213 243.423 53.1298 243.393 52.9502 243.325C52.7706 243.258 52.6067 243.154 52.4685 243.021C52.3304 242.888 52.2209 242.728 52.1468 242.551C52.0727 242.374 52.0356 242.184 52.0378 241.992V235.225C52.0399 234.827 52.1937 234.445 52.4678 234.157C52.7419 233.868 53.1158 233.696 53.5129 233.674L95.0562 232.033C95.8141 232.003 96.4356 232.627 96.4356 233.421V239.956C96.4356 240.744 95.8151 241.425 95.0562 241.46Z" fill="url(#paint21_linear_4002_367)"/>
<path style="mix-blend-mode:multiply" opacity="0.3" d="M143.558 222.607L54.9464 224.767C53.2164 224.809 51.7982 224.172 51.7963 223.35L51.7802 216.584C51.7802 215.763 53.1937 215.062 54.9237 215.025L143.536 213.177C145.156 213.143 146.48 213.765 146.482 214.558L146.497 221.098C146.499 221.883 145.177 222.567 143.558 222.607Z" fill="url(#paint22_linear_4002_367)"/>
<path style="mix-blend-mode:multiply" opacity="0.3" d="M193.642 237.427L142.87 239.814C142.122 239.849 141.511 239.233 141.511 238.444V231.952C141.511 231.164 142.122 230.495 142.87 230.465L193.642 228.46C194.329 228.432 194.889 229.028 194.889 229.787V236.005C194.889 236.755 194.329 237.399 193.642 237.427Z" fill="url(#paint23_linear_4002_367)"/>
</g>
<g style="mix-blend-mode:multiply" opacity="0.3">
<path style="mix-blend-mode:multiply" opacity="0.6" d="M177.007 158.029C177.007 158.603 176.568 159.056 176.026 159.042L103.292 157.065C103.01 157.053 102.744 156.932 102.549 156.727C102.355 156.523 102.248 156.251 102.25 155.968V143.139C102.247 143.001 102.272 142.865 102.323 142.737C102.375 142.61 102.451 142.494 102.549 142.397C102.646 142.3 102.763 142.224 102.89 142.174C103.018 142.123 103.155 142.099 103.292 142.103L176.026 144.487C176.568 144.505 177.007 144.985 177.007 145.559V158.029Z" fill="url(#paint24_linear_4002_367)"/>
<path style="mix-blend-mode:multiply" opacity="0.6" d="M177.007 172.407C177.007 172.981 176.568 173.436 176.026 173.425L103.292 171.852C103.011 171.842 102.744 171.722 102.549 171.518C102.355 171.314 102.247 171.043 102.25 170.761V167.194C102.247 167.057 102.273 166.92 102.324 166.792C102.375 166.664 102.452 166.549 102.549 166.451C102.647 166.354 102.763 166.277 102.89 166.226C103.018 166.174 103.155 166.149 103.292 166.152L176.026 167.88C176.568 167.893 177.007 168.368 177.007 168.942V172.407Z" fill="url(#paint25_linear_4002_367)"/>
<path style="mix-blend-mode:multiply" opacity="0.6" d="M177.007 185.568C177.007 186.141 176.568 186.599 176.026 186.59L103.292 185.386C103.011 185.378 102.744 185.26 102.549 185.056C102.354 184.853 102.247 184.582 102.25 184.3V180.737C102.247 180.599 102.273 180.461 102.324 180.333C102.375 180.205 102.452 180.089 102.549 179.991C102.646 179.893 102.762 179.816 102.89 179.763C103.017 179.711 103.154 179.685 103.292 179.686L176.026 181.045C176.568 181.056 177.007 181.529 177.007 182.103V185.568Z" fill="url(#paint26_linear_4002_367)"/>
</g>
<path style="mix-blend-mode:multiply" opacity="0.3" d="M162.897 252.545L136.984 254.146V151.126H162.897V252.545Z" fill="url(#paint27_linear_4002_367)"/>
<path d="M228.052 150.827L140.131 147.267C138.216 147.207 136.765 149.353 136.984 151.126L150.33 259.397C150.634 261.862 153.184 262.485 155.083 262.39L241.263 258.035C242.924 257.952 244.106 256.543 243.898 254.888L231.456 153.925C231.252 152.265 229.73 150.88 228.052 150.827Z" fill="#97A6B7"/>
<path d="M229.456 149.895L141.311 147.101C139.392 147.04 138.011 148.442 138.232 150.228L151.696 259.445C151.916 261.234 153.639 262.607 155.538 262.509L242.786 258.037C244.45 257.953 245.628 256.53 245.423 254.861L232.868 153.013C232.662 151.344 231.137 149.944 229.456 149.895Z" fill="#D8DEE8"/>
<path opacity="0.74" d="M155.355 261.028C154.33 261.079 153.398 260.336 153.28 259.37L139.833 150.282C139.714 149.316 140.46 148.557 141.496 148.589L229.627 151.285C230.535 151.314 231.363 152.07 231.475 152.972L244.042 254.928C244.072 255.137 244.058 255.349 244.001 255.552C243.944 255.755 243.845 255.943 243.71 256.105C243.576 256.267 243.409 256.399 243.22 256.493C243.031 256.586 242.825 256.638 242.614 256.647L155.355 261.028Z" fill="white"/>
<path d="M236.298 253.643L161.593 257.202L149.121 156.024L224.501 157.942L236.298 253.643Z" fill="white"/>
<g style="mix-blend-mode:multiply" opacity="0.3">
<path d="M193.727 158.785L164.063 159.466L163.904 152.857C163.847 151.998 164.378 151.284 165.178 151.146L170.051 150.304C170.332 150.257 170.594 150.133 170.809 149.947C171.024 149.761 171.185 149.519 171.272 149.248L171.668 148.065L184.932 148.649L193.727 158.785Z" fill="#97A6B7"/>
</g>
<path d="M209.497 154.209C209.381 153.836 209.152 153.509 208.841 153.272C208.53 153.036 208.153 152.902 207.763 152.89L202.836 152.744C201.755 152.709 200.723 152.279 199.938 151.535C199.152 150.79 198.666 149.784 198.573 148.705L198.124 143.529C198.082 143.065 197.873 142.632 197.535 142.311C197.198 141.989 196.755 141.802 196.29 141.783L194.685 141.723C194.098 141.695 193.546 141.439 193.146 141.009C192.746 140.578 192.531 140.009 192.546 139.421C192.555 138.386 192.162 137.387 191.448 136.636C190.735 135.885 189.758 135.441 188.723 135.397C188.213 135.372 187.703 135.449 187.224 135.623C186.744 135.798 186.304 136.067 185.929 136.415C185.555 136.762 185.254 137.181 185.044 137.646C184.833 138.112 184.718 138.615 184.705 139.126C184.701 139.417 184.639 139.705 184.521 139.971C184.403 140.238 184.233 140.478 184.021 140.678C183.808 140.877 183.558 141.031 183.284 141.132C183.011 141.232 182.72 141.277 182.429 141.262L180.8 141.2C180.33 141.178 179.868 141.333 179.506 141.634C179.143 141.935 178.907 142.361 178.842 142.828L178.143 148.041C177.84 150.294 175.861 151.946 173.542 151.878L168.353 151.724C167.945 151.708 167.542 151.821 167.2 152.045C166.859 152.27 166.596 152.596 166.449 152.977L164.118 159.155C164.075 159.274 164.062 159.401 164.078 159.527C164.095 159.652 164.142 159.772 164.214 159.875C164.287 159.979 164.383 160.064 164.495 160.122C164.607 160.181 164.732 160.212 164.858 160.213L210.682 161.281C210.802 161.283 210.921 161.256 211.028 161.203C211.136 161.15 211.23 161.072 211.301 160.975C211.373 160.879 211.421 160.767 211.441 160.649C211.461 160.53 211.452 160.409 211.416 160.294L209.497 154.209ZM188.623 139.866C188.318 139.854 188.029 139.723 187.819 139.502C187.609 139.28 187.494 138.985 187.498 138.679C187.502 138.529 187.535 138.382 187.596 138.245C187.658 138.108 187.746 137.985 187.855 137.883C187.965 137.781 188.094 137.702 188.234 137.65C188.375 137.598 188.525 137.575 188.674 137.583C188.979 137.595 189.267 137.726 189.477 137.948C189.687 138.17 189.802 138.465 189.797 138.77C189.794 138.92 189.76 139.067 189.699 139.204C189.638 139.341 189.55 139.464 189.441 139.566C189.332 139.668 189.203 139.747 189.062 139.799C188.922 139.851 188.772 139.874 188.623 139.867V139.866Z" fill="url(#paint28_linear_4002_367)"/>
<path d="M209.792 154.347C209.676 153.975 209.446 153.647 209.135 153.411C208.825 153.174 208.448 153.041 208.057 153.028L203.125 152.881C202.044 152.846 201.012 152.416 200.227 151.671C199.441 150.927 198.955 149.92 198.862 148.842L198.412 143.665C198.37 143.2 198.161 142.767 197.824 142.446C197.486 142.125 197.043 141.937 196.578 141.919L194.967 141.858C194.38 141.83 193.828 141.574 193.428 141.143C193.028 140.713 192.813 140.143 192.828 139.556C192.837 138.52 192.444 137.521 191.73 136.769C191.017 136.018 190.04 135.574 189.005 135.531C188.495 135.505 187.985 135.582 187.505 135.757C187.025 135.931 186.584 136.2 186.21 136.548C185.835 136.895 185.534 137.314 185.324 137.78C185.113 138.245 184.998 138.748 184.985 139.259C184.981 139.55 184.919 139.838 184.801 140.104C184.684 140.37 184.514 140.61 184.302 140.809C184.09 141.009 183.84 141.163 183.567 141.264C183.294 141.364 183.004 141.409 182.713 141.395L181.084 141.334C180.613 141.312 180.151 141.466 179.789 141.767C179.426 142.068 179.189 142.494 179.124 142.96L178.425 148.173C178.123 150.425 176.144 152.078 173.824 152.009L168.633 151.856C168.224 151.84 167.821 151.952 167.48 152.177C167.138 152.402 166.875 152.727 166.727 153.109L164.396 159.287C164.353 159.407 164.339 159.534 164.356 159.66C164.373 159.785 164.42 159.905 164.492 160.008C164.565 160.112 164.661 160.197 164.773 160.255C164.886 160.314 165.01 160.345 165.137 160.345L210.975 161.417C211.095 161.419 211.214 161.393 211.321 161.34C211.429 161.287 211.523 161.209 211.595 161.112C211.667 161.016 211.714 160.904 211.734 160.785C211.754 160.667 211.746 160.545 211.71 160.431L209.792 154.347ZM188.911 140C188.606 139.989 188.317 139.858 188.107 139.636C187.897 139.414 187.782 139.119 187.787 138.813C187.79 138.663 187.823 138.515 187.885 138.378C187.946 138.241 188.035 138.118 188.145 138.016C188.255 137.913 188.384 137.834 188.525 137.783C188.666 137.732 188.816 137.709 188.966 137.717C189.271 137.729 189.559 137.861 189.769 138.082C189.979 138.304 190.094 138.599 190.09 138.905C190.086 139.055 190.053 139.203 189.991 139.339C189.93 139.476 189.841 139.599 189.732 139.701C189.622 139.804 189.493 139.883 189.352 139.934C189.211 139.985 189.061 140.008 188.911 140Z" fill="#97A6B7"/>
<g style="mix-blend-mode:soft-light" opacity="0.5">
<path d="M202.162 157.337C197.719 154.883 194.78 156.694 191.877 153.913C188.78 150.946 190.129 146.957 187.083 145.142C185.137 143.983 183.666 145.066 181.544 144.783C180.769 144.68 179.92 144.395 179.006 143.827L178.422 148.175C178.12 150.427 176.141 152.08 173.821 152.011L168.63 151.858C168.221 151.842 167.818 151.954 167.477 152.179C167.135 152.404 166.872 152.729 166.724 153.111L164.393 159.289C164.35 159.409 164.337 159.536 164.353 159.662C164.37 159.787 164.417 159.907 164.489 160.01C164.562 160.114 164.658 160.199 164.771 160.257C164.883 160.316 165.007 160.347 165.134 160.347L206.683 161.318C205.412 159.67 203.918 158.307 202.162 157.337Z" fill="white"/>
</g>
<path d="M171.162 204.946L171.869 210.68L165.801 210.757L165.089 204.989L171.162 204.946ZM171.77 204.214L164.309 204.27L165.198 211.49L172.656 211.395L171.77 204.21V204.214Z" fill="#D8DEE8"/>
<path d="M223.965 210.767L175.42 211.365L174.536 204.193L223.109 203.826L223.965 210.767Z" fill="#D8DEE8"/>
<path d="M172.453 215.421L173.16 221.153L167.097 221.273L166.386 215.506L172.45 215.421H172.453ZM173.061 214.682L165.605 214.79L166.495 222.012L173.947 221.868L173.061 214.682Z" fill="#D8DEE8"/>
<path d="M225.21 220.879L176.708 221.815L175.824 214.643L224.355 213.939L225.21 220.879Z" fill="#D8DEE8"/>
<path d="M173.745 225.895L174.452 231.626L168.388 231.789L167.678 226.023L173.741 225.895H173.745ZM174.351 225.152L166.902 225.312L167.792 232.533L175.237 232.337L174.351 225.152Z" fill="#D8DEE8"/>
<path d="M226.457 230.991L177.996 232.264L177.112 225.092L225.602 224.052L226.457 230.991Z" fill="#D8DEE8"/>
<path d="M175.039 236.37L175.745 242.101L169.692 242.304L168.981 236.54L175.039 236.37ZM175.645 235.621L168.202 235.833L169.092 243.054L176.53 242.807L175.645 235.621Z" fill="#D8DEE8"/>
<path d="M227.704 241.104L179.284 242.715L178.4 235.543L226.848 234.164L227.704 241.104Z" fill="#D8DEE8"/>
<path d="M163.528 197.937C163.432 197.934 163.341 197.896 163.271 197.83C163.197 197.762 163.15 197.67 163.137 197.571L158.983 163.877C158.977 163.831 158.979 163.784 158.992 163.739C159.004 163.695 159.026 163.653 159.055 163.617C159.085 163.583 159.121 163.556 159.162 163.538C159.203 163.52 159.248 163.511 159.293 163.512L189.478 164.081C189.576 164.086 189.669 164.125 189.741 164.192C189.814 164.259 189.86 164.349 189.873 164.446L193.947 197.484C193.955 197.529 193.953 197.575 193.941 197.619C193.929 197.663 193.907 197.704 193.878 197.739C193.848 197.774 193.811 197.802 193.77 197.82C193.729 197.839 193.683 197.849 193.638 197.848L163.534 197.936L163.528 197.937ZM159.72 164.244L163.785 197.211L193.181 197.117L189.202 164.816L159.72 164.244Z" fill="#D8DEE8"/>
<path d="M218.848 169.268L194.891 168.879L194.357 164.544L218.323 165.001L218.848 169.268Z" fill="#D8DEE8"/>
<path d="M220.018 178.748L196.079 178.516L195.812 176.348L219.754 176.614L220.018 178.748Z" fill="#D8DEE8"/>
<path d="M220.451 182.263L196.52 182.089L196.253 179.921L220.188 180.13L220.451 182.263Z" fill="#D8DEE8"/>
<path d="M220.884 185.779L196.96 185.662L196.692 183.495L220.621 183.646L220.884 185.779Z" fill="#D8DEE8"/>
<path d="M171.959 177.926C171.724 177.741 171.306 177.413 171.058 176.873C170.711 176.121 171.031 175.693 170.864 174.883C170.696 174.072 170.257 173.856 169.702 172.977C169.385 172.474 168.242 170.666 168.771 169.186C169.245 167.853 170.987 167.006 172.304 167.404C173.411 167.74 173.555 168.759 174.751 168.982C175.737 169.166 175.983 168.535 176.977 168.819C177.329 168.919 177.822 169.293 178.807 170.035C179.57 170.611 179.954 170.904 180.118 171.191C180.556 171.955 180.36 172.763 180.261 173.17C180.02 174.162 179.563 174.174 179.367 174.988C179.097 176.11 179.841 176.605 179.66 177.365C179.215 179.225 173.95 179.494 171.959 177.926Z" fill="url(#paint29_linear_4002_367)"/>
<path d="M164.491 196.391L162.897 183.46L167.144 182.852L185.854 182.745L190.758 183.545L192.333 196.326L164.491 196.391Z" fill="url(#paint30_linear_4002_367)"/>
<path d="M176.539 174.57C177.003 176.574 177.467 178.577 177.93 180.58C177.999 180.852 178.15 181.095 178.363 181.278C178.576 181.46 178.84 181.573 179.119 181.6C181.347 181.79 183.639 182.553 185.854 182.745L176.453 185.771L167.144 182.854C169.126 182.589 171.083 182.165 172.996 181.586C173.201 181.527 173.381 181.402 173.507 181.231C173.634 181.059 173.701 180.851 173.697 180.638C173.697 179.4 173.695 178.163 173.691 176.926L176.539 174.57Z" fill="url(#paint31_linear_4002_367)"/>
<path d="M179.709 175.92C179.648 176.57 179.04 177.35 178.761 177.292C178.483 177.234 178.303 176.659 178.363 176.009C178.424 175.359 178.7 174.88 178.979 174.939C179.259 174.997 179.768 175.27 179.709 175.92Z" fill="url(#paint32_linear_4002_367)"/>
<path d="M170.751 175.819C170.974 176.476 171.785 177.276 172.053 177.223C172.321 177.17 172.359 176.595 172.136 175.94C171.913 175.284 171.516 174.795 171.247 174.847C170.979 174.899 170.528 175.162 170.751 175.819Z" fill="url(#paint33_linear_4002_367)"/>
<path d="M178.896 174.38C179.258 177.318 177.961 180.741 175.832 180.724C173.703 180.707 171.536 177.234 171.173 174.284C170.809 171.333 172.382 170.037 174.519 170.069C176.655 170.101 178.534 171.445 178.896 174.38Z" fill="url(#paint34_linear_4002_367)"/>
<path d="M170.018 172.526C170.142 173.039 170.56 173.941 171.344 174.232C172.102 174.511 172.725 174.042 175.832 172.869C176.373 172.665 176.605 172.584 176.913 172.673C178.288 173.073 178.456 176.093 178.934 176.117C179.313 176.136 179.924 174.256 179.088 172.44C178.311 170.754 176.676 169.962 176.28 169.777C176.105 169.694 173.422 168.484 171.46 169.755C171.174 169.943 169.649 170.985 170.018 172.526Z" fill="url(#paint35_linear_4002_367)"/>
<path d="M168.74 210.341C168.642 210.341 168.545 210.318 168.458 210.275C168.37 210.232 168.293 210.169 168.234 210.091L165.997 207.172C165.807 206.92 165.845 206.587 166.092 206.429C166.221 206.355 166.373 206.332 166.519 206.363C166.664 206.394 166.793 206.478 166.881 206.599L168.536 208.76L170.678 204.299C170.802 204.042 171.131 203.954 171.414 204.102C171.698 204.25 171.825 204.576 171.698 204.835L169.186 210.07C169.145 210.152 169.082 210.221 169.004 210.269C168.926 210.317 168.836 210.342 168.744 210.341H168.74Z" fill="url(#paint36_linear_4002_367)"/>
<path d="M171.362 231.613C171.265 231.615 171.168 231.594 171.081 231.551C170.993 231.509 170.916 231.447 170.857 231.37L168.623 228.477C168.577 228.423 168.543 228.36 168.522 228.293C168.502 228.225 168.496 228.154 168.505 228.083C168.514 228.013 168.538 227.946 168.574 227.885C168.611 227.825 168.66 227.772 168.718 227.732C168.845 227.656 168.997 227.63 169.142 227.659C169.288 227.688 169.418 227.771 169.506 227.89L171.155 230.034L173.293 225.536C173.416 225.277 173.745 225.183 174.027 225.327C174.31 225.471 174.438 225.801 174.311 226.057L171.805 231.337C171.764 231.42 171.701 231.489 171.624 231.538C171.546 231.588 171.456 231.614 171.364 231.615L171.362 231.613Z" fill="url(#paint37_linear_4002_367)"/>
<path d="M170.057 221.03C169.959 221.031 169.862 221.009 169.775 220.966C169.687 220.923 169.61 220.86 169.551 220.783L167.316 217.877C167.126 217.626 167.164 217.294 167.41 217.133C167.539 217.058 167.691 217.033 167.836 217.064C167.982 217.094 168.112 217.177 168.2 217.297L169.853 219.448L171.993 214.969C172.116 214.711 172.445 214.62 172.728 214.766C173.012 214.912 173.139 215.24 173.012 215.498L170.503 220.755C170.462 220.837 170.399 220.907 170.321 220.955C170.243 221.004 170.153 221.03 170.061 221.03H170.057Z" fill="url(#paint38_linear_4002_367)"/>
<path d="M172.554 241.287C172.457 241.288 172.361 241.268 172.273 241.226C172.185 241.184 172.109 241.122 172.049 241.046L169.818 238.164C169.772 238.111 169.738 238.048 169.717 237.98C169.697 237.912 169.691 237.841 169.7 237.77C169.709 237.7 169.733 237.633 169.769 237.572C169.806 237.511 169.855 237.459 169.913 237.418C170.039 237.341 170.19 237.314 170.336 237.343C170.482 237.371 170.611 237.453 170.7 237.572L172.351 239.705L174.487 235.189C174.52 235.126 174.566 235.071 174.621 235.026C174.677 234.981 174.74 234.947 174.809 234.928C174.877 234.908 174.949 234.902 175.02 234.91C175.091 234.918 175.159 234.941 175.221 234.976C175.353 235.038 175.455 235.148 175.508 235.284C175.561 235.419 175.56 235.57 175.505 235.705L173 241.005C172.96 241.089 172.898 241.159 172.82 241.21C172.742 241.26 172.652 241.287 172.56 241.289L172.554 241.287Z" fill="url(#paint39_linear_4002_367)"/>
</g>
<defs>
<linearGradient id="paint0_linear_4002_367" x1="0" y1="77.0979" x2="69.9032" y2="77.0979" gradientUnits="userSpaceOnUse">
<stop stop-color="#FF9085"/>
<stop offset="1" stop-color="#FB6FBB"/>
</linearGradient>
<linearGradient id="paint1_linear_4002_367" x1="58.9009" y1="112.506" x2="124.718" y2="112.506" gradientUnits="userSpaceOnUse">
<stop stop-color="#AA80F9"/>
<stop offset="1" stop-color="#6165D7"/>
</linearGradient>
<linearGradient id="paint2_linear_4002_367" x1="58.9009" y1="40.9389" x2="124.718" y2="40.9389" gradientUnits="userSpaceOnUse">
<stop stop-color="#FF9085"/>
<stop offset="1" stop-color="#FB6FBB"/>
</linearGradient>
<linearGradient id="paint3_linear_4002_367" x1="78.2028" y1="91.0978" x2="145.489" y2="93.0117" gradientUnits="userSpaceOnUse">
<stop stop-color="#FF9085"/>
<stop offset="1" stop-color="#FB6FBB"/>
</linearGradient>
<linearGradient id="paint4_linear_4002_367" x1="134.508" y1="111.022" x2="222.677" y2="113.53" gradientUnits="userSpaceOnUse">
<stop stop-color="#FF9085"/>
<stop offset="1" stop-color="#FB6FBB"/>
</linearGradient>
<linearGradient id="paint5_linear_4002_367" x1="136.233" y1="20.5778" x2="223.323" y2="57.7833" gradientUnits="userSpaceOnUse">
<stop stop-color="#007CD6"/>
<stop offset="1" stop-color="#03C2EC"/>
</linearGradient>
<linearGradient id="paint6_linear_4002_367" x1="190.419" y1="23.4919" x2="279.267" y2="64.1039" gradientUnits="userSpaceOnUse">
<stop stop-color="#007CD6"/>
<stop offset="1" stop-color="#03C2EC"/>
</linearGradient>
<linearGradient id="paint7_linear_4002_367" x1="246.818" y1="85.8807" x2="212.729" y2="178.197" gradientUnits="userSpaceOnUse">
<stop stop-color="#FFC444"/>
<stop offset="1" stop-color="#F36F56"/>
</linearGradient>
<linearGradient id="paint8_linear_4002_367" x1="239.565" y1="95.7471" x2="157.283" y2="95.7471" gradientUnits="userSpaceOnUse">
<stop stop-color="#AA80F9"/>
<stop offset="1" stop-color="#6165D7"/>
</linearGradient>
<linearGradient id="paint9_linear_4002_367" x1="96.1996" y1="42.2508" x2="205.432" y2="70.576" gradientUnits="userSpaceOnUse">
<stop stop-color="#007CD6"/>
<stop offset="1" stop-color="#03C2EC"/>
</linearGradient>
<linearGradient id="paint10_linear_4002_367" x1="94.2955" y1="-8.40804" x2="174.185" y2="172.242" gradientUnits="userSpaceOnUse">
<stop stop-color="#AA80F9"/>
<stop offset="1" stop-color="#6165D7"/>
</linearGradient>
<linearGradient id="paint11_linear_4002_367" x1="81.6768" y1="128.371" x2="129.756" y2="128.371" gradientUnits="userSpaceOnUse">
<stop stop-color="#AA80F9"/>
<stop offset="1" stop-color="#6165D7"/>
</linearGradient>
<linearGradient id="paint12_linear_4002_367" x1="117.889" y1="61.1249" x2="140.205" y2="14.6716" gradientUnits="userSpaceOnUse">
<stop stop-color="#FFC444"/>
<stop offset="1" stop-color="#F36F56"/>
</linearGradient>
<linearGradient id="paint13_linear_4002_367" x1="131.121" y1="23.0946" x2="133.672" y2="71.6038" gradientUnits="userSpaceOnUse">
<stop stop-color="#FFC444"/>
<stop offset="1" stop-color="#F36F56"/>
</linearGradient>
<linearGradient id="paint14_linear_4002_367" x1="136.285" y1="28.5557" x2="135.602" y2="34.6396" gradientUnits="userSpaceOnUse">
<stop stop-color="#FFC444"/>
<stop offset="1" stop-color="#F36F56"/>
</linearGradient>
<linearGradient id="paint15_linear_4002_367" x1="144.672" y1="184.045" x2="139.503" y2="138.694" gradientUnits="userSpaceOnUse">
<stop stop-color="#444B8C"/>
<stop offset="1" stop-color="#26264F"/>
</linearGradient>
<linearGradient id="paint16_linear_4002_367" x1="113.194" y1="84.8292" x2="94.9153" y2="196.56" gradientUnits="userSpaceOnUse">
<stop stop-color="#FFC444"/>
<stop offset="1" stop-color="#F36F56"/>
</linearGradient>
<linearGradient id="paint17_linear_4002_367" x1="154.465" y1="182.929" x2="149.296" y2="137.577" gradientUnits="userSpaceOnUse">
<stop stop-color="#444B8C"/>
<stop offset="1" stop-color="#26264F"/>
</linearGradient>
<linearGradient id="paint18_linear_4002_367" x1="114.402" y1="197.134" x2="52.6052" y2="188.465" gradientUnits="userSpaceOnUse">
<stop stop-color="#444B8C"/>
<stop offset="1" stop-color="#26264F"/>
</linearGradient>
<linearGradient id="paint19_linear_4002_367" x1="30.3147" y1="130.844" x2="236.577" y2="268.381" gradientUnits="userSpaceOnUse">
<stop stop-color="#007CD6"/>
<stop offset="1" stop-color="#03C2EC"/>
</linearGradient>
<linearGradient id="paint20_linear_4002_367" x1="30.3167" y1="207.466" x2="111.703" y2="340.233" gradientUnits="userSpaceOnUse">
<stop stop-color="#007CD6"/>
<stop offset="1" stop-color="#03C2EC"/>
</linearGradient>
<linearGradient id="paint21_linear_4002_367" x1="52.0378" y1="237.722" x2="96.4356" y2="237.722" gradientUnits="userSpaceOnUse">
<stop stop-color="#AA80F9"/>
<stop offset="1" stop-color="#6165D7"/>
</linearGradient>
<linearGradient id="paint22_linear_4002_367" x1="50.8958" y1="218.62" x2="145.463" y2="218.62" gradientUnits="userSpaceOnUse">
<stop stop-color="#AA80F9"/>
<stop offset="1" stop-color="#6165D7"/>
</linearGradient>
<linearGradient id="paint23_linear_4002_367" x1="141.511" y1="234.141" x2="194.889" y2="234.141" gradientUnits="userSpaceOnUse">
<stop stop-color="#AA80F9"/>
<stop offset="1" stop-color="#6165D7"/>
</linearGradient>
<linearGradient id="paint24_linear_4002_367" x1="123.765" y1="174.236" x2="186.115" y2="81.3616" gradientUnits="userSpaceOnUse">
<stop stop-color="#AA80F9"/>
<stop offset="1" stop-color="#6165D7"/>
</linearGradient>
<linearGradient id="paint25_linear_4002_367" x1="132.653" y1="180.202" x2="195.002" y2="87.3281" gradientUnits="userSpaceOnUse">
<stop stop-color="#AA80F9"/>
<stop offset="1" stop-color="#6165D7"/>
</linearGradient>
<linearGradient id="paint26_linear_4002_367" x1="138.828" y1="184.348" x2="201.177" y2="91.4739" gradientUnits="userSpaceOnUse">
<stop stop-color="#AA80F9"/>
<stop offset="1" stop-color="#6165D7"/>
</linearGradient>
<linearGradient id="paint27_linear_4002_367" x1="136.984" y1="202.636" x2="162.897" y2="202.636" gradientUnits="userSpaceOnUse">
<stop stop-color="#AA80F9"/>
<stop offset="1" stop-color="#6165D7"/>
</linearGradient>
<linearGradient id="paint28_linear_4002_367" x1="162.06" y1="148.337" x2="208.649" y2="142.749" gradientUnits="userSpaceOnUse">
<stop stop-color="#444B8C"/>
<stop offset="1" stop-color="#26264F"/>
</linearGradient>
<linearGradient id="paint29_linear_4002_367" x1="177.12" y1="165.169" x2="170.487" y2="177.678" gradientUnits="userSpaceOnUse">
<stop stop-color="#444B8C"/>
<stop offset="1" stop-color="#26264F"/>
</linearGradient>
<linearGradient id="paint30_linear_4002_367" x1="162.897" y1="182.745" x2="187.907" y2="199.834" gradientUnits="userSpaceOnUse">
<stop stop-color="#0068D6"/>
<stop offset="1" stop-color="#24BAFA"/>
</linearGradient>
<linearGradient id="paint31_linear_4002_367" x1="173.364" y1="187.796" x2="188.591" y2="160.528" gradientUnits="userSpaceOnUse">
<stop stop-color="#FFC444"/>
<stop offset="1" stop-color="#F36F56"/>
</linearGradient>
<linearGradient id="paint32_linear_4002_367" x1="178.03" y1="180.609" x2="181.658" y2="165.1" gradientUnits="userSpaceOnUse">
<stop stop-color="#FFC444"/>
<stop offset="1" stop-color="#F36F56"/>
</linearGradient>
<linearGradient id="paint33_linear_4002_367" x1="173.668" y1="180.178" x2="169.565" y2="163.632" gradientUnits="userSpaceOnUse">
<stop stop-color="#FFC444"/>
<stop offset="1" stop-color="#F36F56"/>
</linearGradient>
<linearGradient id="paint34_linear_4002_367" x1="174.732" y1="178.656" x2="175.122" y2="162.279" gradientUnits="userSpaceOnUse">
<stop stop-color="#FFC444"/>
<stop offset="1" stop-color="#F36F56"/>
</linearGradient>
<linearGradient id="paint35_linear_4002_367" x1="176.508" y1="167.828" x2="172.54" y2="175.311" gradientUnits="userSpaceOnUse">
<stop stop-color="#444B8C"/>
<stop offset="1" stop-color="#26264F"/>
</linearGradient>
<linearGradient id="paint36_linear_4002_367" x1="165.09" y1="207.186" x2="171.153" y2="206.459" gradientUnits="userSpaceOnUse">
<stop stop-color="#FF9085"/>
<stop offset="1" stop-color="#FB6FBB"/>
</linearGradient>
<linearGradient id="paint37_linear_4002_367" x1="167.639" y1="228.436" x2="173.702" y2="227.709" gradientUnits="userSpaceOnUse">
<stop stop-color="#FF9085"/>
<stop offset="1" stop-color="#FB6FBB"/>
</linearGradient>
<linearGradient id="paint38_linear_4002_367" x1="166.371" y1="217.859" x2="172.433" y2="217.131" gradientUnits="userSpaceOnUse">
<stop stop-color="#FF9085"/>
<stop offset="1" stop-color="#FB6FBB"/>
</linearGradient>
<linearGradient id="paint39_linear_4002_367" x1="168.798" y1="238.098" x2="174.861" y2="237.371" gradientUnits="userSpaceOnUse">
<stop stop-color="#FF9085"/>
<stop offset="1" stop-color="#FB6FBB"/>
</linearGradient>
<clipPath id="clip0_4002_367">
<rect width="265" height="263" fill="white"/>
</clipPath>
</defs>
</svg>
