<svg width="263" height="261" viewBox="0 0 263 261" fill="none" xmlns="http://www.w3.org/2000/svg">
<g clip-path="url(#clip0_4002_83)">
<path d="M4.43371 148.997C11.5195 195.404 40.5944 252.413 98.0132 258.379C98.0132 258.379 141.612 263.682 184.588 255.645C210.096 250.875 232.463 236.675 246.615 216.266C260.767 195.858 265.496 170.972 259.758 147.248C256.032 131.839 253.514 115.89 254.205 100.06C255.413 72.5006 254.716 46.7772 227.971 30.342C204.09 15.6652 174.037 2.7245 145.366 0.457959C125.881 -1.08311 104.03 1.41009 85.25 6.48288C-10.454 32.3308 -2.65574 102.597 4.43371 148.997Z" fill="#F4F7FA"/>
<path d="M162.52 214.552C167.153 205.967 172.622 192.709 171.796 176.822C170.711 155.988 159.75 148.936 149.841 116.357C143.575 95.7587 139.411 81.3197 147.159 70.2657C153.231 61.6027 165.892 56.0533 175.664 58.9423C183.789 61.3426 190.868 69.8542 194.364 76.4504C197.213 81.826 197.831 86.2132 202.114 88.1166C206.492 90.0608 209.532 87.1171 213.425 88.3395C221.321 90.8188 222.731 107.296 222.959 109.959C225.493 139.581 206.41 166.503 197.944 178.146C190.944 187.773 179.646 201.26 162.52 214.552Z" fill="url(#paint0_linear_4002_83)"/>
<g style="mix-blend-mode:soft-light" opacity="0.5">
<g style="mix-blend-mode:soft-light" opacity="0.5">
<path d="M156.529 222.227L156.096 221.699C174.082 206.991 195.075 184.047 192.951 158.254C192.17 148.771 188.374 139.938 183.12 127.713C178.926 117.954 175.073 111.416 171.673 105.646C167.228 98.1024 163.716 92.1434 161.56 82.5162C159.372 72.7449 159.351 62.3123 161.497 51.5091L162.166 51.6419C160.039 62.3514 160.06 72.6892 162.227 82.3666C164.364 91.8917 167.847 97.8098 172.259 105.302C175.669 111.089 179.534 117.648 183.745 127.447C188.825 139.269 192.839 148.606 193.63 158.201C194.64 170.471 190.505 183.295 181.339 196.313C175.153 205.104 166.805 213.824 156.529 222.227Z" fill="white"/>
</g>
<g style="mix-blend-mode:soft-light" opacity="0.5">
<path d="M180.5 120.776L180.116 120.742C180.039 120.735 172.357 120.005 163.374 115.354C155.084 111.064 143.944 102.465 137.957 85.8575L138.6 85.6262C144.512 102.025 155.506 110.515 163.688 114.748C171.417 118.747 178.146 119.805 179.793 120.014C179.221 100.023 185.168 85.38 190.277 76.5962C195.851 67.0061 201.68 62.1228 201.738 62.0745L202.174 62.6003C202.116 62.6486 196.368 67.4724 190.851 76.9678C185.761 85.7283 179.832 100.376 180.487 120.387L180.5 120.776Z" fill="white"/>
</g>
<g style="mix-blend-mode:soft-light" opacity="0.5">
<path d="M191.044 147.477L190.846 147.326C190.747 147.253 180.929 139.836 169.63 134.328C158.4 128.853 137.621 132.586 137.412 132.624L137.289 131.953C137.499 131.915 158.499 128.144 169.93 133.718C180.397 138.82 189.598 145.55 191.058 146.636C209.697 133.296 215.639 77.252 215.698 76.6891L216.377 76.7588C216.362 76.9009 214.871 91.2182 211.057 106.978C205.923 128.189 199.26 141.769 191.247 147.341L191.044 147.477Z" fill="white"/>
</g>
<g style="mix-blend-mode:soft-light" opacity="0.5">
<path d="M183.67 192.815L183.805 192.147C186.034 181.153 182.028 171.725 171.897 164.128C164.308 158.435 155.939 155.971 155.856 155.947L156.041 155.29C156.126 155.315 164.599 157.808 172.287 163.57C182.304 171.077 186.551 180.755 184.599 191.606C186.878 190.461 195.255 186.052 205.054 178.479C215.619 170.316 230.042 156.7 238.766 138.195L255.714 102.241L256.331 102.532L239.383 138.481C230.6 157.115 216.086 170.815 205.458 179.026C193.946 187.921 184.376 192.475 184.278 192.52L183.67 192.815Z" fill="white"/>
</g>
</g>
<path d="M164.305 212.211C179.572 214.254 199.312 214.684 219.042 208.616C224.077 207.067 255.181 197.501 253.412 183.663C252.788 178.789 248.611 177.501 247.664 170.998C246.54 163.293 251.685 160.169 256.102 151.305C258.737 146.016 266.451 130.538 257.887 120.338C252.77 114.242 242.072 110.305 233.435 111.198C220.765 112.507 215.013 123.946 205.616 143.469C197.284 160.775 198.271 165.409 192.053 177.767C187.439 186.94 179.374 199.349 164.305 212.211Z" fill="url(#paint1_linear_4002_83)"/>
<g style="mix-blend-mode:soft-light" opacity="0.5">
<g style="mix-blend-mode:soft-light" opacity="0.5">
<path d="M136.737 216.41C124.011 216.41 111.099 213.775 98.2436 208.539L98.5009 207.906C114.664 214.485 130.888 216.932 146.729 215.176C203.416 208.896 231.32 148.976 238.522 130.76C242.609 120.426 243.585 108.531 241.425 95.4067L242.099 95.2961C244.28 108.543 243.29 120.563 239.158 131.012C233.23 146.003 222.431 167.695 204.644 185.903C187.531 203.421 168.07 213.499 146.804 215.855C143.461 216.225 140.1 216.41 136.737 216.41Z" fill="white"/>
</g>
<g style="mix-blend-mode:soft-light" opacity="0.5">
<path d="M224.259 160.246L224.098 159.984C224.062 159.926 220.451 154.039 218.022 145.433C215.778 137.486 214.109 125.526 218.899 113.679L219.532 113.935C214.817 125.595 216.466 137.389 218.674 145.229C220.787 152.722 223.805 158.132 224.526 159.361C259.574 142.409 262.315 118.289 262.318 111.285C262.315 111.167 262.318 111.049 262.327 110.932L263.004 111.024C263.004 111.064 263.004 111.154 263.004 111.289C263.004 118.413 260.217 142.986 224.547 160.117L224.259 160.246Z" fill="white"/>
</g>
<g style="mix-blend-mode:soft-light" opacity="0.5">
<path d="M225.727 188.787C219.663 188.787 212.629 187.932 204.598 185.689L204.423 185.64L204.366 185.467C204.301 185.269 197.951 165.402 203.108 140.154L208.305 114.702L208.974 114.84L203.772 140.292C198.907 164.118 204.347 183.082 204.956 185.082C224.315 190.449 237.8 187.677 245.713 184.4C254.308 180.84 258.364 175.932 258.404 175.883L258.934 176.313C258.768 176.518 254.754 181.384 246.016 185.013C241.264 186.99 234.518 188.787 225.727 188.787Z" fill="white"/>
</g>
</g>
<path d="M172.84 228.665C172.84 230.833 171.193 232.676 169.158 232.782L39.789 239.501C37.4138 239.625 35.4844 237.82 35.4844 235.471V43.5362C35.4844 41.187 37.4138 39.3998 39.789 39.5419L41.5224 39.449L169.155 47.4377C171.19 47.5622 172.837 49.42 172.837 51.5871L172.84 228.665Z" fill="#97A6B7"/>
<path d="M175.389 228.576C175.389 230.744 173.742 232.587 171.707 232.692L42.3379 239.412C39.9627 239.536 38.0324 237.732 38.0324 235.382V43.448C38.0324 41.0978 39.9627 39.3106 42.3379 39.4537L171.707 47.3494C173.742 47.4739 175.389 49.3317 175.389 51.4998V228.576Z" fill="#D8DEE8"/>
<g style="mix-blend-mode:multiply">
<path d="M75.9005 57.4996C72.6846 61.6342 72.2257 69.4427 77.7378 72.6585C89.6809 80.0081 105.3 77.7118 116.783 69.9025C125.236 63.9853 121.635 53.0167 119.217 44.1456L93.7736 42.5934C91.5842 48.7131 79.9329 52.124 75.9005 57.4996Z" fill="#D8DEE8"/>
</g>
<path d="M169.303 220.895C169.303 222.815 167.84 224.439 166.033 224.524L48.897 230.004C46.8181 230.102 45.1284 228.508 45.1284 226.443V62.1507C45.1284 60.0867 46.8181 58.4982 48.897 58.6023L166.033 64.5046C167.84 64.5975 169.303 66.2249 169.303 68.144V220.895Z" fill="white"/>
<path d="M137.189 59.2794C137.014 58.2716 136.23 57.56 135.232 57.5061L129.068 57.1754C126.281 57.0259 124.267 54.7027 124.399 51.7878L124.705 45.0244C124.761 43.774 123.897 42.7708 122.698 42.6965L120.708 42.573C119.194 42.4801 118.159 41.1229 118.397 39.5447C118.82 36.758 116.984 34.3428 114.29 34.1635C111.595 33.9842 109.045 36.1142 108.623 38.9205C108.501 39.695 108.103 40.3991 107.501 40.9018C106.92 41.4011 106.169 41.6587 105.404 41.6218L103.372 41.4954C102.144 41.4192 100.965 42.3082 100.64 43.5604L98.8752 50.3414C98.1126 53.2712 95.3454 55.3724 92.4472 55.2164L85.9615 54.868C84.9025 54.8114 83.8566 55.4458 83.3606 56.4472L78.7058 65.7874L79.1061 66.2983L138.815 68.6206L137.189 59.2794ZM113.409 39.9757C112.617 39.9256 112.075 39.2187 112.201 38.3966C112.328 37.5745 113.069 36.9512 113.86 37.0032C114.652 37.0552 115.192 37.7612 115.068 38.5823C114.944 39.4035 114.2 40.0259 113.41 39.9757H113.409Z" fill="url(#paint2_linear_4002_83)"/>
<path d="M137.59 59.7903C137.415 58.7834 136.629 58.0709 135.632 58.018L129.468 57.6864C126.681 57.5368 124.666 55.2145 124.799 52.2987L125.105 45.5353C125.162 44.2849 124.298 43.2826 123.098 43.2074L121.108 43.0839C119.595 42.991 118.558 41.6348 118.798 40.0565C119.219 37.2642 117.384 34.8546 114.69 34.6753C111.996 34.4961 109.444 36.6261 109.024 39.4314C108.901 40.2058 108.502 40.9098 107.901 41.4137C107.32 41.9127 106.569 42.17 105.804 42.1327L103.772 42.0063C102.544 41.9302 101.366 42.8191 101.04 44.0713L99.2747 50.8523C98.5111 53.7821 95.7448 55.8824 92.8466 55.7263L86.36 55.378C85.302 55.3213 84.2551 55.9567 83.7591 56.9572L79.1043 66.2974L139.213 69.1315L137.59 59.7903ZM113.809 40.4866C113.018 40.4365 112.476 39.7296 112.602 38.9075C112.727 38.0854 113.469 37.4621 114.262 37.5141C115.054 37.5661 115.592 38.2721 115.469 39.0933C115.347 39.9144 114.601 40.5368 113.809 40.4866Z" fill="#97A6B7"/>
<g style="mix-blend-mode:multiply" opacity="0.3">
<path d="M135.632 58.018L129.468 57.6864C128.6 57.6471 127.759 57.3742 127.033 56.8964C126.308 56.4187 125.725 55.7538 125.345 54.9721C119.633 56.1676 113.614 54.9191 107.596 56.1221C103.461 57.0408 103.921 63.4725 99.3285 63.9314C92.7398 64.8223 86.2197 64.8836 79.7694 64.9467L79.0987 66.2927L139.208 69.1268L137.59 59.7903C137.415 58.7834 136.629 58.0709 135.632 58.018Z" fill="#97A6B7"/>
</g>
<path d="M159.738 125.819L54.3999 123.573V115.408L159.738 118.196V125.819Z" fill="#D8DEE8"/>
<path d="M159.738 136.937L54.3999 135.48V132.418L159.738 134.079V136.937Z" fill="#D8DEE8"/>
<path d="M159.738 145.832L54.3999 145.006V141.944L159.738 142.973V145.832Z" fill="#D8DEE8"/>
<path d="M159.738 154.727L54.3999 154.532V151.47L159.738 151.868V154.727Z" fill="#D8DEE8"/>
<path d="M159.738 178.551L54.3999 180.048V171.883L159.738 170.927V178.551Z" fill="#D8DEE8"/>
<path d="M159.738 189.669L54.3999 191.956V188.893L159.738 186.811V189.669Z" fill="#D8DEE8"/>
<path d="M159.738 198.563L54.3999 201.482V198.42L159.738 195.705V198.563Z" fill="#D8DEE8"/>
<path d="M159.738 207.458L54.3999 211.008V207.945L159.738 204.599V207.458Z" fill="#D8DEE8"/>
<path d="M109.037 77.4554C99.8088 76.9492 92.2456 84.1167 92.2456 93.4708C92.2456 102.825 99.8088 110.656 109.037 110.964C118.155 111.265 125.468 104.09 125.468 94.9329C125.468 85.7757 118.159 77.9561 109.037 77.4554ZM117.667 97.8051L111.47 97.5469V103.778L105.275 103.544V97.2868L99.0777 97.0267V90.7454L105.275 91.0305V84.7743L111.47 85.0883V91.312L117.667 91.5963V97.8051Z" fill="#D8DEE8"/>
<path d="M38.4802 245.031V253.166C38.4802 255.793 54.8987 257.924 75.1517 257.924C95.4048 257.924 111.824 255.793 111.824 253.166V245.031H38.4802Z" fill="url(#paint3_linear_4002_83)"/>
<path d="M111.824 245.031C111.824 247.66 95.4057 249.79 75.1517 249.79C54.8978 249.79 38.4802 247.66 38.4802 245.031C38.4802 242.402 54.8996 240.272 75.1499 240.272C95.4002 240.272 111.824 242.403 111.824 245.031Z" fill="url(#paint4_linear_4002_83)"/>
<path d="M75.1499 250.119C57.2135 250.119 38.4579 248.405 38.4579 245.103C38.4579 244.922 38.5229 244.602 38.704 244.602C38.8852 244.602 38.8072 244.852 38.8072 245.033C38.8072 247.129 53.7329 249.464 75.1508 249.464C96.5688 249.464 111.495 247.129 111.495 245.033C111.495 244.852 111.525 244.682 111.707 244.682C111.889 244.682 111.845 244.923 111.845 245.105C111.842 248.408 93.089 250.119 75.1499 250.119Z" fill="url(#paint5_linear_4002_83)"/>
<path d="M71.6869 245.297C72.0464 245.048 72.43 244.802 72.8388 244.559C73.3375 244.279 73.8675 244.059 74.4179 243.902C75.2085 243.677 76.0163 243.517 76.8331 243.424C78.0358 243.288 79.2455 243.223 80.4558 243.229C81.8734 243.223 83.2048 243.268 84.4502 243.364C85.5519 243.442 86.6479 243.587 87.732 243.798C88.6739 243.992 89.444 244.23 90.0366 244.514C90.6293 244.797 90.9767 245.123 91.09 245.49L95.219 245.532C95.4846 245.53 95.7497 245.555 96.0105 245.605C96.2408 245.652 96.3532 245.711 96.3532 245.784V246.124L91.0445 246.072C90.8587 246.489 90.3844 246.869 89.6214 247.215C88.8585 247.561 87.8881 247.86 86.7102 248.113L84.7771 247.844C84.6304 247.824 84.486 247.789 84.3461 247.741C84.2346 247.7 84.1798 247.655 84.1798 247.607C84.1798 247.542 84.3294 247.468 84.6285 247.384C84.9276 247.3 85.2651 247.196 85.641 247.072C86.0184 246.948 86.3881 246.801 86.7483 246.633C87.1087 246.465 87.3502 246.262 87.4756 246.031L74.9455 245.906C74.5903 246.165 74.221 246.403 73.8392 246.62C73.3248 246.896 72.7789 247.107 72.2136 247.251C71.386 247.467 70.5432 247.619 69.6925 247.707C68.4294 247.837 67.1602 247.899 65.8905 247.893C64.7424 247.899 63.6249 247.855 62.5297 247.763C61.5492 247.687 60.5746 247.548 59.612 247.347C58.762 247.161 58.0663 246.934 57.5191 246.661C56.972 246.389 56.6711 246.077 56.6079 245.723L53.209 245.688C52.9396 245.689 52.6706 245.665 52.4055 245.617C52.1714 245.572 52.0516 245.512 52.0516 245.431V245.091L56.6961 245.136C56.9014 244.778 57.3222 244.465 57.966 244.2C58.731 243.897 59.5203 243.66 60.3254 243.49L61.8813 243.705C62.3541 243.771 62.5892 243.849 62.5901 243.938C62.5901 243.986 62.4972 244.046 62.2984 244.117C62.0996 244.189 61.8692 244.274 61.6008 244.373C61.3354 244.472 61.0769 244.588 60.827 244.722C60.6068 244.829 60.4133 244.984 60.2604 245.175L71.6869 245.297ZM60.2195 245.761C60.3124 245.985 60.5214 246.176 60.8372 246.338C61.2126 246.52 61.6096 246.654 62.0188 246.737C62.5436 246.848 63.0751 246.925 63.61 246.966C64.2021 247.014 64.8213 247.037 65.4678 247.035C66.1258 247.036 66.7834 247.003 67.4381 246.937C67.9341 246.886 68.4262 246.803 68.9113 246.687C69.2905 246.597 69.6613 246.475 70.0195 246.321C70.3132 246.193 70.5965 246.042 70.8667 245.869L60.2195 245.761ZM87.497 245.457C87.4041 245.232 87.1756 245.034 86.8217 244.864C86.3873 244.668 85.9315 244.524 85.4636 244.435C84.828 244.307 84.1847 244.221 83.538 244.177C82.8078 244.12 82.0028 244.094 81.1228 244.098C80.4455 244.097 79.7685 244.132 79.095 244.203C78.5982 244.257 78.1058 244.347 77.6217 244.471C77.2563 244.564 76.9016 244.695 76.5637 244.862C76.2831 245.004 76.0116 245.164 75.7509 245.34L87.497 245.457Z" fill="#FCB048"/>
<path d="M75.1573 240.788C58.8085 240.788 41.7797 242.226 39.057 245.012C39.1627 245.11 39.262 245.214 39.3543 245.325C41.6496 243.391 55.7078 241.444 75.1573 241.444C95.1048 241.444 109.389 243.493 111.119 245.474C111.206 245.365 111.299 245.261 111.398 245.163C109.148 242.28 91.7988 240.788 75.1573 240.788Z" fill="url(#paint6_linear_4002_83)"/>
<path d="M28.2854 236.487V244.621C28.2854 247.25 44.7039 249.38 64.9579 249.38C85.2119 249.38 101.629 247.25 101.629 244.621V236.487H28.2854Z" fill="url(#paint7_linear_4002_83)"/>
<path d="M101.629 236.487C101.629 239.116 85.2109 241.247 64.9579 241.247C44.7048 241.247 28.2854 239.116 28.2854 236.487C28.2854 233.858 44.7039 231.728 64.9579 231.728C85.2119 231.728 101.629 233.859 101.629 236.487Z" fill="url(#paint8_linear_4002_83)"/>
<path d="M64.9569 241.575C47.0206 241.575 28.2649 239.862 28.2649 236.559C28.2649 236.377 28.3299 236.059 28.5111 236.059C28.6922 236.059 28.6142 236.308 28.6142 236.489C28.6142 238.585 43.5409 240.92 64.9579 240.92C86.3749 240.92 101.302 238.585 101.302 236.489C101.302 236.308 101.333 236.138 101.514 236.138C101.695 236.138 101.652 236.38 101.652 236.561C101.651 239.865 82.8942 241.575 64.9569 241.575Z" fill="url(#paint9_linear_4002_83)"/>
<path d="M61.4949 236.753C61.8541 236.505 62.2383 236.259 62.6477 236.015C63.1465 235.735 63.6765 235.515 64.2268 235.358C65.0176 235.134 65.8253 234.974 66.642 234.881C67.8447 234.744 69.0544 234.679 70.2648 234.685C71.6823 234.679 73.0137 234.724 74.2591 234.821C75.3609 234.898 76.4569 235.044 77.5409 235.255C78.4835 235.447 79.2517 235.685 79.8456 235.97C80.4394 236.254 80.7906 236.579 80.8989 236.946L85.028 236.988C85.2935 236.986 85.5586 237.011 85.8194 237.061C86.0507 237.108 86.1622 237.168 86.1622 237.239V237.579L80.8534 237.528C80.6676 237.946 80.1933 238.327 79.4303 238.671C78.6674 239.015 77.6973 239.315 76.5201 239.569L74.5861 239.301C74.441 239.281 74.2982 239.247 74.1597 239.199C74.0482 239.159 73.9943 239.115 73.9934 239.067C73.9934 239 74.143 238.926 74.4421 238.843C74.7412 238.76 75.0787 238.656 75.4546 238.532C75.8321 238.407 76.2021 238.26 76.5628 238.093C76.922 237.925 77.1641 237.724 77.2892 237.489L64.76 237.365C64.4043 237.623 64.0347 237.862 63.6528 238.079C63.1384 238.355 62.5926 238.567 62.0272 238.711C61.1994 238.926 60.3567 239.078 59.5061 239.166C58.2433 239.295 56.9744 239.357 55.705 239.352C54.5559 239.357 53.4385 239.314 52.3433 239.222C51.3628 239.146 50.3882 239.007 49.4256 238.806C48.5765 238.62 47.8792 238.392 47.3336 238.121C46.7881 237.85 46.4843 237.537 46.4224 237.182L43.0226 237.147C42.7535 237.148 42.4848 237.125 42.22 237.077C41.985 237.031 41.8661 236.971 41.8651 236.896V236.556L46.5097 236.6C46.715 236.242 47.1358 235.93 47.7805 235.664C48.545 235.361 49.3341 235.123 50.139 234.954L51.6958 235.168C52.1686 235.234 52.4027 235.312 52.4036 235.401C52.4036 235.449 52.3108 235.509 52.112 235.58C51.9132 235.652 51.6828 235.737 51.4144 235.836C51.1491 235.936 50.8906 236.053 50.6406 236.186C50.4202 236.293 50.2265 236.448 50.0739 236.639L61.4949 236.753ZM50.0284 237.217C50.1213 237.44 50.3294 237.631 50.6452 237.793C51.0206 237.976 51.4176 238.11 51.8268 238.192C52.3515 238.304 52.8831 238.38 53.418 238.421C54.01 238.471 54.6293 238.493 55.2758 238.49C55.9338 238.491 56.5914 238.458 57.2461 238.392C57.7423 238.341 58.2348 238.258 58.7202 238.143C59.0989 238.052 59.4693 237.93 59.8275 237.777C60.1212 237.649 60.4045 237.497 60.6747 237.325L50.0284 237.217ZM77.305 236.913C77.2121 236.687 76.9836 236.489 76.6297 236.319C76.1954 236.123 75.7396 235.979 75.2716 235.891C74.636 235.763 73.9928 235.676 73.346 235.632C72.6158 235.576 71.8108 235.55 70.9308 235.553C70.2534 235.551 69.5765 235.586 68.903 235.658C68.4062 235.713 67.9139 235.802 67.4297 235.926C67.0642 236.019 66.7096 236.15 66.3717 236.318C66.0914 236.46 65.8202 236.619 65.5598 236.795L77.305 236.913Z" fill="#FCB048"/>
<path d="M64.9625 232.244C48.6137 232.244 31.5858 233.683 28.8622 236.467C28.9681 236.565 29.0674 236.67 29.1595 236.781C31.4557 234.847 45.5139 232.9 64.9625 232.9C84.91 232.9 99.1938 234.949 100.924 236.93C101.01 236.821 101.104 236.717 101.203 236.62C98.9495 233.736 81.604 232.244 64.9625 232.244Z" fill="url(#paint10_linear_4002_83)"/>
<path d="M37.0822 227.969V236.102C37.0822 238.731 53.5007 240.862 73.7537 240.862C94.0068 240.862 110.426 238.731 110.426 236.102V227.969H37.0822Z" fill="url(#paint11_linear_4002_83)"/>
<path d="M110.426 227.969C110.426 230.597 94.0077 232.728 73.7537 232.728C53.4997 232.728 37.0822 230.597 37.0822 227.969C37.0822 225.341 53.5007 223.21 73.7537 223.21C94.0068 223.21 110.426 225.34 110.426 227.969Z" fill="url(#paint12_linear_4002_83)"/>
<path d="M73.7565 233.056C55.8202 233.056 37.0645 231.343 37.0645 228.039C37.0645 227.854 37.1295 227.539 37.3107 227.539C37.4918 227.539 37.4138 227.788 37.4138 227.97C37.4138 230.065 52.3395 232.4 73.7575 232.4C95.1754 232.4 110.101 230.065 110.101 227.97C110.101 227.784 110.132 227.618 110.314 227.618C110.496 227.618 110.451 227.86 110.451 228.042C110.449 231.345 91.691 233.056 73.7565 233.056Z" fill="url(#paint13_linear_4002_83)"/>
<path d="M70.2889 228.234C70.6484 227.985 71.032 227.739 71.4407 227.497C71.9393 227.216 72.4694 226.996 73.0199 226.84C73.8105 226.615 74.6183 226.455 75.4351 226.362C76.6377 226.225 77.8474 226.16 79.0578 226.167C80.4753 226.159 81.8068 226.204 83.0521 226.301C84.1539 226.379 85.2499 226.524 86.334 226.736C87.2759 226.929 88.046 227.167 88.6386 227.451C89.2313 227.734 89.5787 228.061 89.692 228.427L93.821 228.469C94.0866 228.468 94.3516 228.492 94.6124 228.542C94.8437 228.589 94.9552 228.649 94.9552 228.721V229.061L89.6465 229.01C89.4607 229.426 88.9863 229.807 88.2234 230.153C87.4604 230.498 86.49 230.797 85.3122 231.05L83.3791 230.782C83.234 230.762 83.0912 230.728 82.9527 230.68C82.8413 230.64 82.7865 230.596 82.7865 230.548C82.7865 230.486 82.936 230.411 83.2351 230.325C83.5342 230.238 83.8717 230.134 84.2476 230.012C84.625 229.888 84.9948 229.742 85.3549 229.574C85.7153 229.406 85.9568 229.202 86.0822 228.97L73.5522 228.847C73.1969 229.105 72.8276 229.343 72.4458 229.56C71.9317 229.836 71.3858 230.048 70.8202 230.192C69.9926 230.407 69.1498 230.559 68.2992 230.647C67.036 230.776 65.7669 230.838 64.4971 230.833C63.349 230.838 62.2315 230.795 61.1363 230.702C60.1559 230.625 59.1814 230.487 58.2186 230.287C57.3687 230.101 56.6729 229.873 56.1258 229.601C55.5786 229.329 55.2777 229.016 55.2145 228.663L51.8156 228.627C51.5462 228.628 51.2773 228.605 51.0121 228.557C50.778 228.511 50.6582 228.451 50.6582 228.376V228.036L55.3028 228.08C55.508 227.722 55.9288 227.41 56.5726 227.144C57.3377 226.841 58.127 226.604 58.932 226.434L60.4879 226.648C60.9608 226.715 61.1958 226.792 61.1958 226.881C61.1958 226.929 61.1029 226.989 60.905 227.06C60.7072 227.132 60.4759 227.217 60.2074 227.317C59.942 227.416 59.6835 227.533 59.4336 227.666C59.2133 227.773 59.0196 227.928 58.867 228.119L70.2889 228.234ZM58.8215 228.698C58.9144 228.921 59.1234 229.113 59.4392 229.275C59.8146 229.457 60.2116 229.591 60.6208 229.673C61.1455 229.785 61.6771 229.862 62.212 229.903C62.8034 229.951 63.4227 229.974 64.0698 229.971C64.7278 229.972 65.3854 229.939 66.0401 229.873C66.536 229.822 67.0282 229.739 67.5133 229.624C67.8925 229.534 68.2633 229.412 68.6215 229.258C68.9152 229.13 69.1984 228.978 69.4687 228.806L58.8215 228.698ZM86.099 228.394C86.0061 228.169 85.7776 227.971 85.4236 227.8C84.9892 227.605 84.5334 227.461 84.0656 227.372C83.43 227.244 82.7868 227.157 82.1399 227.113C81.4098 227.057 80.6048 227.031 79.7248 227.035C79.0474 227.033 78.3705 227.068 77.697 227.14C77.2001 227.194 76.7077 227.283 76.2237 227.408C75.858 227.501 75.5031 227.632 75.1648 227.799C74.8843 227.941 74.6132 228.101 74.3529 228.277L86.099 228.394Z" fill="#FCB048"/>
<path d="M73.7565 223.725C57.4077 223.725 40.3798 225.164 37.6562 227.949C37.7623 228.047 37.8617 228.151 37.9535 228.262C40.2488 226.328 54.307 224.381 73.7565 224.381C93.704 224.381 107.988 226.425 109.718 228.412C109.803 228.303 109.895 228.199 109.992 228.101C107.745 225.217 90.4008 223.725 73.7565 223.725Z" fill="url(#paint14_linear_4002_83)"/>
<path d="M42.4197 219.425V227.559C42.4197 230.187 58.8382 232.318 79.0922 232.318C99.3462 232.318 115.764 230.187 115.764 227.559V219.425H42.4197Z" fill="url(#paint15_linear_4002_83)"/>
<path d="M79.0922 224.184C99.3454 224.184 115.764 222.053 115.764 219.425C115.764 216.797 99.3454 214.666 79.0922 214.666C58.839 214.666 42.4206 216.797 42.4206 219.425C42.4206 222.053 58.839 224.184 79.0922 224.184Z" fill="url(#paint16_linear_4002_83)"/>
<path d="M79.0922 224.512C61.1549 224.512 42.4002 222.799 42.4002 219.496C42.4002 219.31 42.4652 218.996 42.6463 218.996C42.8275 218.996 42.7504 219.245 42.7504 219.427C42.7504 221.522 57.6761 223.858 79.094 223.858C100.512 223.858 115.438 221.522 115.438 219.427C115.438 219.241 115.468 219.075 115.65 219.075C115.831 219.075 115.787 219.317 115.787 219.499C115.785 222.801 97.0285 224.512 79.0922 224.512Z" fill="url(#paint17_linear_4002_83)"/>
<path d="M75.6264 219.688C75.9856 219.44 76.3699 219.194 76.7792 218.95C77.2779 218.67 77.8079 218.449 78.3584 218.293C79.149 218.068 79.9568 217.909 80.7735 217.816C81.9762 217.679 83.1859 217.614 84.3963 217.62C85.8138 217.613 87.1452 217.658 88.3906 217.755C89.4926 217.833 90.5889 217.979 91.6734 218.189C92.6153 218.383 93.3832 218.621 93.9771 218.905C94.571 219.188 94.9221 219.514 95.0305 219.881L99.1595 219.923C99.4254 219.921 99.6908 219.946 99.9518 219.996C100.182 220.042 100.294 220.102 100.295 220.174V220.514L94.9868 220.463C94.801 220.879 94.3267 221.26 93.5637 221.606C92.8008 221.951 91.8304 222.251 90.6525 222.504L88.7194 222.235C88.5741 222.215 88.4309 222.182 88.2921 222.134C88.1807 222.094 88.1268 222.049 88.1268 222.002C88.1268 221.935 88.276 221.861 88.5745 221.778C88.873 221.695 89.2105 221.591 89.587 221.466C89.9646 221.341 90.3346 221.195 90.6952 221.028C91.0557 220.859 91.2962 220.656 91.4216 220.424L78.8925 220.3C78.5371 220.558 78.1678 220.797 77.7861 221.014C77.2718 221.289 76.7259 221.501 76.1606 221.645C75.3329 221.86 74.4901 222.013 73.6395 222.101C72.3763 222.23 71.1072 222.292 69.8375 222.287C68.6893 222.292 67.5709 222.249 66.4757 222.157C65.4956 222.081 64.5213 221.942 63.5589 221.741C62.7087 221.555 62.0111 221.326 61.4661 221.055C60.9211 220.784 60.6174 220.471 60.5548 220.117L57.155 220.082C56.8859 220.083 56.6173 220.059 56.3524 220.011C56.1174 219.966 55.9985 219.906 55.9976 219.831V219.491L60.6421 219.534C60.8474 219.177 61.2692 218.864 61.9129 218.598C62.6776 218.295 63.4666 218.058 64.2714 217.889L65.8283 218.103C66.3011 218.169 66.5352 218.247 66.5361 218.336C66.5361 218.384 66.4432 218.444 66.2453 218.515C66.0475 218.587 65.8153 218.672 65.5468 218.771C65.2815 218.87 65.023 218.987 64.773 219.12C64.553 219.227 64.3595 219.382 64.2064 219.573L75.6264 219.688ZM64.1599 220.152C64.2528 220.375 64.4618 220.566 64.7777 220.728C65.1527 220.91 65.5495 221.044 65.9583 221.127C66.483 221.238 67.0146 221.315 67.5495 221.356C68.141 221.404 68.7602 221.427 69.4074 221.425C70.065 221.427 70.7222 221.396 71.3767 221.332C71.873 221.281 72.3655 221.198 72.8508 221.082C73.23 220.992 73.6007 220.869 73.959 220.716C74.2525 220.588 74.5355 220.436 74.8053 220.264L64.1599 220.152ZM91.4365 219.847C91.3436 219.622 91.116 219.424 90.7612 219.254C90.3268 219.058 89.871 218.914 89.4031 218.825C88.7677 218.698 88.1248 218.611 87.4784 218.566C86.7483 218.511 85.9414 218.485 85.0577 218.488C84.3806 218.486 83.704 218.521 83.0308 218.593C82.5336 218.647 82.041 218.737 81.5566 218.861C81.1913 218.954 80.8367 219.085 80.4986 219.252C80.2183 219.395 79.9472 219.554 79.6867 219.73L91.4365 219.847Z" fill="#FCB048"/>
<path d="M79.0968 215.181C62.748 215.181 45.7201 216.62 42.9966 219.405C43.1025 219.503 43.2021 219.608 43.2947 219.718C45.5901 217.785 59.6436 215.837 79.0968 215.837C99.0452 215.837 113.328 217.886 115.059 219.868C115.144 219.759 115.235 219.655 115.333 219.558C113.084 216.673 95.7383 215.181 79.0968 215.181Z" fill="url(#paint18_linear_4002_83)"/>
<path d="M38.4802 210.207V218.342C38.4802 220.97 54.8987 223.1 75.1517 223.1C95.4048 223.1 111.824 220.97 111.824 218.342V210.207H38.4802Z" fill="url(#paint19_linear_4002_83)"/>
<path d="M111.824 210.207C111.824 212.836 95.4057 214.966 75.1517 214.966C54.8978 214.966 38.4802 212.836 38.4802 210.207C38.4802 207.578 54.8996 205.448 75.1499 205.448C95.4002 205.448 111.824 207.579 111.824 210.207Z" fill="url(#paint20_linear_4002_83)"/>
<path d="M75.1499 215.295C57.2135 215.295 38.4579 213.581 38.4579 210.279C38.4579 210.093 38.5229 209.778 38.704 209.778C38.8852 209.778 38.8072 210.028 38.8072 210.209C38.8072 212.305 53.7329 214.64 75.1508 214.64C96.5688 214.64 111.495 212.305 111.495 210.209C111.495 210.023 111.525 209.858 111.707 209.858C111.889 209.858 111.845 210.099 111.845 210.281C111.842 213.584 93.089 215.295 75.1499 215.295Z" fill="url(#paint21_linear_4002_83)"/>
<path d="M71.6869 210.473C72.0464 210.223 72.43 209.978 72.8388 209.735C73.3375 209.455 73.8675 209.235 74.4179 209.079C75.2085 208.853 76.0163 208.693 76.8331 208.6C78.0358 208.464 79.2455 208.399 80.4558 208.405C81.8734 208.398 83.2048 208.443 84.4502 208.54C85.5519 208.618 86.6479 208.763 87.732 208.975C88.6739 209.168 89.444 209.406 90.0366 209.69C90.6293 209.974 90.9767 210.299 91.09 210.666L95.219 210.708C95.4846 210.706 95.7496 210.731 96.0105 210.78C96.2408 210.828 96.3532 210.887 96.3532 210.96V211.3L91.0445 211.248C90.8587 211.665 90.3844 212.045 89.6214 212.391C88.8585 212.737 87.8881 213.036 86.7102 213.289L84.7771 213.02C84.6319 213.001 84.4891 212.967 84.3508 212.919C84.2393 212.879 84.1845 212.834 84.1845 212.786C84.1845 212.724 84.334 212.65 84.6331 212.563C84.9323 212.476 85.2698 212.372 85.6457 212.251C86.023 212.126 86.3928 211.98 86.7529 211.812C87.1133 211.644 87.3549 211.441 87.4803 211.209L74.9502 211.085C74.5949 211.343 74.2256 211.582 73.8438 211.799C73.3294 212.074 72.7836 212.286 72.2182 212.43C71.3905 212.645 70.5478 212.798 69.6972 212.886C68.434 213.016 67.1649 213.078 65.8951 213.072C64.747 213.078 63.6295 213.034 62.5343 212.941C61.5539 212.865 60.5793 212.726 59.6166 212.526C58.7667 212.34 58.0709 212.112 57.5238 211.84C56.9767 211.568 56.6757 211.256 56.6125 210.902L53.2136 210.867C52.9442 210.868 52.6753 210.844 52.4101 210.796C52.176 210.751 52.0562 210.691 52.0562 210.61V210.27L56.7008 210.315C56.9061 209.956 57.3269 209.644 57.9706 209.379C58.7357 209.076 59.525 208.839 60.33 208.669L61.886 208.883C62.3588 208.949 62.5938 209.027 62.5947 209.117C62.5947 209.165 62.5018 209.224 62.303 209.296C62.1042 209.367 61.8739 209.452 61.6054 209.551C61.34 209.65 61.0815 209.767 60.8316 209.901C60.6113 210.007 60.4176 210.162 60.265 210.354L71.6869 210.473ZM60.2195 210.937C60.3124 211.16 60.5214 211.353 60.8372 211.514C61.2126 211.697 61.6096 211.83 62.0188 211.913C62.5436 212.024 63.0751 212.101 63.61 212.142C64.202 212.19 64.8213 212.213 65.4678 212.21C66.1257 212.212 66.7833 212.181 67.4381 212.117C67.9341 212.066 68.4262 211.982 68.9113 211.867C69.2905 211.777 69.6613 211.655 70.0195 211.501C70.3132 211.373 70.5965 211.221 70.8667 211.049L60.2195 210.937ZM87.497 210.634C87.4041 210.408 87.1756 210.21 86.8217 210.039C86.3871 209.844 85.9314 209.7 85.4636 209.611C84.828 209.483 84.1847 209.397 83.538 209.353C82.8078 209.296 82.0028 209.27 81.1228 209.275C80.4454 209.273 79.7685 209.308 79.095 209.38C78.5981 209.433 78.1057 209.523 77.6217 209.647C77.2563 209.74 76.9016 209.871 76.5637 210.038C76.2831 210.18 76.0116 210.34 75.7509 210.517L87.497 210.634Z" fill="#FCB048"/>
<path d="M75.1573 205.963C58.8085 205.963 41.7797 207.402 39.057 210.188C39.1627 210.286 39.262 210.39 39.3543 210.501C41.6496 208.567 55.7078 206.62 75.1573 206.62C95.1048 206.62 109.389 208.669 111.119 210.65C111.206 210.541 111.299 210.437 111.398 210.339C109.148 207.456 91.7988 205.963 75.1573 205.963Z" fill="url(#paint22_linear_4002_83)"/>
<path d="M28.2854 201.667V209.801C28.2854 212.429 44.7039 214.56 64.9579 214.56C85.2119 214.56 101.629 212.429 101.629 209.801V201.667H28.2854Z" fill="url(#paint23_linear_4002_83)"/>
<path d="M64.9579 206.422C85.211 206.422 101.629 204.291 101.629 201.663C101.629 199.035 85.211 196.904 64.9579 196.904C44.7047 196.904 28.2863 199.035 28.2863 201.663C28.2863 204.291 44.7047 206.422 64.9579 206.422Z" fill="url(#paint24_linear_4002_83)"/>
<path d="M64.9569 206.751C47.0206 206.751 28.2649 205.038 28.2649 201.735C28.2649 201.553 28.3299 201.234 28.5111 201.234C28.6922 201.234 28.6114 201.481 28.6114 201.667C28.6114 203.762 43.5381 206.098 64.9551 206.098C86.3721 206.098 101.299 203.762 101.299 201.667C101.299 201.486 101.33 201.316 101.511 201.316C101.693 201.316 101.649 201.558 101.649 201.739C101.651 205.04 82.8942 206.751 64.9569 206.751Z" fill="url(#paint25_linear_4002_83)"/>
<path d="M61.4949 201.929C61.8541 201.681 62.2383 201.435 62.6477 201.191C63.1465 200.911 63.6765 200.691 64.2268 200.534C65.0176 200.31 65.8253 200.15 66.642 200.057C67.8447 199.92 69.0544 199.855 70.2648 199.861C71.6823 199.854 73.0137 199.899 74.2591 199.997C75.3609 200.074 76.4569 200.22 77.5409 200.431C78.4835 200.624 79.2517 200.862 79.8456 201.146C80.4394 201.429 80.7906 201.755 80.8989 202.122L85.028 202.164C85.2935 202.162 85.5586 202.187 85.8194 202.237C86.0507 202.284 86.1622 202.344 86.1622 202.415V202.755L80.8534 202.704C80.6676 203.12 80.1933 203.501 79.4303 203.847C78.6674 204.192 77.6973 204.492 76.5201 204.745L74.5861 204.477C74.441 204.457 74.2982 204.423 74.1597 204.375C74.0482 204.335 73.9943 204.291 73.9934 204.243C73.9934 204.176 74.143 204.102 74.4421 204.019C74.7412 203.936 75.0787 203.832 75.4546 203.707C75.8321 203.582 76.2021 203.436 76.5628 203.269C76.922 203.101 77.1641 202.899 77.2892 202.665L64.76 202.541C64.4043 202.799 64.0347 203.038 63.6528 203.255C63.1384 203.531 62.5926 203.743 62.0272 203.887C61.1994 204.102 60.3567 204.254 59.5061 204.342C58.2433 204.471 56.9744 204.533 55.705 204.528C54.5559 204.533 53.4385 204.49 52.3433 204.398C51.3628 204.322 50.3882 204.183 49.4256 203.982C48.5765 203.796 47.8792 203.568 47.3336 203.297C46.7881 203.026 46.4843 202.713 46.4224 202.358L43.0226 202.323C42.7535 202.324 42.4848 202.301 42.22 202.253C41.985 202.207 41.8661 202.147 41.8651 202.072V201.732L46.5097 201.775C46.715 201.418 47.1358 201.106 47.7805 200.84C48.545 200.537 49.3341 200.299 50.139 200.13L51.6958 200.344C52.1686 200.41 52.4027 200.488 52.4036 200.577C52.4036 200.625 52.3108 200.685 52.112 200.756C51.9132 200.828 51.6828 200.913 51.4144 201.012C51.1489 201.111 50.8904 201.228 50.6406 201.361C50.4205 201.469 50.227 201.623 50.0739 201.814L61.4949 201.929ZM50.0284 202.393C50.1213 202.616 50.3294 202.807 50.6452 202.969C51.0206 203.152 51.4176 203.286 51.8268 203.369C52.3515 203.48 52.8831 203.556 53.418 203.597C54.01 203.647 54.6293 203.669 55.2758 203.666C55.9338 203.667 56.5914 203.634 57.2461 203.568C57.7424 203.518 58.2349 203.434 58.7202 203.318C59.0991 203.228 59.4696 203.106 59.8275 202.952C60.1214 202.824 60.4046 202.673 60.6747 202.501L50.0284 202.393ZM77.305 202.088C77.2121 201.863 76.9836 201.665 76.6297 201.495C76.1954 201.299 75.7396 201.155 75.2716 201.067C74.636 200.939 73.9928 200.852 73.346 200.807C72.6158 200.752 71.8108 200.726 70.9308 200.729C70.2534 200.727 69.5765 200.763 68.903 200.834C68.4062 200.888 67.9138 200.978 67.4297 201.102C67.0642 201.195 66.7096 201.326 66.3717 201.494C66.0914 201.636 65.8202 201.795 65.5598 201.971L77.305 202.088Z" fill="#FCB048"/>
<path d="M64.9625 197.42C48.6137 197.42 31.5858 198.859 28.8622 201.644C28.9681 201.742 29.0674 201.846 29.1595 201.957C31.4557 200.023 45.5139 198.077 64.9625 198.077C84.91 198.077 99.1938 200.125 100.924 202.106C101.01 201.997 101.104 201.893 101.203 201.796C98.9495 198.912 81.604 197.42 64.9625 197.42Z" fill="url(#paint26_linear_4002_83)"/>
<path d="M37.0822 193.145V201.278C37.0822 203.907 53.5007 206.037 73.7537 206.037C94.0068 206.037 110.426 203.907 110.426 201.278V193.145H37.0822Z" fill="url(#paint27_linear_4002_83)"/>
<path d="M73.7547 197.904C94.0078 197.904 110.426 195.773 110.426 193.145C110.426 190.517 94.0078 188.386 73.7547 188.386C53.5015 188.386 37.0831 190.517 37.0831 193.145C37.0831 195.773 53.5015 197.904 73.7547 197.904Z" fill="url(#paint28_linear_4002_83)"/>
<path d="M73.7565 198.23C55.8202 198.23 37.0645 196.517 37.0645 193.214C37.0645 193.033 37.1295 192.714 37.3107 192.714C37.4918 192.714 37.4138 192.963 37.4138 193.145C37.4138 195.241 52.3395 197.575 73.7575 197.575C95.1754 197.575 110.101 195.241 110.101 193.145C110.101 192.959 110.132 192.793 110.314 192.793C110.496 192.793 110.451 193.035 110.451 193.216C110.449 196.521 91.691 198.23 73.7565 198.23Z" fill="url(#paint29_linear_4002_83)"/>
<path d="M70.2889 193.41C70.6484 193.161 71.032 192.915 71.4407 192.673C71.9393 192.392 72.4694 192.172 73.0199 192.016C73.8105 191.791 74.6183 191.631 75.4351 191.538C76.6377 191.401 77.8474 191.336 79.0578 191.342C80.4753 191.336 81.8068 191.381 83.0521 191.478C84.1539 191.555 85.2499 191.7 86.334 191.912C87.2759 192.105 88.046 192.343 88.6386 192.627C89.2313 192.91 89.5787 193.237 89.692 193.603L93.821 193.645C94.0866 193.644 94.3516 193.668 94.6124 193.718C94.8437 193.765 94.9552 193.825 94.9552 193.896V194.236L89.6465 194.185C89.4607 194.602 88.9863 194.983 88.2234 195.329C87.4604 195.674 86.49 195.973 85.3122 196.226L83.3791 195.958C83.2341 195.938 83.0913 195.904 82.9527 195.856C82.8413 195.816 82.7865 195.772 82.7865 195.724C82.7865 195.659 82.936 195.583 83.2351 195.5C83.5342 195.416 83.8714 195.314 84.2476 195.189C84.625 195.064 84.9948 194.918 85.3549 194.75C85.7153 194.582 85.9568 194.379 86.0822 194.146L73.5522 194.023C73.1967 194.281 72.8274 194.519 72.4458 194.736C71.9317 195.012 71.3858 195.224 70.8202 195.368C69.9925 195.582 69.1497 195.735 68.2992 195.823C67.0361 195.953 65.7669 196.015 64.4971 196.009C63.349 196.014 62.2315 195.972 61.1363 195.879C60.1559 195.803 59.1813 195.664 58.2186 195.463C57.3687 195.277 56.6729 195.05 56.1258 194.778C55.5786 194.506 55.2777 194.193 55.2145 193.84L51.8156 193.804C51.5462 193.805 51.2773 193.782 51.0121 193.734C50.778 193.688 50.6582 193.628 50.6582 193.553V193.213L55.3028 193.257C55.508 192.899 55.9288 192.587 56.5726 192.321C57.3377 192.018 58.127 191.781 58.932 191.611L60.4879 191.825C60.9608 191.892 61.1958 191.969 61.1958 192.058C61.1958 192.106 61.1029 192.166 60.905 192.237C60.7072 192.309 60.4759 192.394 60.2074 192.494C59.942 192.593 59.6835 192.709 59.4336 192.843C59.2133 192.95 59.0196 193.105 58.867 193.296L70.2889 193.41ZM58.8215 193.874C58.9144 194.097 59.1234 194.289 59.4392 194.45C59.8144 194.633 60.2115 194.767 60.6208 194.849C61.1455 194.961 61.6771 195.037 62.212 195.078C62.8034 195.128 63.4227 195.15 64.0698 195.147C64.7278 195.148 65.3854 195.115 66.0401 195.049C66.536 194.998 67.0282 194.915 67.5133 194.8C67.8923 194.709 68.263 194.587 68.6215 194.434C68.9152 194.306 69.1984 194.154 69.4687 193.982L58.8215 193.874ZM86.099 193.57C86.0061 193.345 85.7776 193.146 85.4236 192.976C84.9894 192.78 84.5335 192.636 84.0656 192.548C83.43 192.42 82.7868 192.333 82.1399 192.289C81.4098 192.233 80.6048 192.207 79.7248 192.21C79.0474 192.208 78.3704 192.244 77.697 192.316C77.2001 192.37 76.7077 192.459 76.2237 192.584C75.858 192.677 75.5031 192.808 75.1648 192.975C74.8843 193.117 74.6132 193.277 74.3529 193.453L86.099 193.57Z" fill="#FCB048"/>
<path d="M73.7565 188.901C57.4077 188.901 40.3798 190.34 37.6562 193.124C37.7621 193.222 37.8614 193.327 37.9535 193.438C40.2488 191.504 54.307 189.557 73.7565 189.557C93.704 189.557 107.988 191.606 109.718 193.587C109.803 193.478 109.895 193.374 109.992 193.277C107.745 190.393 90.4008 188.901 73.7565 188.901Z" fill="url(#paint30_linear_4002_83)"/>
<path d="M32.5063 184.601V192.735C32.5063 195.363 48.9249 197.494 69.1789 197.494C89.4328 197.494 105.85 195.363 105.85 192.735V184.601H32.5063Z" fill="url(#paint31_linear_4002_83)"/>
<path d="M69.1788 189.36C89.432 189.36 105.85 187.229 105.85 184.601C105.85 181.973 89.432 179.842 69.1788 179.842C48.9257 179.842 32.5073 181.973 32.5073 184.601C32.5073 187.229 48.9257 189.36 69.1788 189.36Z" fill="url(#paint32_linear_4002_83)"/>
<path d="M69.1789 189.688C51.2416 189.688 32.4868 187.975 32.4868 184.672C32.4868 184.487 32.5519 184.172 32.733 184.172C32.9141 184.172 32.837 184.421 32.837 184.603C32.837 186.698 47.7628 189.034 69.1807 189.034C90.5986 189.034 105.523 186.698 105.523 184.603C105.523 184.417 105.555 184.251 105.736 184.251C105.917 184.251 105.874 184.493 105.874 184.675C105.872 187.977 87.1152 189.688 69.1789 189.688Z" fill="url(#paint33_linear_4002_83)"/>
<path d="M65.7131 184.866C66.0723 184.619 66.4565 184.373 66.8658 184.129C67.3645 183.848 67.8946 183.628 68.445 183.472C69.2357 183.247 70.0434 183.087 70.8602 182.994C72.0629 182.858 73.2726 182.793 74.4829 182.799C75.9004 182.791 77.2319 182.836 78.4772 182.933C79.5793 183.012 80.6756 183.157 81.76 183.368C82.7019 183.561 83.4698 183.8 84.0637 184.083C84.6576 184.367 85.0087 184.692 85.1171 185.06L89.2461 185.101C89.512 185.1 89.7774 185.124 90.0385 185.175C90.2689 185.221 90.3803 185.281 90.3803 185.353V185.693L85.0725 185.642C84.8867 186.058 84.4121 186.439 83.6485 186.785C82.8849 187.13 81.9148 187.43 80.7382 187.683L78.8052 187.414C78.6598 187.394 78.5166 187.361 78.3779 187.313C78.2664 187.272 78.2125 187.228 78.2125 187.179C78.2125 187.118 78.3618 187.043 78.6602 186.956C78.9587 186.87 79.2962 186.766 79.6728 186.644C80.0504 186.52 80.4205 186.374 80.7809 186.206C81.1414 186.038 81.382 185.834 81.5074 185.603L68.9782 185.479C68.6227 185.737 68.253 185.976 67.8709 186.193C67.3568 186.468 66.8113 186.68 66.2463 186.824C65.4182 187.039 64.5752 187.191 63.7243 187.28C62.4614 187.409 61.1926 187.471 59.9232 187.466C58.775 187.471 57.6566 187.427 56.5614 187.335C55.5813 187.259 54.607 187.12 53.6447 186.919C52.7944 186.734 52.0968 186.505 51.5518 186.234C51.0069 185.963 50.7031 185.65 50.6406 185.296L47.2407 185.26C46.9716 185.261 46.703 185.238 46.4382 185.19C46.2031 185.144 46.0842 185.085 46.0833 185.009V184.668L50.7279 184.712C50.9332 184.354 51.3549 184.042 51.9986 183.776C52.7634 183.473 53.5524 183.236 54.3571 183.066L55.914 183.281C56.3868 183.347 56.6209 183.425 56.6218 183.514C56.6218 183.562 56.5289 183.622 56.3311 183.693C56.1332 183.765 55.901 183.849 55.6325 183.949C55.3672 184.048 55.1087 184.165 54.8587 184.298C54.6387 184.405 54.4452 184.56 54.2921 184.751L65.7131 184.866ZM54.2466 185.331C54.3395 185.555 54.5485 185.746 54.8634 185.908C55.2388 186.09 55.6358 186.224 56.045 186.306C56.5697 186.418 57.1013 186.494 57.6362 186.536C58.2276 186.584 58.8469 186.607 59.494 186.604C60.1519 186.606 60.8095 186.575 61.4642 186.511C61.9605 186.459 62.453 186.376 62.9384 186.261C63.3175 186.17 63.6883 186.048 64.0466 185.895C64.3399 185.766 64.6228 185.615 64.8928 185.442L54.2466 185.331ZM81.5231 185.027C81.4303 184.801 81.2027 184.604 80.8478 184.434C80.4135 184.238 79.9577 184.094 79.4898 184.004C78.8544 183.877 78.2115 183.791 77.5651 183.746C76.8349 183.689 76.028 183.663 75.1443 183.668C74.467 183.666 73.79 183.701 73.1165 183.773C72.6197 183.827 72.1273 183.917 71.6432 184.041C71.2778 184.133 70.9232 184.264 70.5852 184.432C70.3049 184.574 70.0337 184.734 69.7733 184.91L81.5231 185.027Z" fill="#FCB048"/>
<path d="M69.1835 180.357C52.8346 180.357 35.8068 181.795 33.0832 184.581C33.1892 184.679 33.2888 184.784 33.3814 184.894C35.6767 182.96 49.7302 181.013 69.1835 181.013C89.1319 181.013 103.415 183.062 105.145 185.044C105.23 184.935 105.322 184.831 105.419 184.733C103.171 181.849 85.8249 180.357 69.1835 180.357Z" fill="url(#paint34_linear_4002_83)"/>
<path d="M116.282 190.334L109.653 195.049C107.511 196.573 115.292 211.186 127.032 227.69C138.771 244.194 150.024 256.339 152.166 254.814L158.794 250.1L116.282 190.334Z" fill="url(#paint35_linear_4002_83)"/>
<path d="M158.794 250.102C156.657 251.625 145.399 239.481 133.66 222.978C121.922 206.475 114.14 191.859 116.282 190.336C118.424 188.812 129.676 200.957 141.416 217.46C153.155 233.963 160.936 248.577 158.794 250.102Z" fill="url(#paint36_linear_4002_83)"/>
<path d="M133.393 223.167C122.995 208.551 113.52 192.274 116.208 190.358C116.356 190.253 116.654 190.12 116.759 190.265C116.864 190.41 116.616 190.495 116.467 190.6C114.76 191.815 121.508 205.33 133.923 222.784C146.338 240.237 156.894 251.049 158.603 249.834C158.751 249.729 158.908 249.655 159.013 249.803C159.118 249.951 158.896 250.056 158.747 250.162C156.058 252.077 143.789 237.784 133.393 223.167Z" fill="url(#paint37_linear_4002_83)"/>
<path d="M135.313 217.551C135.724 217.7 136.147 217.87 136.582 218.063C137.098 218.306 137.584 218.609 138.03 218.966C138.672 219.48 139.271 220.047 139.821 220.659C140.629 221.559 141.383 222.507 142.079 223.496C142.907 224.647 143.641 225.758 144.282 226.827C144.858 227.77 145.375 228.747 145.831 229.753C146.22 230.633 146.471 231.397 146.584 232.046C146.697 232.694 146.636 233.169 146.398 233.47L148.758 236.859C148.913 237.074 149.046 237.304 149.156 237.546C149.249 237.761 149.268 237.887 149.209 237.929L148.931 238.127L145.896 233.772C145.448 233.862 144.863 233.696 144.139 233.275C143.416 232.854 142.611 232.237 141.724 231.424L140.823 229.692C140.755 229.562 140.7 229.426 140.658 229.286C140.626 229.171 140.631 229.1 140.67 229.073C140.723 229.035 140.87 229.114 141.112 229.309C141.353 229.505 141.634 229.72 141.953 229.954C142.273 230.19 142.607 230.407 142.952 230.604C143.298 230.8 143.602 230.883 143.865 230.847L136.703 220.565C136.287 220.425 135.879 220.262 135.481 220.077C134.958 219.817 134.469 219.495 134.023 219.118C133.369 218.568 132.756 217.969 132.192 217.327C131.353 216.373 130.567 215.375 129.836 214.337C129.166 213.408 128.553 212.469 127.994 211.523C127.488 210.68 127.036 209.805 126.642 208.905C126.3 208.105 126.084 207.404 125.992 206.802C125.899 206.202 125.977 205.772 126.229 205.515L124.287 202.728C124.13 202.509 123.994 202.276 123.879 202.033C123.779 201.815 123.76 201.683 123.821 201.639L124.1 201.44L126.757 205.253C127.169 205.213 127.667 205.376 128.257 205.747C128.947 206.194 129.598 206.7 130.203 207.257L130.93 208.65C131.15 209.074 131.223 209.311 131.15 209.363C131.111 209.391 131.007 209.347 130.835 209.229C130.664 209.111 130.459 208.97 130.223 208.809C129.989 208.65 129.743 208.507 129.489 208.381C129.275 208.263 129.036 208.196 128.792 208.182L135.313 217.551ZM128.289 208.476C128.161 208.681 128.126 208.961 128.177 209.312C128.246 209.723 128.367 210.124 128.537 210.505C128.75 210.998 128.996 211.475 129.273 211.935C129.576 212.445 129.916 212.962 130.295 213.486C130.676 214.023 131.083 214.54 131.516 215.036C131.845 215.41 132.198 215.763 132.573 216.092C132.867 216.348 133.182 216.579 133.514 216.783C133.789 216.948 134.076 217.09 134.374 217.21L128.289 208.476ZM144.347 230.527C144.477 230.32 144.507 230.019 144.44 229.633C144.348 229.165 144.201 228.71 144.002 228.277C143.738 227.685 143.436 227.111 143.097 226.559C142.719 225.931 142.273 225.258 141.758 224.541C141.367 223.988 140.946 223.457 140.497 222.95C140.165 222.576 139.806 222.227 139.424 221.904C139.138 221.66 138.826 221.447 138.495 221.269C138.217 221.122 137.93 220.994 137.635 220.884L144.347 230.527Z" fill="#FCB048"/>
<path d="M140.999 217.763C131.524 204.438 120.481 191.399 116.632 190.794C116.614 190.937 116.586 191.078 116.55 191.217C119.455 191.967 129.191 202.295 140.464 218.143C152.027 234.399 158.636 247.225 158.025 249.783C158.163 249.79 158.3 249.804 158.436 249.827C159.483 246.322 150.645 231.324 140.999 217.763Z" fill="url(#paint38_linear_4002_83)"/>
<path d="M76.729 133.843C79.1814 133.127 82.4595 137.631 85.1821 141.376C89.2601 146.977 94.0235 153.521 92.7398 161.381C91.4774 169.112 84.8487 175.134 82.9593 174.272C81.3439 173.536 84.4455 168.336 82.0703 161.381C80.1502 155.768 76.9687 155.766 74.835 150.264C72.1867 143.435 73.7082 134.725 76.729 133.843Z" fill="url(#paint39_linear_4002_83)"/>
<path d="M77.9366 169.457C90.5698 172.522 98.892 177.445 103.752 180.931C106.386 182.818 107.602 183.996 108.259 185.711C112.002 195.489 92.7751 210.275 90.7259 211.823C89.8304 209.736 88.9353 207.65 88.0404 205.563C90.0274 194.657 93.3352 191.236 96.1034 190.219C96.8772 189.934 98.1767 189.629 98.1516 189.262C98.0922 188.396 90.7891 189.634 83.8102 187.077C76.8508 184.531 69.8588 178.088 71.1073 173.828C71.3414 173.051 72.2926 170.803 77.9366 169.457Z" fill="url(#paint40_linear_4002_83)"/>
<path d="M90.1899 240.931C90.1899 240.931 89.0139 241.35 89.0102 242.28C89.0065 243.21 90.1983 247.307 91.4988 248.763C92.7992 250.218 92.9135 248.046 92.8336 246.647C92.7537 245.249 92.4128 242.117 92.0905 241.512C91.7681 240.906 90.1899 240.931 90.1899 240.931Z" fill="url(#paint41_linear_4002_83)"/>
<path d="M93.966 183.754C96.2613 183.708 101.64 183.28 103.069 185.938C104.264 188.157 102.171 191.519 100.884 193.588C97.3844 199.211 93.9883 199.786 91.5944 203.24C90.6655 204.577 89.8295 206.445 89.5629 209.113C89.0545 207.929 88.5467 206.746 88.0395 205.562C90.0264 194.657 93.3343 191.236 96.1025 190.219C96.8762 189.934 98.1758 189.629 98.1507 189.262C98.0913 188.396 90.7881 189.634 83.8092 187.077C77.4657 184.755 71.1157 179.201 70.9847 175.01C81.0336 182.214 88.5941 183.859 93.966 183.754Z" fill="url(#paint42_linear_4002_83)"/>
<path d="M89.5109 236.978C89.5796 238.412 89.7013 239.61 89.8109 240.5C90.0543 242.469 90.2754 243.248 90.5828 243.957C90.8494 244.576 91.5117 245.924 91.8331 245.831C92.1545 245.738 91.8239 244.242 91.5721 240.087C91.5359 239.483 91.4244 237.563 91.4244 237.563L89.5109 236.978Z" fill="url(#paint43_linear_4002_83)"/>
<path d="M70.6549 170.277C77.9339 174.665 82.6592 179.659 85.407 183.025C88.6498 187.003 93.5814 193.058 95.3686 202.076C96.3207 206.885 95.8526 211.199 94.8763 219.633C94.1062 226.309 92.9559 232.936 91.4309 239.481L89.7524 240.154C88.2531 237.4 86.2913 233.04 85.589 227.464C84.4381 218.341 87.8509 215.442 86.2132 208.972C84.7939 203.368 80.6825 199.931 72.4589 193.058C65.7029 187.411 59.4727 184.061 57.1606 177.017C56.7677 175.821 56.4342 174.354 57.0742 173.011C58.4537 170.113 63.7327 169.103 70.6549 170.277Z" fill="url(#paint44_linear_4002_83)"/>
<path d="M64.8446 134.365C66.734 133.959 69.8412 134.04 72.8035 131.707C73.6952 131.004 76.8545 128.517 76.4708 124.957C76.1327 121.824 73.163 120.14 72.7988 119.941C70.6958 118.784 68.5992 119.041 66.2751 119.359C63.2608 119.771 62.2594 120.594 60.1647 121.159C54.9823 122.552 53.2304 119.64 48.0127 119.886C41.344 120.201 40.7672 125.125 35.1565 125.249C28.8576 125.386 27.6509 119.222 21.4319 118.178C12.8004 116.728 -0.259157 126.021 0.00372455 136.732C0.155137 142.92 4.76254 150.01 10.6463 152.138C14.0767 153.379 17.7775 152.985 18.8337 155.216C19.5861 156.803 17.8955 158.026 18.0553 160.789C18.2606 164.355 21.3306 166.857 21.8267 167.261C26.4276 171.012 36.745 169.119 43.7898 163.81C56.4946 154.239 54.5717 136.576 64.8446 134.365Z" fill="#121926"/>
<path d="M50.2551 133.094C55.1317 132.492 60.0374 132.158 64.9505 132.091C76.5386 131.934 78.1977 133.404 78.6222 134.492C79.4136 136.519 78.0583 137.536 78.8284 141.071C79.2929 143.185 78.8535 144.149 79.7434 146.421C80.61 148.634 79.9292 149.824 79.1637 155.015C78.1828 161.653 77.7304 165.027 79.5882 167.702C80.8785 169.56 82.323 169.719 82.1892 170.602C81.8966 172.484 75.3905 171.446 67.1538 175.061C64.7693 176.107 62.5743 177.395 60.7341 178.476C56.4249 181.006 55.6251 181.974 53.6317 183.12C47.3197 186.743 37.8402 187.095 32.8705 182.709C31.0173 181.076 29.6676 178.672 30.2751 177.793C31.1018 176.595 34.8017 179.315 38.1969 177.656C40.4458 176.557 40.0185 174.777 42.6194 172.683C45.748 170.162 47.9244 171.483 50.0507 169.842C53.3734 167.282 51.8612 161.154 50.9285 150.879C50.3971 144.966 50.1723 139.03 50.2551 133.094Z" fill="url(#paint45_linear_4002_83)"/>
<path d="M62.7954 130.706C61.2162 131.687 58.6599 132.968 58.3784 133.316C58.0969 133.665 66.119 135.038 71.1101 132.519C71.1101 132.519 71.8838 132.088 68.8751 131.487C68.2341 131.359 68.3596 130.112 68.445 128.822L67.8431 127.708C67.8431 127.708 64.3745 129.725 62.7954 130.706Z" fill="url(#paint46_linear_4002_83)"/>
<path d="M66.7804 126.945C66.7804 126.945 66.1599 129.576 68.4766 130.875C70.5509 132.039 74.0603 127.267 73.3998 125.494C73.1815 124.902 72.4003 124.143 71.5838 123.887C71.0097 123.707 68.8379 123.777 67.9072 125.606C67.6638 125.071 67.2272 124.79 66.9337 124.878C66.5621 124.989 66.5073 125.667 66.4943 125.82C66.4699 126.216 66.5699 126.609 66.7804 126.945Z" fill="url(#paint47_linear_4002_83)"/>
<g style="mix-blend-mode:multiply" opacity="0.3">
<path d="M70.3716 169.109C67.9852 170.099 67.6638 172.236 64.3634 173.448C61.2162 174.605 60.16 173.156 57.0203 174.116C52.3052 175.559 50.5021 180.109 49.7878 179.679C49.1376 179.286 49.7609 174.934 52.7919 172.113C56.2735 168.874 60.0226 170.358 62.2501 166.995C63.1158 165.686 63.7846 163.597 63.0285 161.988C62.0067 159.808 59.3287 160.564 57.9102 158.761C55.3631 155.522 61.324 149.68 59.6909 144.742C59.0407 142.771 56.9627 140.301 50.2662 138.648C50.3591 143.598 50.6378 147.734 50.9276 150.876C51.8565 161.15 53.3725 167.278 50.0498 169.839C47.9198 171.479 45.7433 170.158 42.6185 172.679C40.0175 174.775 40.4448 176.554 38.1959 177.653C34.8007 179.312 31.1009 176.592 30.2742 177.789C29.6667 178.669 31.0173 181.072 32.8695 182.706C37.8383 187.09 47.3188 186.741 53.6307 183.116C55.626 181.97 56.424 181.002 60.7332 178.472C62.5733 177.392 64.7684 176.103 67.1529 175.057C72.9335 172.522 77.8577 172.277 80.3843 171.706C75.3645 168.362 72.3093 168.306 70.3716 169.109Z" fill="url(#paint48_linear_4002_83)"/>
</g>
<path d="M91.0584 173.358L64.8473 174.635C64.6696 174.644 64.4967 174.695 64.3433 174.786C64.1899 174.876 64.0607 175.002 63.9667 175.153L63.2413 176.317C63.1598 176.448 63.1155 176.599 63.1133 176.753C63.111 176.908 63.1508 177.06 63.2284 177.194C63.3059 177.327 63.4184 177.437 63.5537 177.512C63.689 177.587 63.8421 177.623 63.9965 177.617L91.7607 176.559L91.0584 173.358Z" fill="url(#paint49_linear_4002_83)"/>
<path d="M118.321 158.761L91.2414 159.286C90.8476 159.294 90.4625 159.404 90.1239 159.605C89.7854 159.807 89.505 160.093 89.3102 160.435L79.9282 176.934L108.528 175.794C108.914 175.778 109.291 175.667 109.623 175.47C109.956 175.272 110.234 174.995 110.433 174.663L119.121 160.149C119.205 160.009 119.25 159.849 119.251 159.686C119.252 159.522 119.21 159.362 119.129 159.22C119.047 159.079 118.929 158.962 118.787 158.881C118.645 158.8 118.484 158.759 118.321 158.761Z" fill="url(#paint50_linear_4002_83)"/>
<path style="mix-blend-mode:multiply" opacity="0.3" d="M89.3102 160.435C89.5049 160.093 89.7853 159.807 90.1239 159.605C90.4625 159.404 90.8476 159.294 91.2414 159.286L91.835 159.275C91.9279 160.149 92.1917 160.947 92.7268 161.597C94.3988 163.612 97.1707 162.369 99.2384 164.502C101.51 166.846 99.4112 169.634 101.442 171.815C103.578 174.111 107.036 172.242 111.01 173.71L110.437 174.666C110.239 174.998 109.961 175.275 109.628 175.472C109.295 175.67 108.919 175.781 108.532 175.797L79.9329 176.936L89.3102 160.435Z" fill="url(#paint51_linear_4002_83)"/>
<path d="M68.0902 172.482C68.4314 171.581 68.772 170.68 69.112 169.779C65.3406 168.745 60.1266 167.218 54.777 165.306C53.4552 164.834 52.9721 164.224 52.6182 163.755C49.8761 160.118 56.855 153.701 56.7296 145.377C56.6432 139.605 53.144 133.003 50.0618 132.929C43.7945 132.777 29.9778 159.367 41.6152 170.716C47.3921 176.349 58.1833 177.003 68.0902 172.482Z" fill="url(#paint52_linear_4002_83)"/>
<path d="M69.112 169.779C71.4788 168.522 74.3139 169.811 74.4996 169.897C75.2629 170.259 75.955 170.755 76.5433 171.361C76.6296 171.479 77.6579 172.902 77.2864 173.358C76.9863 173.723 75.8252 173.42 74.43 172.553C73.6019 172.435 72.7631 172.415 71.9303 172.491C70.0149 172.668 69.137 173.273 68.4413 172.751C67.9322 172.368 67.7585 171.56 67.9415 170.959C68.1292 170.312 68.7116 169.991 69.112 169.779Z" fill="url(#paint53_linear_4002_83)"/>
<path d="M194.913 116.22C193.004 116.281 191.119 115.793 189.479 114.814C184.521 111.842 177.194 106.933 170.601 100.509C162.241 92.3543 157.431 84.0674 156.379 75.9265L156.363 75.7992L156.158 41.0681C156.158 34.2044 160.636 28.6337 169.041 24.9719C175.985 21.9474 185.189 20.4491 194.913 20.7305C204.523 21.0092 213.416 22.9915 219.993 26.2956C227.817 30.2231 231.923 35.7427 231.923 42.2869L231.737 75.4722L231.723 75.5939C230.762 83.3884 226.335 91.4449 218.525 99.5914C212.255 106.126 205.172 111.304 200.307 114.513C198.702 115.572 196.834 116.163 194.913 116.22Z" fill="url(#paint54_linear_4002_83)"/>
<path d="M233.344 42.2841L233.158 75.4694L233.141 75.5902C232.193 83.3847 227.829 91.443 220.116 99.5896C214.249 105.789 207.658 110.769 202.897 114.002L202.14 114.51C200.562 115.569 198.716 116.162 196.815 116.219C194.931 116.278 193.071 115.79 191.459 114.813C186.564 111.841 179.334 106.934 172.831 100.508C164.576 92.3552 159.831 84.0665 158.795 75.9246L158.778 75.7983L158.579 41.069C158.579 34.2044 162.995 28.6337 171.288 24.9719C176.701 22.5846 183.501 21.1467 190.846 20.7918C192.802 20.6989 194.801 20.6748 196.821 20.7333C206.304 21.012 215.08 22.9971 221.572 26.3003C229.295 30.2203 233.344 35.7417 233.344 42.2841Z" fill="url(#paint55_linear_4002_83)"/>
<path d="M160.871 41.0913L161.073 75.6469C163.348 93.2776 184.068 107.551 193.093 112.975C195.678 114.528 198.983 114.436 201.546 112.748C210.382 106.933 229.971 92.2957 232.06 75.344L232.246 42.2506C232.249 17.6986 160.871 15.4534 160.871 41.0913Z" fill="url(#paint56_linear_4002_83)"/>
<path d="M197.332 107.649C197.097 107.654 196.865 107.593 196.664 107.471C192.948 105.222 185.744 100.505 179.479 94.3533C172.71 87.7051 168.807 81.2408 167.911 75.1703L167.713 41.187C167.721 37.9265 170.302 35.1361 175.362 32.903C181.01 30.4107 189.031 29.1028 197.332 29.2997C205.551 29.4948 213.338 31.1492 218.732 33.8263C223.505 36.1941 225.917 38.9855 225.924 42.1336L225.739 74.939C224.903 80.8144 221.239 87.1477 214.806 93.8052C208.758 100.065 201.692 105.027 197.999 107.44C197.801 107.57 197.569 107.643 197.332 107.649Z" fill="url(#paint57_linear_4002_83)"/>
<path d="M196.484 105.326C192.732 103.014 186.059 98.552 180.237 92.8224C173.877 86.5625 170.195 80.5552 169.33 74.9976L169.133 41.2121C169.139 38.8805 171.282 36.7422 175.486 34.8806C180.837 32.5119 188.502 31.2635 196.48 31.4437C204.385 31.6211 211.836 33.1817 216.957 35.7167C220.935 37.685 222.947 39.8317 222.953 42.1057L222.767 74.7913C221.955 80.179 218.483 86.0823 212.411 92.3543C206.777 98.1758 200.22 102.858 196.484 105.326Z" fill="url(#paint58_linear_4002_83)"/>
<path d="M202.133 46.911H189.74V82.4586H202.133V46.911Z" fill="white"/>
<path d="M211.265 57.6733H180.609V69.0878H211.265V57.6733Z" fill="white"/>
<g style="mix-blend-mode:soft-light" opacity="0.2">
<path d="M202.902 114.002L202.146 114.51C200.567 115.569 198.721 116.162 196.821 116.219C194.935 116.279 193.073 115.791 191.459 114.813C186.564 111.841 179.334 106.934 172.831 100.508C164.576 92.3552 159.831 84.0665 158.795 75.9246L158.778 75.7983L158.579 41.0691C158.579 34.2044 162.995 28.6337 171.288 24.9719C176.701 22.5846 183.501 21.1467 190.846 20.7918C191.273 21.4319 191.733 22.1295 192.206 22.8763C193.389 24.7481 194.674 26.9236 195.894 29.2914C196.26 29.9983 196.621 30.7228 196.97 31.4632C200.251 38.3799 202.654 46.5004 200.61 53.222C196.901 65.4056 189.035 87.5685 196.925 105.039C197.28 105.832 197.67 106.614 198.095 107.384C199.122 109.255 200.33 111.02 201.702 112.655C202.087 113.104 202.485 113.555 202.902 114.002Z" fill="white"/>
</g>
<path d="M206.34 219.111C204.018 216.253 199.838 212.467 192.964 210.328C194.729 203.858 197.102 197.788 198.625 194.43L194.468 192.545C194.33 192.845 191.112 199.993 188.685 208.671C188.627 208.87 188.571 209.072 188.519 209.271C182.63 208.283 176.208 208.75 169.383 210.671C158.445 213.743 150.433 211.811 145.561 204.918C141.746 199.53 140.112 191.397 140.954 182.028C141.749 173.203 144.786 164.299 149.08 158.204L145.35 155.576C140.542 162.398 137.281 171.891 136.408 181.62C135.468 192.065 137.395 201.278 141.834 207.556C145.013 212.047 150.597 216.648 160.133 216.645C163.199 216.645 166.678 216.169 170.615 215.066C174.349 214.017 177.724 213.487 180.754 213.351C182.984 213.241 185.219 213.355 187.427 213.691C185.346 223.187 185.65 230.271 188.333 234.777C190.365 238.188 193.635 240.08 198.058 240.4C198.557 240.435 199.033 240.452 199.493 240.452C205.842 240.452 208.536 237.186 209.6 235.146C211.916 230.694 210.638 224.4 206.34 219.111ZM205.547 233.039C204.171 235.687 200.894 236.03 198.382 235.847C195.502 235.642 193.497 234.53 192.258 232.449C189.913 228.512 190.367 221.697 191.873 214.757C192.857 215.079 193.821 215.46 194.759 215.898H194.769C199.103 217.92 201.676 220.61 202.794 221.987C205.896 225.805 207.001 230.244 205.547 233.039Z" fill="url(#paint59_linear_4002_83)"/>
<path d="M201.632 179.718L201.695 179.466L199.603 179.084L197.58 178.453L197.519 178.704L191.017 177.518C191.017 177.518 190.533 190.887 192.148 194.009L192.993 194.217L193.689 194.389L197.8 195.401L198.45 195.56L199.221 195.746C202.101 193.73 207.913 181.674 207.913 181.674L201.632 179.718Z" fill="url(#paint60_linear_4002_83)"/>
<path d="M236.331 113.977C235.93 113.739 235.527 113.498 235.112 113.248L232.267 111.531L230.082 115.153L232.931 116.873C233.355 117.128 233.774 117.376 234.184 117.616C239.454 120.74 240.663 121.876 239.479 125.031L227.509 155.596C226.335 158.594 224.002 161.005 221.117 162.428C217.184 164.367 213.364 164.901 208.739 163.762L198.464 161.231C194.248 160.193 190.799 157.869 188.217 154.324C186.324 151.73 185.471 148.521 185.826 145.329L189.421 112.7C189.841 109.356 191.439 108.914 197.557 108.595C198.034 108.57 198.52 108.545 199.013 108.515L202.335 108.317L202.081 104.091L198.76 104.29C198.278 104.319 197.802 104.344 197.337 104.368C192.082 104.647 186.127 104.952 185.217 112.205L181.618 144.866C181.162 149.115 182.31 153.381 184.838 156.827C187.874 160.994 191.914 163.845 197.024 165.225V165.236L208.328 168.022V168.011C212.98 169.033 218.408 168.518 223.032 166.238C226.867 164.357 229.861 161.11 231.424 157.135L243.419 126.543C245.985 119.696 240.857 116.656 236.331 113.977Z" fill="white"/>
<path d="M208.86 104.084C208.902 103.865 208.891 103.639 208.828 103.425C208.765 103.211 208.653 103.015 208.499 102.854C208.346 102.692 208.156 102.569 207.946 102.495C207.735 102.422 207.51 102.399 207.289 102.429L201.677 103.202C201.435 103.235 201.214 103.355 201.053 103.539C200.893 103.723 200.804 103.958 200.804 104.203C200.804 105.418 200.912 107.563 200.968 108.632C200.979 108.823 201.043 109.008 201.155 109.164C201.266 109.32 201.42 109.441 201.598 109.513L205.793 111.219C205.986 111.297 206.193 111.332 206.401 111.32C206.609 111.309 206.811 111.251 206.994 111.152C207.177 111.052 207.335 110.914 207.458 110.746C207.58 110.578 207.664 110.384 207.703 110.18L208.86 104.084Z" fill="url(#paint61_linear_4002_83)"/>
<path d="M226.249 108.367C226.314 108.153 226.429 107.959 226.584 107.798C226.739 107.638 226.93 107.517 227.141 107.445C227.352 107.373 227.577 107.353 227.797 107.385C228.018 107.417 228.228 107.502 228.409 107.631L233.022 110.919C233.221 111.06 233.362 111.269 233.419 111.506C233.476 111.744 233.445 111.994 233.332 112.21C232.767 113.286 231.675 115.137 231.129 116.055C231.031 116.22 230.888 116.353 230.716 116.44C230.545 116.526 230.353 116.563 230.162 116.544L225.654 116.107C225.447 116.086 225.247 116.02 225.069 115.913C224.891 115.807 224.738 115.662 224.623 115.489C224.507 115.316 224.432 115.12 224.401 114.914C224.371 114.709 224.386 114.499 224.446 114.3L226.249 108.367Z" fill="url(#paint62_linear_4002_83)"/>
<path d="M232.693 158.547C232.786 158.208 232.823 157.863 232.646 157.557C232.555 157.405 232.435 157.273 232.292 157.167C232.15 157.062 231.988 156.985 231.816 156.942L227.097 155.777C226.426 155.61 225.678 156.002 225.475 156.662C224.066 161.238 218.485 177.686 206.132 174.425L195.853 171.963C183.904 169.019 186.219 151.95 187.096 147.244C187.16 146.915 187.096 146.574 186.919 146.291C186.741 146.007 186.462 145.801 186.138 145.716L181.449 144.551C181.28 144.509 181.105 144.501 180.933 144.528C180.761 144.555 180.596 144.616 180.449 144.708C180.304 144.802 180.18 144.925 180.084 145.068C179.988 145.212 179.922 145.374 179.891 145.544C177.697 156.008 177.822 174.619 193.656 178.918L193.609 179.103L204.912 181.89L204.959 181.704C220.978 185.255 229.777 168.836 232.693 158.547Z" fill="url(#paint63_linear_4002_83)"/>
<path d="M140.452 162.325C140.452 162.325 138.065 167.006 138.873 167.577C139.681 168.147 143.552 169.656 144.327 168.677C145.102 167.699 146.649 163.948 146.649 163.948L140.452 162.325Z" fill="url(#paint64_linear_4002_83)"/>
<path d="M161.241 149.077C161.241 154.106 158.873 158.692 155.191 161.562C152.732 163.483 149.689 164.641 146.366 164.967H146.353C146.086 164.967 145.815 164.913 145.545 164.913C136.876 164.913 129.852 157.849 129.852 149.184C129.85 145.694 131.011 142.303 133.151 139.546C135.291 136.789 138.288 134.823 141.669 133.958C142.908 133.639 144.21 133.394 145.547 133.394C145.818 133.394 146.089 133.334 146.356 133.334H146.369C154.653 133.986 161.241 140.683 161.241 149.077Z" fill="url(#paint65_linear_4002_83)"/>
<path d="M162.871 149.147C162.872 151.856 162.171 154.518 160.837 156.876C159.503 159.233 157.582 161.205 155.259 162.599C152.898 164.022 150.135 164.913 147.178 164.913C146.907 164.913 146.636 164.967 146.369 164.967H146.356C138.07 164.317 131.485 157.612 131.485 149.22C131.485 142.552 135.643 136.751 141.507 134.478C143.023 133.891 144.654 133.66 146.356 133.334H146.369C146.636 133.334 146.907 133.384 147.178 133.384C155.843 133.384 162.871 140.479 162.871 149.147Z" fill="url(#paint66_linear_4002_83)"/>
<path d="M147.178 161.331C153.907 161.331 159.361 155.876 159.361 149.147C159.361 142.418 153.907 136.963 147.178 136.963C140.449 136.963 134.994 142.418 134.994 149.147C134.994 155.876 140.449 161.331 147.178 161.331Z" fill="white"/>
<path d="M147.178 158.992C152.615 158.992 157.022 154.584 157.022 149.147C157.022 143.71 152.615 139.302 147.178 139.302C141.741 139.302 137.333 143.71 137.333 149.147C137.333 154.584 141.741 158.992 147.178 158.992Z" fill="url(#paint67_linear_4002_83)"/>
<path d="M147.178 150.941C148.168 150.941 148.971 150.138 148.971 149.147C148.971 148.156 148.168 147.353 147.178 147.353C146.187 147.353 145.384 148.156 145.384 149.147C145.384 150.138 146.187 150.941 147.178 150.941Z" fill="white"/>
<path style="mix-blend-mode:multiply" opacity="0.3" d="M155.259 162.6C152.898 164.022 150.135 164.913 147.178 164.913C146.907 164.913 146.636 164.967 146.369 164.967H146.356C146.089 164.967 145.818 164.913 145.547 164.913C136.879 164.913 129.854 157.849 129.854 149.184C129.853 145.695 131.013 142.304 133.153 139.547C135.292 136.79 138.289 134.824 141.669 133.958C141.611 134.144 141.559 134.322 141.507 134.52C141.133 135.89 140.924 137.3 140.883 138.719C140.856 139.62 140.93 140.522 141.102 141.407C141.509 143.451 142.521 145.456 144.572 147.032C144.983 147.345 145.391 147.668 145.798 148C146.722 148.743 147.635 149.529 148.505 150.351C150.527 152.256 152.337 154.359 153.573 156.626C153.964 157.333 154.295 158.072 154.564 158.834C154.879 159.704 155.089 160.608 155.19 161.528C155.233 161.883 155.256 162.241 155.259 162.6Z" fill="url(#paint68_linear_4002_83)"/>
<path style="mix-blend-mode:multiply" opacity="0.4" d="M192.963 210.329L191.873 214.756L194.768 215.901C194.768 215.901 195.04 214.044 194.469 213.579C193.897 213.115 192.85 210.736 192.963 210.329Z" fill="url(#paint69_linear_4002_83)"/>
<path style="mix-blend-mode:multiply" opacity="0.4" d="M188.517 209.271L187.425 213.691C185.217 213.355 182.982 213.241 180.752 213.351C182.044 211.679 185.188 211.688 185.256 210.664C185.337 209.445 188.517 209.271 188.517 209.271Z" fill="url(#paint70_linear_4002_83)"/>
</g>
<defs>
<linearGradient id="paint0_linear_4002_83" x1="176.174" y1="91.1513" x2="218.241" y2="267.737" gradientUnits="userSpaceOnUse">
<stop stop-color="#FCB148"/>
<stop offset="0.05" stop-color="#FDBA46"/>
<stop offset="0.14" stop-color="#FFC244"/>
<stop offset="0.32" stop-color="#FFC444"/>
<stop offset="0.48" stop-color="#FDB946"/>
<stop offset="0.78" stop-color="#F99C4D"/>
<stop offset="0.87" stop-color="#F8924F"/>
<stop offset="1" stop-color="#F8924F"/>
</linearGradient>
<linearGradient id="paint1_linear_4002_83" x1="164.695" y1="113.364" x2="295.056" y2="172.753" gradientUnits="userSpaceOnUse">
<stop stop-color="#007CD6"/>
<stop offset="1" stop-color="#03C2EC"/>
</linearGradient>
<linearGradient id="paint2_linear_4002_83" x1="78.6974" y1="51.3818" x2="138.806" y2="51.3818" gradientUnits="userSpaceOnUse">
<stop stop-color="#444B8C"/>
<stop offset="1" stop-color="#26264F"/>
</linearGradient>
<linearGradient id="paint3_linear_4002_83" x1="32.21" y1="251.478" x2="116.588" y2="251.478" gradientUnits="userSpaceOnUse">
<stop stop-color="#FCB148"/>
<stop offset="0.05" stop-color="#FDBA46"/>
<stop offset="0.14" stop-color="#FFC244"/>
<stop offset="0.32" stop-color="#FFC444"/>
<stop offset="0.48" stop-color="#FDB946"/>
<stop offset="0.78" stop-color="#F99C4D"/>
<stop offset="0.87" stop-color="#F8924F"/>
<stop offset="1" stop-color="#F8924F"/>
</linearGradient>
<linearGradient id="paint4_linear_4002_83" x1="74.7867" y1="241.973" x2="79.2352" y2="279.211" gradientUnits="userSpaceOnUse">
<stop stop-color="#FFDB44"/>
<stop offset="1" stop-color="#FEEF06"/>
</linearGradient>
<linearGradient id="paint5_linear_4002_83" x1="74.5935" y1="240.312" x2="75.959" y2="251.749" gradientUnits="userSpaceOnUse">
<stop stop-color="#FFDB44"/>
<stop offset="1" stop-color="#FEEF06"/>
</linearGradient>
<linearGradient id="paint6_linear_4002_83" x1="75.8772" y1="250.55" x2="74.5164" y2="239.154" gradientUnits="userSpaceOnUse">
<stop stop-color="#F36F56"/>
<stop offset="0.31" stop-color="#F99C4C"/>
<stop offset="0.55" stop-color="#FDB946"/>
<stop offset="0.68" stop-color="#FFC444"/>
<stop offset="0.8" stop-color="#FFC244"/>
<stop offset="0.87" stop-color="#FEBA46"/>
<stop offset="0.92" stop-color="#FCAD49"/>
<stop offset="0.96" stop-color="#F99A4D"/>
<stop offset="1" stop-color="#F57E53"/>
</linearGradient>
<linearGradient id="paint7_linear_4002_83" x1="22.0152" y1="242.934" x2="106.393" y2="242.934" gradientUnits="userSpaceOnUse">
<stop stop-color="#FCB148"/>
<stop offset="0.05" stop-color="#FDBA46"/>
<stop offset="0.14" stop-color="#FFC244"/>
<stop offset="0.32" stop-color="#FFC444"/>
<stop offset="0.48" stop-color="#FDB946"/>
<stop offset="0.78" stop-color="#F99C4D"/>
<stop offset="0.87" stop-color="#F8924F"/>
<stop offset="1" stop-color="#F8924F"/>
</linearGradient>
<linearGradient id="paint8_linear_4002_83" x1="64.5919" y1="233.429" x2="69.0404" y2="270.668" gradientUnits="userSpaceOnUse">
<stop stop-color="#FFDB44"/>
<stop offset="1" stop-color="#FEEF06"/>
</linearGradient>
<linearGradient id="paint9_linear_4002_83" x1="64.3987" y1="231.768" x2="65.7651" y2="243.205" gradientUnits="userSpaceOnUse">
<stop stop-color="#FFDB44"/>
<stop offset="1" stop-color="#FEEF06"/>
</linearGradient>
<linearGradient id="paint10_linear_4002_83" x1="65.6833" y1="242.007" x2="64.3215" y2="230.61" gradientUnits="userSpaceOnUse">
<stop stop-color="#F36F56"/>
<stop offset="0.31" stop-color="#F99C4C"/>
<stop offset="0.55" stop-color="#FDB946"/>
<stop offset="0.68" stop-color="#FFC444"/>
<stop offset="0.8" stop-color="#FFC244"/>
<stop offset="0.87" stop-color="#FEBA46"/>
<stop offset="0.92" stop-color="#FCAD49"/>
<stop offset="0.96" stop-color="#F99A4D"/>
<stop offset="1" stop-color="#F57E53"/>
</linearGradient>
<linearGradient id="paint11_linear_4002_83" x1="30.812" y1="234.416" x2="115.19" y2="234.416" gradientUnits="userSpaceOnUse">
<stop stop-color="#FCB148"/>
<stop offset="0.05" stop-color="#FDBA46"/>
<stop offset="0.14" stop-color="#FFC244"/>
<stop offset="0.32" stop-color="#FFC444"/>
<stop offset="0.48" stop-color="#FDB946"/>
<stop offset="0.78" stop-color="#F99C4D"/>
<stop offset="0.87" stop-color="#F8924F"/>
<stop offset="1" stop-color="#F8924F"/>
</linearGradient>
<linearGradient id="paint12_linear_4002_83" x1="73.3887" y1="224.911" x2="77.8372" y2="262.149" gradientUnits="userSpaceOnUse">
<stop stop-color="#FFDB44"/>
<stop offset="1" stop-color="#FEEF06"/>
</linearGradient>
<linearGradient id="paint13_linear_4002_83" x1="73.1955" y1="223.25" x2="74.561" y2="234.687" gradientUnits="userSpaceOnUse">
<stop stop-color="#FFDB44"/>
<stop offset="1" stop-color="#FEEF06"/>
</linearGradient>
<linearGradient id="paint14_linear_4002_83" x1="74.4792" y1="233.488" x2="73.1184" y2="222.092" gradientUnits="userSpaceOnUse">
<stop stop-color="#F36F56"/>
<stop offset="0.31" stop-color="#F99C4C"/>
<stop offset="0.55" stop-color="#FDB946"/>
<stop offset="0.68" stop-color="#FFC444"/>
<stop offset="0.8" stop-color="#FFC244"/>
<stop offset="0.87" stop-color="#FEBA46"/>
<stop offset="0.92" stop-color="#FCAD49"/>
<stop offset="0.96" stop-color="#F99A4D"/>
<stop offset="1" stop-color="#F57E53"/>
</linearGradient>
<linearGradient id="paint15_linear_4002_83" x1="36.1505" y1="225.871" x2="120.528" y2="225.871" gradientUnits="userSpaceOnUse">
<stop stop-color="#FCB148"/>
<stop offset="0.05" stop-color="#FDBA46"/>
<stop offset="0.14" stop-color="#FFC244"/>
<stop offset="0.32" stop-color="#FFC444"/>
<stop offset="0.48" stop-color="#FDB946"/>
<stop offset="0.78" stop-color="#F99C4D"/>
<stop offset="0.87" stop-color="#F8924F"/>
<stop offset="1" stop-color="#F8924F"/>
</linearGradient>
<linearGradient id="paint16_linear_4002_83" x1="78.7271" y1="216.367" x2="83.1757" y2="253.606" gradientUnits="userSpaceOnUse">
<stop stop-color="#FFDB44"/>
<stop offset="1" stop-color="#FEEF06"/>
</linearGradient>
<linearGradient id="paint17_linear_4002_83" x1="78.533" y1="214.706" x2="79.8994" y2="226.143" gradientUnits="userSpaceOnUse">
<stop stop-color="#FFDB44"/>
<stop offset="1" stop-color="#FEEF06"/>
</linearGradient>
<linearGradient id="paint18_linear_4002_83" x1="79.8177" y1="224.943" x2="78.4559" y2="213.548" gradientUnits="userSpaceOnUse">
<stop stop-color="#F36F56"/>
<stop offset="0.31" stop-color="#F99C4C"/>
<stop offset="0.55" stop-color="#FDB946"/>
<stop offset="0.68" stop-color="#FFC444"/>
<stop offset="0.8" stop-color="#FFC244"/>
<stop offset="0.87" stop-color="#FEBA46"/>
<stop offset="0.92" stop-color="#FCAD49"/>
<stop offset="0.96" stop-color="#F99A4D"/>
<stop offset="1" stop-color="#F57E53"/>
</linearGradient>
<linearGradient id="paint19_linear_4002_83" x1="32.21" y1="216.654" x2="116.588" y2="216.654" gradientUnits="userSpaceOnUse">
<stop stop-color="#FCB148"/>
<stop offset="0.05" stop-color="#FDBA46"/>
<stop offset="0.14" stop-color="#FFC244"/>
<stop offset="0.32" stop-color="#FFC444"/>
<stop offset="0.48" stop-color="#FDB946"/>
<stop offset="0.78" stop-color="#F99C4D"/>
<stop offset="0.87" stop-color="#F8924F"/>
<stop offset="1" stop-color="#F8924F"/>
</linearGradient>
<linearGradient id="paint20_linear_4002_83" x1="74.7867" y1="207.149" x2="79.2352" y2="244.387" gradientUnits="userSpaceOnUse">
<stop stop-color="#FFDB44"/>
<stop offset="1" stop-color="#FEEF06"/>
</linearGradient>
<linearGradient id="paint21_linear_4002_83" x1="74.5935" y1="205.488" x2="75.959" y2="216.925" gradientUnits="userSpaceOnUse">
<stop stop-color="#FFDB44"/>
<stop offset="1" stop-color="#FEEF06"/>
</linearGradient>
<linearGradient id="paint22_linear_4002_83" x1="75.8772" y1="215.726" x2="74.5164" y2="204.33" gradientUnits="userSpaceOnUse">
<stop stop-color="#F36F56"/>
<stop offset="0.31" stop-color="#F99C4C"/>
<stop offset="0.55" stop-color="#FDB946"/>
<stop offset="0.68" stop-color="#FFC444"/>
<stop offset="0.8" stop-color="#FFC244"/>
<stop offset="0.87" stop-color="#FEBA46"/>
<stop offset="0.92" stop-color="#FCAD49"/>
<stop offset="0.96" stop-color="#F99A4D"/>
<stop offset="1" stop-color="#F57E53"/>
</linearGradient>
<linearGradient id="paint23_linear_4002_83" x1="22.0152" y1="208.11" x2="106.393" y2="208.11" gradientUnits="userSpaceOnUse">
<stop stop-color="#FCB148"/>
<stop offset="0.05" stop-color="#FDBA46"/>
<stop offset="0.14" stop-color="#FFC244"/>
<stop offset="0.32" stop-color="#FFC444"/>
<stop offset="0.48" stop-color="#FDB946"/>
<stop offset="0.78" stop-color="#F99C4D"/>
<stop offset="0.87" stop-color="#F8924F"/>
<stop offset="1" stop-color="#F8924F"/>
</linearGradient>
<linearGradient id="paint24_linear_4002_83" x1="64.5928" y1="198.605" x2="69.0404" y2="235.844" gradientUnits="userSpaceOnUse">
<stop stop-color="#FFDB44"/>
<stop offset="1" stop-color="#FEEF06"/>
</linearGradient>
<linearGradient id="paint25_linear_4002_83" x1="64.3987" y1="196.944" x2="65.7651" y2="208.381" gradientUnits="userSpaceOnUse">
<stop stop-color="#FFDB44"/>
<stop offset="1" stop-color="#FEEF06"/>
</linearGradient>
<linearGradient id="paint26_linear_4002_83" x1="65.6833" y1="207.182" x2="64.3216" y2="195.786" gradientUnits="userSpaceOnUse">
<stop stop-color="#F36F56"/>
<stop offset="0.31" stop-color="#F99C4C"/>
<stop offset="0.55" stop-color="#FDB946"/>
<stop offset="0.68" stop-color="#FFC444"/>
<stop offset="0.8" stop-color="#FFC244"/>
<stop offset="0.87" stop-color="#FEBA46"/>
<stop offset="0.92" stop-color="#FCAD49"/>
<stop offset="0.96" stop-color="#F99A4D"/>
<stop offset="1" stop-color="#F57E53"/>
</linearGradient>
<linearGradient id="paint27_linear_4002_83" x1="30.812" y1="199.592" x2="115.19" y2="199.592" gradientUnits="userSpaceOnUse">
<stop stop-color="#FCB148"/>
<stop offset="0.05" stop-color="#FDBA46"/>
<stop offset="0.14" stop-color="#FFC244"/>
<stop offset="0.32" stop-color="#FFC444"/>
<stop offset="0.48" stop-color="#FDB946"/>
<stop offset="0.78" stop-color="#F99C4D"/>
<stop offset="0.87" stop-color="#F8924F"/>
<stop offset="1" stop-color="#F8924F"/>
</linearGradient>
<linearGradient id="paint28_linear_4002_83" x1="73.3887" y1="190.086" x2="77.8372" y2="227.325" gradientUnits="userSpaceOnUse">
<stop stop-color="#FFDB44"/>
<stop offset="1" stop-color="#FEEF06"/>
</linearGradient>
<linearGradient id="paint29_linear_4002_83" x1="73.1955" y1="188.426" x2="74.561" y2="199.862" gradientUnits="userSpaceOnUse">
<stop stop-color="#FFDB44"/>
<stop offset="1" stop-color="#FEEF06"/>
</linearGradient>
<linearGradient id="paint30_linear_4002_83" x1="74.4792" y1="198.664" x2="73.1184" y2="187.268" gradientUnits="userSpaceOnUse">
<stop stop-color="#F36F56"/>
<stop offset="0.31" stop-color="#F99C4C"/>
<stop offset="0.55" stop-color="#FDB946"/>
<stop offset="0.68" stop-color="#FFC444"/>
<stop offset="0.8" stop-color="#FFC244"/>
<stop offset="0.87" stop-color="#FEBA46"/>
<stop offset="0.92" stop-color="#FCAD49"/>
<stop offset="0.96" stop-color="#F99A4D"/>
<stop offset="1" stop-color="#F57E53"/>
</linearGradient>
<linearGradient id="paint31_linear_4002_83" x1="26.2362" y1="191.047" x2="110.614" y2="191.047" gradientUnits="userSpaceOnUse">
<stop stop-color="#FCB148"/>
<stop offset="0.05" stop-color="#FDBA46"/>
<stop offset="0.14" stop-color="#FFC244"/>
<stop offset="0.32" stop-color="#FFC444"/>
<stop offset="0.48" stop-color="#FDB946"/>
<stop offset="0.78" stop-color="#F99C4D"/>
<stop offset="0.87" stop-color="#F8924F"/>
<stop offset="1" stop-color="#F8924F"/>
</linearGradient>
<linearGradient id="paint32_linear_4002_83" x1="68.8138" y1="181.543" x2="73.2623" y2="218.782" gradientUnits="userSpaceOnUse">
<stop stop-color="#FFDB44"/>
<stop offset="1" stop-color="#FEEF06"/>
</linearGradient>
<linearGradient id="paint33_linear_4002_83" x1="68.6197" y1="179.882" x2="69.9861" y2="191.319" gradientUnits="userSpaceOnUse">
<stop stop-color="#FFDB44"/>
<stop offset="1" stop-color="#FEEF06"/>
</linearGradient>
<linearGradient id="paint34_linear_4002_83" x1="69.9043" y1="190.119" x2="68.5425" y2="178.724" gradientUnits="userSpaceOnUse">
<stop stop-color="#F36F56"/>
<stop offset="0.31" stop-color="#F99C4C"/>
<stop offset="0.55" stop-color="#FDB946"/>
<stop offset="0.68" stop-color="#FFC444"/>
<stop offset="0.8" stop-color="#FFC244"/>
<stop offset="0.87" stop-color="#FEBA46"/>
<stop offset="0.92" stop-color="#FCAD49"/>
<stop offset="0.96" stop-color="#F99A4D"/>
<stop offset="1" stop-color="#F57E53"/>
</linearGradient>
<linearGradient id="paint35_linear_4002_83" x1="108.411" y1="188.191" x2="157.35" y2="256.537" gradientUnits="userSpaceOnUse">
<stop stop-color="#FCB148"/>
<stop offset="0.05" stop-color="#FDBA46"/>
<stop offset="0.14" stop-color="#FFC244"/>
<stop offset="0.32" stop-color="#FFC444"/>
<stop offset="0.48" stop-color="#FDB946"/>
<stop offset="0.78" stop-color="#F99C4D"/>
<stop offset="0.87" stop-color="#F8924F"/>
<stop offset="1" stop-color="#F8924F"/>
</linearGradient>
<linearGradient id="paint36_linear_4002_83" x1="140.803" y1="217.166" x2="113.223" y2="242.365" gradientUnits="userSpaceOnUse">
<stop stop-color="#FFDB44"/>
<stop offset="1" stop-color="#FEEF06"/>
</linearGradient>
<linearGradient id="paint37_linear_4002_83" x1="142.036" y1="216.047" x2="133.566" y2="223.785" gradientUnits="userSpaceOnUse">
<stop stop-color="#FFDB44"/>
<stop offset="1" stop-color="#FEEF06"/>
</linearGradient>
<linearGradient id="paint38_linear_4002_83" x1="132.549" y1="223.63" x2="140.988" y2="215.919" gradientUnits="userSpaceOnUse">
<stop stop-color="#F36F56"/>
<stop offset="0.31" stop-color="#F99C4C"/>
<stop offset="0.55" stop-color="#FDB946"/>
<stop offset="0.68" stop-color="#FFC444"/>
<stop offset="0.8" stop-color="#FFC244"/>
<stop offset="0.87" stop-color="#FEBA46"/>
<stop offset="0.92" stop-color="#FCAD49"/>
<stop offset="0.96" stop-color="#F99A4D"/>
<stop offset="1" stop-color="#F57E53"/>
</linearGradient>
<linearGradient id="paint39_linear_4002_83" x1="73.5494" y1="134.675" x2="103.421" y2="141.541" gradientUnits="userSpaceOnUse">
<stop stop-color="#007CD6"/>
<stop offset="1" stop-color="#03C2EC"/>
</linearGradient>
<linearGradient id="paint40_linear_4002_83" x1="70.9616" y1="169.457" x2="114.567" y2="181.773" gradientUnits="userSpaceOnUse">
<stop stop-color="#0068D6"/>
<stop offset="1" stop-color="#24BAFA"/>
</linearGradient>
<linearGradient id="paint41_linear_4002_83" x1="95.9712" y1="232.284" x2="89.0147" y2="260.975" gradientUnits="userSpaceOnUse">
<stop stop-color="#444B8C"/>
<stop offset="1" stop-color="#26264F"/>
</linearGradient>
<linearGradient id="paint42_linear_4002_83" x1="70.9847" y1="175.01" x2="108.05" y2="186.178" gradientUnits="userSpaceOnUse">
<stop stop-color="#0068D6"/>
<stop offset="1" stop-color="#24BAFA"/>
</linearGradient>
<linearGradient id="paint43_linear_4002_83" x1="89.5109" y1="241.407" x2="91.9669" y2="241.407" gradientUnits="userSpaceOnUse">
<stop stop-color="#FFC444"/>
<stop offset="1" stop-color="#F36F56"/>
</linearGradient>
<linearGradient id="paint44_linear_4002_83" x1="56.7149" y1="169.798" x2="104.064" y2="178.148" gradientUnits="userSpaceOnUse">
<stop stop-color="#0068D6"/>
<stop offset="1" stop-color="#24BAFA"/>
</linearGradient>
<linearGradient id="paint45_linear_4002_83" x1="30.336" y1="133.283" x2="99.5471" y2="165.34" gradientUnits="userSpaceOnUse">
<stop stop-color="#007CD6"/>
<stop offset="1" stop-color="#03C2EC"/>
</linearGradient>
<linearGradient id="paint46_linear_4002_83" x1="58.3691" y1="130.854" x2="71.1965" y2="130.854" gradientUnits="userSpaceOnUse">
<stop stop-color="#FFC444"/>
<stop offset="1" stop-color="#F36F56"/>
</linearGradient>
<linearGradient id="paint47_linear_4002_83" x1="70.3874" y1="124.076" x2="49.9941" y2="221.962" gradientUnits="userSpaceOnUse">
<stop stop-color="#FFC444"/>
<stop offset="1" stop-color="#F36F56"/>
</linearGradient>
<linearGradient id="paint48_linear_4002_83" x1="30.3279" y1="139.704" x2="94.7555" y2="172.511" gradientUnits="userSpaceOnUse">
<stop stop-color="#007CD6"/>
<stop offset="1" stop-color="#03C2EC"/>
</linearGradient>
<linearGradient id="paint49_linear_4002_83" x1="63.1112" y1="175.487" x2="91.7607" y2="175.487" gradientUnits="userSpaceOnUse">
<stop stop-color="#444B8C"/>
<stop offset="1" stop-color="#26264F"/>
</linearGradient>
<linearGradient id="paint50_linear_4002_83" x1="79.9329" y1="167.848" x2="119.256" y2="167.848" gradientUnits="userSpaceOnUse">
<stop stop-color="#444B8C"/>
<stop offset="1" stop-color="#26264F"/>
</linearGradient>
<linearGradient id="paint51_linear_4002_83" x1="110.082" y1="157.415" x2="91.2981" y2="176.048" gradientUnits="userSpaceOnUse">
<stop stop-color="#444B8C"/>
<stop offset="1" stop-color="#26264F"/>
</linearGradient>
<linearGradient id="paint52_linear_4002_83" x1="37.2301" y1="133.879" x2="82.964" y2="150.363" gradientUnits="userSpaceOnUse">
<stop stop-color="#007CD6"/>
<stop offset="1" stop-color="#03C2EC"/>
</linearGradient>
<linearGradient id="paint53_linear_4002_83" x1="67.8616" y1="171.37" x2="77.3588" y2="171.37" gradientUnits="userSpaceOnUse">
<stop stop-color="#FFC444"/>
<stop offset="1" stop-color="#F36F56"/>
</linearGradient>
<linearGradient id="paint54_linear_4002_83" x1="156.462" y1="22.8328" x2="263.351" y2="63.4317" gradientUnits="userSpaceOnUse">
<stop stop-color="#007CD6"/>
<stop offset="1" stop-color="#03C2EC"/>
</linearGradient>
<linearGradient id="paint55_linear_4002_83" x1="158.878" y1="22.8373" x2="264.705" y2="62.5041" gradientUnits="userSpaceOnUse">
<stop stop-color="#007CD6"/>
<stop offset="1" stop-color="#03C2EC"/>
</linearGradient>
<linearGradient id="paint56_linear_4002_83" x1="161.156" y1="24.8683" x2="262.201" y2="62.7178" gradientUnits="userSpaceOnUse">
<stop stop-color="#007CD6"/>
<stop offset="1" stop-color="#03C2EC"/>
</linearGradient>
<linearGradient id="paint57_linear_4002_83" x1="167.946" y1="31.0325" x2="251.363" y2="60.7054" gradientUnits="userSpaceOnUse">
<stop stop-color="#007CD6"/>
<stop offset="1" stop-color="#03C2EC"/>
</linearGradient>
<linearGradient id="paint58_linear_4002_83" x1="169.349" y1="33.0788" x2="246.809" y2="60.0946" gradientUnits="userSpaceOnUse">
<stop stop-color="#007CD6"/>
<stop offset="1" stop-color="#03C2EC"/>
</linearGradient>
<linearGradient id="paint59_linear_4002_83" x1="136.473" y1="157.474" x2="238.743" y2="200.5" gradientUnits="userSpaceOnUse">
<stop stop-color="#007CD6"/>
<stop offset="1" stop-color="#03C2EC"/>
</linearGradient>
<linearGradient id="paint60_linear_4002_83" x1="200.546" y1="174.423" x2="177.802" y2="251.851" gradientUnits="userSpaceOnUse">
<stop stop-color="#444B8C"/>
<stop offset="1" stop-color="#26264F"/>
</linearGradient>
<linearGradient id="paint61_linear_4002_83" x1="200.133" y1="105.369" x2="208.048" y2="107.328" gradientUnits="userSpaceOnUse">
<stop stop-color="#444B8C"/>
<stop offset="1" stop-color="#26264F"/>
</linearGradient>
<linearGradient id="paint62_linear_4002_83" x1="232.56" y1="113.522" x2="224.646" y2="111.564" gradientUnits="userSpaceOnUse">
<stop stop-color="#444B8C"/>
<stop offset="1" stop-color="#26264F"/>
</linearGradient>
<linearGradient id="paint63_linear_4002_83" x1="209.091" y1="141.122" x2="165.34" y2="290.063" gradientUnits="userSpaceOnUse">
<stop stop-color="#444B8C"/>
<stop offset="1" stop-color="#26264F"/>
</linearGradient>
<linearGradient id="paint64_linear_4002_83" x1="142.842" y1="161.828" x2="142.66" y2="165.952" gradientUnits="userSpaceOnUse">
<stop stop-color="#444B8C"/>
<stop offset="1" stop-color="#26264F"/>
</linearGradient>
<linearGradient id="paint65_linear_4002_83" x1="146.37" y1="130.421" x2="145.494" y2="150.345" gradientUnits="userSpaceOnUse">
<stop stop-color="#444B8C"/>
<stop offset="1" stop-color="#26264F"/>
</linearGradient>
<linearGradient id="paint66_linear_4002_83" x1="145.18" y1="140.791" x2="153.937" y2="177.554" gradientUnits="userSpaceOnUse">
<stop stop-color="#444B8C"/>
<stop offset="1" stop-color="#26264F"/>
</linearGradient>
<linearGradient id="paint67_linear_4002_83" x1="137.412" y1="139.743" x2="163.267" y2="152.125" gradientUnits="userSpaceOnUse">
<stop stop-color="#007CD6"/>
<stop offset="1" stop-color="#03C2EC"/>
</linearGradient>
<linearGradient id="paint68_linear_4002_83" x1="143.634" y1="131.209" x2="142.781" y2="150.609" gradientUnits="userSpaceOnUse">
<stop stop-color="#AA80F9"/>
<stop offset="1" stop-color="#6165D7"/>
</linearGradient>
<linearGradient id="paint69_linear_4002_83" x1="193.576" y1="209.85" x2="193.424" y2="213.31" gradientUnits="userSpaceOnUse">
<stop stop-color="#AA80F9"/>
<stop offset="1" stop-color="#6165D7"/>
</linearGradient>
<linearGradient id="paint70_linear_4002_83" x1="184.749" y1="208.694" x2="184.626" y2="211.508" gradientUnits="userSpaceOnUse">
<stop stop-color="#AA80F9"/>
<stop offset="1" stop-color="#6165D7"/>
</linearGradient>
<clipPath id="clip0_4002_83">
<rect width="263" height="260.095" fill="white"/>
</clipPath>
</defs>
</svg>
