<svg width="28" height="28" viewBox="0 0 28 28" fill="none" xmlns="http://www.w3.org/2000/svg">
<path d="M5.25 0.874512C4.53044 0.874512 3.93835 1.46657 3.93835 2.18612V3.06114C3.93835 3.78069 4.53044 4.37623 5.25 4.37623H14.8741C15.5937 4.37623 16.1884 3.78069 16.1884 3.06114V2.18612C16.1884 1.46657 15.5937 0.874512 14.8741 0.874512H5.25ZM5.25 5.24948V6.13221C3.31484 6.38057 1.74915 8.0604 1.74915 10.0629V25.7906C1.74915 26.5164 2.33804 27.1245 3.06335 27.1245H13.724C12.8268 26.4012 12.2483 25.2966 12.2483 24.0629C12.2483 23.2548 12.4962 22.5012 12.9191 21.8736H2.62415V11.3737H17.5V20.1228H18.375V10.0629C18.375 8.05933 16.8108 6.3792 14.8741 6.13221V5.24948H5.25ZM9.18664 13.1245C9.07121 13.125 8.96063 13.171 8.879 13.2527C8.79737 13.3343 8.75131 13.4449 8.75085 13.5603V15.3111H7C6.94226 15.3109 6.88505 15.3221 6.83166 15.3441C6.77827 15.3661 6.72976 15.3985 6.68894 15.4393C6.64811 15.4801 6.61576 15.5286 6.59377 15.582C6.57178 15.6354 6.56057 15.6926 6.56079 15.7503V17.5004C6.56125 17.6164 6.60778 17.7275 6.69015 17.8092C6.77251 17.8909 6.88397 17.9366 7 17.9362H8.75085V19.687C8.75131 19.8024 8.79737 19.913 8.879 19.9946C8.96063 20.0762 9.07121 20.1223 9.18664 20.1228H10.9375C11.0535 20.1232 11.165 20.0775 11.2473 19.9958C11.3297 19.9141 11.3762 19.803 11.3767 19.687V17.9362H13.1233C13.2393 17.9366 13.3508 17.8909 13.4331 17.8092C13.5155 17.7275 13.562 17.6164 13.5625 17.5004V15.7503C13.5627 15.6926 13.5515 15.6354 13.5295 15.582C13.5075 15.5286 13.4752 15.4801 13.4343 15.4393C13.3935 15.3985 13.345 15.3661 13.2916 15.3441C13.2382 15.3221 13.181 15.3109 13.1233 15.3111H11.3767V13.5603C11.3762 13.4443 11.3297 13.3332 11.2473 13.2515C11.165 13.1697 11.0535 13.1241 10.9375 13.1245H9.18664ZM16.1884 20.9978C14.4993 20.9978 13.1233 22.3738 13.1233 24.0629C13.1233 25.7519 14.4993 27.1245 16.1884 27.1245H19.25V20.9978H16.1884ZM20.125 20.9995V27.1262H23.1866C24.8757 27.1262 26.2517 25.7535 26.2517 24.0645C26.2517 22.3754 24.8757 20.9995 23.1866 20.9995H20.125Z" fill="#52C41A"/>
</svg>
