<svg width="28" height="28" viewBox="0 0 28 28" fill="none" xmlns="http://www.w3.org/2000/svg">
<path d="M5.84178 27.9999H22.7321C23.7372 27.9999 24.5739 27.2311 24.5739 26.2865V5.79983C24.5739 4.85493 23.7372 4.07812 22.7321 4.07812H19.9478V5.64243C19.9519 5.91396 19.7376 6.13865 19.4663 6.14769H9.07452C8.79776 6.14103 8.57425 5.91919 8.56522 5.64243V4.07812H5.84178C4.83672 4.07812 4 4.85493 4 5.79983V26.2865C4 27.2311 4.83672 27.9999 5.84178 27.9999ZM9.6 12.2955C9.6 12.0266 9.81804 11.8086 10.087 11.8086H12.5826V9.31291C12.5826 9.04399 12.8006 8.82595 13.0696 8.82595H15.5043C15.7733 8.82595 15.9913 9.04399 15.9913 9.31291V11.8086H18.487C18.7559 11.8086 18.9739 12.0266 18.9739 12.2955V14.7303C18.9739 14.9992 18.7559 15.2173 18.487 15.2173H15.9913V17.7129C15.9913 17.9818 15.7733 18.1999 15.5043 18.1999H13.0696C12.8006 18.1999 12.5826 17.9818 12.5826 17.7129V15.2173H10.087C9.81804 15.2173 9.6 14.9992 9.6 14.7303V12.2955ZM9.7983 20.6955H18.7756C19.0448 20.6955 19.2626 20.9136 19.2626 21.1825C19.2626 21.4514 19.0448 21.6694 18.7756 21.6694H9.7983C9.52914 21.6694 9.31135 21.4514 9.31135 21.1825C9.31135 20.9136 9.52914 20.6955 9.7983 20.6955ZM7.97222 23.1303H20.6017C20.8709 23.1303 21.0887 23.3483 21.0887 23.6173C21.0887 23.8862 20.8709 24.1042 20.6017 24.1042H7.97222C7.70306 24.1042 7.48526 23.8862 7.48526 23.6173C7.48526 23.3483 7.70306 23.1303 7.97222 23.1303Z" fill="#FA541C"/>
<path d="M18.9739 1.88696H16.6951C16.4659 1.88672 16.2676 1.7267 16.2193 1.50248C16.031 0.632236 15.2045 1.08217e-06 14.2539 1.08217e-06H14.248C13.3228 -0.000950005 12.5146 0.625103 12.2844 1.52103C12.229 1.73621 12.035 1.88672 11.8127 1.88696H9.53913V5.17391H18.9739V1.88696Z" fill="#FA541C"/>
<path d="M13.5565 14.7302V17.2259H15.0174V14.7302C15.0174 14.4613 15.2354 14.2433 15.5043 14.2433H18V12.7824H15.5043C15.2354 12.7824 15.0174 12.5644 15.0174 12.2955V9.7998H13.5565V12.2955C13.5565 12.5644 13.3385 12.7824 13.0696 12.7824H10.5739V14.2433H13.0696C13.3385 14.2433 13.5565 14.4613 13.5565 14.7302Z" fill="#FA541C"/>
</svg>
