<svg width="24" height="24" viewBox="0 0 24 24" fill="none" xmlns="http://www.w3.org/2000/svg">
<rect width="24" height="24" fill="#F5F6F9"/>
<path fill-rule="evenodd" clip-rule="evenodd" d="M2 10C2 6.22876 2 4.34315 3.17157 3.17157C4.34315 2 6.22876 2 10 2H14C17.7712 2 19.6569 2 20.8284 3.17157C22 4.34315 22 6.22876 22 10V14C22 17.7712 22 19.6569 20.8284 20.8284C19.6569 22 17.7712 22 14 22H10C6.22876 22 4.34315 22 3.17157 20.8284C2 19.6569 2 17.7712 2 14V10ZM7.89086 16.6449C9.06971 15.7403 10.5141 15.25 12 15.25C13.4859 15.25 14.9303 15.7403 16.1091 16.6449C17.288 17.5494 18.1354 18.8177 18.52 20.253C18.6272 20.6531 18.3898 21.0643 17.9897 21.1715C17.5896 21.2787 17.1783 21.0413 17.0711 20.6412C16.772 19.5249 16.1129 18.5384 15.196 17.8349C14.2791 17.1313 13.1557 16.75 12 16.75C10.8443 16.75 9.72089 17.1313 8.804 17.8349C7.88712 18.5384 7.22801 19.5249 6.92889 20.6412C6.82168 21.0413 6.41043 21.2787 6.01033 21.1715C5.61023 21.0643 5.37279 20.6531 5.48 20.253C5.86458 18.8177 6.71201 17.5494 7.89086 16.6449ZM9.75 9C9.75 7.75736 10.7574 6.75 12 6.75C13.2426 6.75 14.25 7.75736 14.25 9C14.25 10.2426 13.2426 11.25 12 11.25C10.7574 11.25 9.75 10.2426 9.75 9ZM12 5.25C9.92893 5.25 8.25 6.92893 8.25 9C8.25 11.0711 9.92893 12.75 12 12.75C14.0711 12.75 15.75 11.0711 15.75 9C15.75 6.92893 14.0711 5.25 12 5.25Z" fill="#2F88BF"/>
<rect x="2.75" y="2.75" width="18.5" height="18.5" rx="3.25" stroke="#2F88BF" stroke-width="1.5"/>
</svg>
