<svg width="18" height="18" viewBox="0 0 18 18" fill="none" xmlns="http://www.w3.org/2000/svg">
<g clip-path="url(#clip0_4015_5660)">
<path d="M10.2053 3.53516H2.04405C0.967624 3.53516 0.0869141 4.37917 0.0869141 5.41074V11.7315C0.0869141 12.763 0.967624 13.6071 2.04405 13.6071H10.2053C11.2817 13.6071 12.1624 12.763 12.1624 11.7315V5.41074C12.1624 4.36041 11.2817 3.53516 10.2053 3.53516Z" fill="#005495"/>
<path d="M16.5269 4.56732C16.4095 4.58608 16.2921 4.64234 16.1942 4.69861L13.1411 6.38664V10.738L16.2138 12.426C16.7814 12.7449 17.4859 12.5573 17.8187 12.0134C17.9165 11.8446 17.9752 11.657 17.9752 11.4507V5.65516C17.9752 4.96119 17.2902 4.39852 16.5269 4.56732Z" fill="#005495"/>
</g>
<defs>
<clipPath id="clip0_4015_5660">
<rect width="17.8882" height="17.1429" fill="white" transform="translate(0.0869141)"/>
</clipPath>
</defs>
</svg>
