<svg width="28" height="28" viewBox="0 0 28 28" fill="none" xmlns="http://www.w3.org/2000/svg">
<path d="M13.422 8.14467L14.4708 10.2422H23.3945V7.60156H18.5703C17.5903 7.60156 16.793 6.80425 16.793 5.82422V1H5.36719C4.94652 1 4.60547 1.34105 4.60547 1.76172V6.17969H10.2426C11.5977 6.17969 12.816 6.93262 13.422 8.14467Z" fill="#FFAF37"/>
<path d="M18.5703 6.0782H22.9483L18.3164 1.44629V5.82429C18.3164 5.96429 18.4303 6.0782 18.5703 6.0782Z" fill="#FFAF37"/>
<path d="M14.7617 17.8594V16.082H13.2383V17.8594C13.2383 18.28 12.8972 18.6211 12.4766 18.6211H10.6992V20.1445H12.4766C12.8972 20.1445 13.2383 20.4856 13.2383 20.9062V22.6836H14.7617V20.9062C14.7617 20.4856 15.1028 20.1445 15.5234 20.1445H17.3008V18.6211H15.5234C15.1028 18.6211 14.7617 18.28 14.7617 17.8594Z" fill="#FFAF37"/>
<path d="M24.9688 11.7656H14C13.7115 11.7656 13.4477 11.6026 13.3187 11.3445L12.0594 8.82595C11.7154 8.13781 11.012 7.70312 10.2426 7.70312H3.03125C1.90944 7.70312 1 8.61257 1 9.73438V24.9688C1 26.0906 1.90944 27 3.03125 27H24.9688C26.0906 27 27 26.0906 27 24.9688V13.7969C27 12.6751 26.0906 11.7656 24.9688 11.7656ZM18.8242 20.9062C18.8242 21.3269 18.4832 21.668 18.0625 21.668H16.2852V23.4453C16.2852 23.866 15.9441 24.207 15.5234 24.207H12.4766C12.0559 24.207 11.7148 23.866 11.7148 23.4453V21.668H9.9375C9.51683 21.668 9.17578 21.3269 9.17578 20.9062V17.8594C9.17578 17.4387 9.51683 17.0977 9.9375 17.0977H11.7148V15.3203C11.7148 14.8996 12.0559 14.5586 12.4766 14.5586H15.5234C15.9441 14.5586 16.2852 14.8996 16.2852 15.3203V17.0977H18.0625C18.4832 17.0977 18.8242 17.4387 18.8242 17.8594V20.9062Z" fill="#FFAF37"/>
<path d="M24.918 7.28711V10.242H24.9688C25.7236 10.242 26.4237 10.4792 27 10.882V9.98806C27 8.69365 26.1148 7.60236 24.918 7.28711Z" fill="#FFAF37"/>
</svg>
