<svg width="24" height="24" viewBox="0 0 24 24" fill="none" xmlns="http://www.w3.org/2000/svg">
<g clip-path="url(#clip0_4213_11400)">
<path d="M9.72996 11.1816C8.87135 11.1816 8.17285 12.0492 8.17285 13.1155C8.25052 15.6771 11.2097 15.6766 11.2871 13.1155C11.2871 12.0492 10.5885 11.1816 9.72996 11.1816Z" fill="#005495"/>
<path d="M23.1981 13.9566C22.8035 13.3894 22.2906 12.9266 21.6948 12.5962C22.149 9.64147 19.3897 7.00583 16.46 7.58609C16.4448 1.96188 8.49782 1.33257 7.56346 6.8346C3.68205 6.11608 0.584386 10.2736 2.38341 13.7831C-1.42489 15.2868 -0.437912 20.9058 3.70151 20.9779H19.5258C23.095 21.0084 25.2613 16.8644 23.1981 13.9566ZM9.72986 16.4566C8.09541 16.4566 6.76573 14.9579 6.76573 13.1157C6.91966 8.68765 12.5406 8.68868 12.694 13.1158C12.694 14.9579 11.3643 16.4566 9.72986 16.4566ZM16.5117 16.8834C17.4442 16.918 17.4435 18.2562 16.5117 18.2905H14.2319C13.8433 18.2905 13.5284 17.9755 13.5284 17.5869C13.5284 16.6359 14.3374 16.108 14.9875 15.6838C15.3143 15.4705 15.8082 15.1482 15.8082 14.9594C15.7894 14.398 15.0228 14.4187 14.8995 14.7942C14.5861 15.6732 13.3104 15.2697 13.558 14.371C13.688 13.9368 14.2344 13.1158 15.3716 13.1158C16.3882 13.1158 17.2152 13.9428 17.2152 14.9594C17.2152 15.9102 16.4063 16.438 15.7564 16.8621C15.7457 16.8691 15.7348 16.8763 15.7237 16.8835H16.5117V16.8834Z" fill="#005495"/>
</g>
<defs>
<clipPath id="clip0_4213_11400">
<rect width="24" height="24" fill="white"/>
</clipPath>
</defs>
</svg>
