<svg width="24" height="24" viewBox="0 0 24 24" fill="none" xmlns="http://www.w3.org/2000/svg">
<g clip-path="url(#clip0_4213_11435)">
<path d="M12.859 15.583V10.2859C12.859 9.81247 12.4752 9.42871 12.0018 9.42871C11.5284 9.42871 11.1447 9.81247 11.1447 10.2859V15.583C9.80573 16.0565 9.10405 17.5256 9.57746 18.8646C10.0509 20.2035 11.52 20.9052 12.859 20.4318C14.1979 19.9584 14.8996 18.4892 14.4262 17.1502C14.1673 16.418 13.5913 15.842 12.859 15.583Z" fill="#005495"/>
<path d="M16.288 13.8086V4.28573C16.288 1.91881 14.3692 0 12.0023 0C9.63534 0 7.71653 1.91881 7.71653 4.28573V13.8086C5.39683 16.1689 5.42973 19.9628 7.78998 22.2825C8.60517 23.0836 9.63254 23.635 10.7508 23.8714C11.1597 23.9561 11.5761 23.9992 11.9937 24C15.3044 24.0078 17.9945 21.3303 18.0023 18.0196C18.006 16.4453 17.3902 14.9327 16.288 13.8086ZM14.7108 21.3172C13.6996 22.1411 12.3696 22.4626 11.0937 22.1915C8.78291 21.6931 7.31371 19.4158 7.8121 17.105C8.00249 16.2224 8.46705 15.4226 9.13944 14.82C9.32622 14.6588 9.43275 14.4238 9.43088 14.1771V4.28573C9.43169 2.86557 10.5836 1.71497 12.0038 1.71578C13.4228 1.71659 14.5729 2.86675 14.5737 4.28573V14.1771C14.5719 14.4238 14.6784 14.6588 14.8652 14.82C16.6229 16.393 16.7727 19.0933 15.1996 20.851C15.0493 21.0191 14.8858 21.1749 14.7108 21.3172Z" fill="#005495"/>
</g>
<defs>
<clipPath id="clip0_4213_11435">
<rect width="24" height="24" fill="white"/>
</clipPath>
</defs>
</svg>
