<svg width="20" height="20" viewBox="0 0 20 20" fill="none" xmlns="http://www.w3.org/2000/svg">
<g clip-path="url(#clip0_6132_2067)">
<path d="M1.66699 10.0003C1.66699 6.07195 1.66699 4.10777 2.88738 2.88738C4.10777 1.66699 6.07195 1.66699 10.0003 1.66699C13.9287 1.66699 15.8929 1.66699 17.1133 2.88738C18.3337 4.10777 18.3337 6.07195 18.3337 10.0003C18.3337 13.9287 18.3337 15.8929 17.1133 17.1133C15.8929 18.3337 13.9287 18.3337 10.0003 18.3337C6.07195 18.3337 4.10777 18.3337 2.88738 17.1133C1.66699 15.8929 1.66699 13.9287 1.66699 10.0003Z" stroke="#777F89" stroke-width="1.5"/>
<ellipse cx="6.66667" cy="8.33366" rx="1.66667" ry="1.66667" stroke="#777F89" stroke-width="1.5"/>
<circle cx="1.66667" cy="1.66667" r="1.66667" transform="matrix(1 0 0 -1 11.667 13.333)" stroke="#777F89" stroke-width="1.5"/>
<path d="M6.66699 11.667V15.8337" stroke="#777F89" stroke-width="1.5" stroke-linecap="round"/>
<path d="M13.333 8.33301V4.16634" stroke="#777F89" stroke-width="1.5" stroke-linecap="round"/>
<path d="M6.66699 4.16699V5.00033" stroke="#777F89" stroke-width="1.5" stroke-linecap="round"/>
<path d="M13.333 15.833V14.9997" stroke="#777F89" stroke-width="1.5" stroke-linecap="round"/>
</g>
<defs>
<clipPath id="clip0_6132_2067">
<rect width="20" height="20" rx="5" fill="white"/>
</clipPath>
</defs>
</svg>
