<svg width="24" height="24" viewBox="0 0 24 24" fill="none" xmlns="http://www.w3.org/2000/svg">
<path d="M10.7676 8.26387V13.3311C10.7676 15.4732 9.08008 16.7342 7.01758 16.7342C4.95508 16.7342 3.26758 15.4686 3.26758 13.3311V8.26387C3.26758 7.72949 3.69414 7.29356 4.23789 7.29356C4.78164 7.29356 5.25977 7.73418 5.25977 8.26387V13.317C5.25977 14.6061 6.11289 15.0748 7.01758 15.0748C7.92227 15.0748 8.7707 14.6107 8.7707 13.317V8.26387C8.7707 7.73418 9.23477 7.29356 9.79258 7.29356C10.3551 7.29356 10.7676 7.72949 10.7676 8.26387ZM20.7332 15.792C20.7332 16.2842 20.3066 16.6967 19.7629 16.6967C19.3082 16.6967 18.966 16.4436 18.8066 16.0592L18.2207 14.6717H14.616L14.0301 16.0545C13.8707 16.4389 13.5098 16.692 13.0691 16.692C12.5254 16.692 12.0988 16.2795 12.0988 15.7873C12.0988 15.5904 12.1504 15.3748 12.2301 15.2154L15.4363 8.00606C15.6613 7.49981 15.9707 7.26074 16.4066 7.26074C16.8473 7.26074 17.166 7.49981 17.377 8.00606L20.5973 15.2154C20.6816 15.3795 20.7332 15.5904 20.7332 15.792ZM17.5551 13.1014L16.4113 10.4295L15.2816 13.1014H17.5551Z" fill="#005495"/>
</svg>
