<svg width="28" height="28" viewBox="0 0 28 28" fill="none" xmlns="http://www.w3.org/2000/svg">
<g clip-path="url(#clip0_4009_1507)">
<path d="M26.5997 0.240358L21.7022 5.13784L21.1223 4.55788C20.8019 4.23747 20.2827 4.23747 19.9623 4.55788L19.3818 5.13811L22.8619 8.61821L23.4422 8.0377C23.7626 7.71729 23.7626 7.19814 23.4422 6.87772L22.8622 6.29776L27.7597 1.40028C28.0801 1.07987 28.0801 0.560718 27.7597 0.240304C27.4393 -0.0801103 26.9201 -0.0801103 26.5997 0.240358Z" fill="#FFAF37"/>
<path d="M19.7969 27.1797C19.7969 27.6331 20.1638 28 20.6172 28H27.1797C27.6331 28 28 27.6331 28 27.1797V24.7188H19.7969V27.1797Z" fill="#FFAF37"/>
<path d="M26.8128 18.3213C27.5674 17.7092 28 16.8016 28 15.6953C28 15.2419 27.6331 14.875 27.1797 14.875H20.6172C20.1638 14.875 19.7969 15.2419 19.7969 15.6953V15.8675C19.7969 16.8272 20.2279 17.7189 20.9784 18.3148C21.2749 18.5511 21.4271 18.8925 21.4383 18.9613C21.4271 19.055 21.2773 19.3891 20.9897 19.6254C20.2319 20.2511 19.7969 21.174 19.7969 22.1577V23.0781H28V22.1577C28 21.174 27.565 20.2511 26.8064 19.6254C26.5196 19.3891 26.3698 19.055 26.3586 18.9902C26.3698 18.8956 26.5204 18.5576 26.812 18.3221L26.8128 18.3213Z" fill="#FFAF37"/>
<path d="M6.62129 15.5786L5.46142 16.7387L4.88102 16.1583C4.56061 15.8379 4.04146 15.8379 3.72105 16.1583C3.40063 16.4787 3.40063 16.9979 3.72105 17.3183L10.6817 24.2789C10.8419 24.4391 11.0518 24.5193 11.2616 24.5193C11.4715 24.5193 11.6814 24.4391 11.8416 24.2789C12.162 23.9585 12.162 23.4393 11.8416 23.1189L11.2612 22.5385L12.4213 21.3787L6.62129 15.5786Z" fill="#FFAF37"/>
<path d="M22.5225 10.9387C22.5225 10.7208 22.436 10.5125 22.2822 10.3587L17.6415 5.71802C17.3339 5.4104 16.7892 5.4104 16.4816 5.71802L14.7413 7.4585L16.4816 9.19877C16.802 9.51918 16.802 10.0383 16.4816 10.3587C16.1611 10.6792 15.642 10.6792 15.3216 10.3587L13.5813 8.61848L12.4213 9.77846L14.1616 11.5187C14.482 11.8391 14.482 12.3583 14.1616 12.6787C13.8412 12.9991 13.322 12.9991 13.0016 12.6787L11.2615 10.9385L10.1015 12.0985L11.8416 13.8387C12.1621 14.1591 12.1621 14.6782 11.8416 14.9987C11.5212 15.3191 11.0021 15.3191 10.6817 14.9987L8.94162 13.2586L7.78127 14.419L13.5813 20.219L22.2822 11.5187C22.436 11.3648 22.5225 11.1565 22.5225 10.9387Z" fill="#FFAF37"/>
<path d="M4.30133 20.2188L1.9804 22.5393L1.40033 21.9592C1.07991 21.6388 0.560763 21.6388 0.240349 21.9592C-0.0800654 22.2796 -0.0800654 22.7988 0.240349 23.1192L4.88102 27.7599C5.04125 27.9201 5.25114 28.0002 5.46098 28.0002C5.67082 28.0002 5.88076 27.9201 6.04094 27.7599C6.36136 27.4395 6.36136 26.9203 6.04094 26.5999L5.46087 26.0198L7.78143 23.6989L4.30133 20.2188Z" fill="#FFAF37"/>
</g>
<defs>
<clipPath id="clip0_4009_1507">
<rect width="28" height="28" fill="white"/>
</clipPath>
</defs>
</svg>
