<svg width="24" height="24" viewBox="0 0 24 24" fill="none" xmlns="http://www.w3.org/2000/svg">
<g clip-path="url(#clip0_4213_11330)">
<path d="M18.4359 0H5.56401C2.75976 0 0.571922 2.42452 0.86175 5.21095L2.37567 19.7654C2.62603 22.1717 4.65618 24 7.07798 24H11.2968V18.3505C11.2968 17.9625 11.6116 17.6481 11.9999 17.6481C12.3883 17.6481 12.7031 17.9625 12.7031 18.3505V24H16.9219C19.3437 24 21.3739 22.1717 21.6242 19.7654L23.1381 5.21095C23.428 2.42452 21.2401 0 18.4359 0V0ZM19.9762 7.69613L16.145 12.0956C16.0114 12.2489 15.8179 12.337 15.6145 12.337H8.38542C8.18193 12.337 7.98848 12.249 7.85493 12.0956L4.0237 7.69613C3.7935 7.4318 3.7935 7.03842 4.0237 6.77405C6.14807 4.33458 8.98077 2.99114 11.9999 2.99114C15.0191 2.99114 17.8518 4.33463 19.9762 6.77409C20.2064 7.03842 20.2064 7.4318 19.9762 7.69613Z" fill="#005495"/>
<path d="M17.2351 6.14479L16.6251 6.86685C16.486 7.03349 16.286 7.11951 16.0846 7.11951C15.9259 7.11951 15.7663 7.06612 15.6347 6.95662C15.3365 6.70823 15.2962 6.2653 15.5449 5.96732L16.0191 5.38809C14.9797 4.8472 13.8606 4.51935 12.7027 4.4248V5.28988C12.7027 5.67782 12.3879 5.9923 11.9996 5.9923C11.6113 5.9923 11.2965 5.67782 11.2965 5.28988V4.4248C10.1386 4.51935 9.01959 4.8472 7.98013 5.38804L8.45428 5.96727C8.70295 6.26526 8.66268 6.70818 8.36446 6.95657C8.23298 7.06602 8.07332 7.11946 7.91456 7.11946C7.71313 7.11946 7.51321 7.03344 7.37413 6.8668L6.76181 6.14643C6.31879 6.47132 5.89584 6.83896 5.49707 7.24794L8.70529 10.932H10.5777L11.6819 8.54263C11.807 8.27198 12.1921 8.27198 12.3172 8.54263L13.4214 10.932H15.2938L18.502 7.24794C18.1028 6.8383 17.679 6.4701 17.2351 6.14479Z" fill="#005495"/>
</g>
<defs>
<clipPath id="clip0_4213_11330">
<rect width="24" height="24" fill="white"/>
</clipPath>
</defs>
</svg>
